<?xml version="1.0" ?><svg enable-background="new 0 0 512 512" id="Layer_1" version="1.1" viewBox="0 0 512 512" xml:space="preserve" xmlns="http://www.w3.org/2000/svg" xmlns:xlink="http://www.w3.org/1999/xlink"><g><g><linearGradient gradientUnits="userSpaceOnUse" id="SVGID_1_" x1="0.0000083" x2="512" y1="256" y2="256"><stop offset="0" style="stop-color:#FFCA05"/><stop offset="1" style="stop-color:#FAAC18"/></linearGradient><circle cx="256" cy="256" fill="url(#SVGID_1_)" r="256"/><linearGradient gradientUnits="userSpaceOnUse" id="SVGID_2_" x1="42.6666756" x2="469.333313" y1="256.0005188" y2="256.0005188"><stop offset="0" style="stop-color:#FAAC18"/><stop offset="1" style="stop-color:#FFCA05"/></linearGradient><path d="M256,469.3338623c-117.6309204,0-213.3333282-95.7018738-213.3333282-213.3333435    c0-117.6309204,95.7024078-213.333313,213.3333282-213.333313c117.636261,0,213.333313,95.7024002,213.333313,213.333313    C469.333313,373.6319885,373.636261,469.3338623,256,469.3338623z" fill="url(#SVGID_2_)"/></g><path d="M264,144.0005341c-66.2736053,0-119.9994507,53.7258606-119.9994507,119.9994659   c0,66.2746582,53.7258453,119.9994812,119.9994507,119.9994812S383.9994507,330.2746582,383.9994507,264   C383.9994507,197.7263947,330.2735901,144.0005341,264,144.0005341z M300.3493347,219.3322601   c13.095459,0,23.7498474,10.6544037,23.7498474,23.7498779h-10c0-7.5829315-6.1669312-13.7498779-13.7498474-13.7498779   c-7.5829468,0-13.7498779,6.1669464-13.7498779,13.7498779h-10   C276.5994568,229.9866638,287.2533264,219.3322601,300.3493347,219.3322601z M226.447998,219.3322601   c13.095459,0,23.7503967,10.6544037,23.7503967,23.7498779h-10c0-7.5829315-6.1669312-13.7498779-13.7503967-13.7498779   c-7.5823975,0-13.7498627,6.1669464-13.7498627,13.7498779h-10   C202.6981354,229.9866638,213.3525238,219.3322601,226.447998,219.3322601z M264.0015869,354   c-24.0085297,0-46.5962524-9.3701172-63.612793-26.3866577l7.06987-7.0704041   C222.5856018,335.6698608,242.6687927,344,264.0015869,344s41.4111938-8.3301392,56.5376282-23.4570618l7.0709229,7.0704041   C310.5935974,344.6298828,288.0053406,354,264.0015869,354z" opacity="0.3"/><path d="M256,136.0005341c-66.2736053,0-119.9994507,53.7258606-119.9994507,119.9994659   c0,66.2746582,53.7258453,119.9994812,119.9994507,119.9994812S375.9994507,322.2746582,375.9994507,256   C375.9994507,189.7263947,322.2735901,136.0005341,256,136.0005341z M292.3493347,211.3322601   c13.095459,0,23.7498474,10.6544037,23.7498474,23.7498779h-10c0-7.5829315-6.1669312-13.7498779-13.7498474-13.7498779   c-7.5829468,0-13.7498779,6.1669464-13.7498779,13.7498779h-10   C268.5994568,221.9866638,279.2533264,211.3322601,292.3493347,211.3322601z M218.447998,211.3322601   c13.095459,0,23.7503967,10.6544037,23.7503967,23.7498779h-10c0-7.5829315-6.1669312-13.7498779-13.7503967-13.7498779   c-7.5823975,0-13.7498627,6.1669464-13.7498627,13.7498779h-10   C194.6981354,221.9866638,205.3525238,211.3322601,218.447998,211.3322601z M256.0015869,346   c-24.0085297,0-46.5962524-9.3701477-63.612793-26.3866577l7.06987-7.0704041   C214.5856018,327.6698608,234.6687927,336,256.0015869,336s41.4111938-8.3301392,56.5376282-23.4570618l7.0709229,7.0704041   C302.5935974,336.6298523,280.0053406,346,256.0015869,346z" fill="#FFFFFF"/></g></svg>