<svg width="512" height="512" xmlns="http://www.w3.org/2000/svg">

 <g>
  <title>background</title>
  <rect fill="none" id="canvas_background" height="514" width="514" y="-1" x="-1"/>
 </g>
 <g>
  <title>Layer 1</title>
  <path fill="#8e714e" id="svg_3" d="m464.023807,246.019562c-0.4,0.1 -0.9,1 -0.9,1.6c-0.1,3.5 -0.2,12.7 -0.2,19c0,0.2 0.3,0.5 0.5,0.5c1.3,0.1 4.4,0.2 7.1,0.2c3.7,0 5.9,-0.5 7.1,-1c3.1,-1.6 4.6,-5 4.6,-8.7c0,-8.4 -5.9,-11.7 -14.7,-11.7c-0.5,-0.2 -2.2,-0.2 -3.5,0.1l0,0l0,0zm22.4,38.9c0,-8.6 -6.3,-13.4 -17.8,-13.4c-0.5,0 -4.2,-0.1 -5,0.1c-0.3,0.1 -0.6,0.3 -0.6,0.5c0,6.2 -0.1,16 0.2,19.8c0.2,1.7 1.4,4 2.9,4.7c1.6,0.9 5.1,1 7.6,1c6.7,0 12.7,-3.8 12.7,-12.7l0,0l0,0zm-40.2,-43.7c0.9,0 3.5,0.3 10.2,0.3c6.3,0 11.4,-0.2 17.6,-0.2c7.6,0 18,2.7 18,14c0,5.6 -3.9,10 -9,12.2c-0.3,0.1 -0.3,0.3 0,0.3c7.3,1.8 13.7,6.3 13.7,14.9c0,8.3 -5.2,13.7 -12.8,17c-4.6,2 -10.3,2.7 -16.2,2.7c-4.4,0 -16.3,-0.5 -23,-0.3c-0.7,-0.3 0.6,-3.4 1.2,-3.9c1.6,-0.1 2.8,-0.2 4.4,-0.7c2.3,-0.6 2.6,-1.3 3,-4.9c0.2,-3 0.2,-13.8 0.2,-21.5c0,-10.5 0.1,-17.7 0,-21.1c-0.1,-2.7 -1,-3.6 -3,-4.1c-1.5,-0.3 -3.9,-0.6 -5.9,-0.9c-0.4,-0.5 1.1,-3.5 1.6,-3.8l0,0l0,0zm-50.1,54.1c2.1,1.7 6.2,2.3 9.8,2.3c4.7,0 9.4,-0.9 13.9,-5c4.6,-4.2 7.8,-10.6 7.8,-20.9c0,-9.8 -3.7,-17.8 -11.4,-22.5c-4.3,-2.7 -9.9,-3.8 -16.3,-3.8c-1.9,0 -3.7,0.1 -4.9,0.6c-0.3,0.2 -0.9,1 -0.9,1.4c-0.2,1.7 -0.2,15.1 -0.2,23c0,8.1 0,19.4 0.2,20.7c0.1,1.3 0.7,3.3 2,4.2l0,0l0,0zm-19.8,-54.1c1.7,0 8,0.3 11,0.3c5.5,0 9.4,-0.3 19.7,-0.3c8.7,0 16,2.3 21.2,6.8c6.3,5.5 9.7,13 9.7,22.3c0,13.1 -6,20.7 -12,25c-6,4.4 -13.8,7 -25,7c-5.9,0 -16.1,-0.2 -24.5,-0.3l-0.1,0c-0.4,-0.8 0.7,-3.8 1.4,-3.9c2.3,-0.3 2.9,-0.3 4,-0.8c1.8,-0.7 2.2,-1.7 2.4,-4.9c0.3,-6 0.2,-13.2 0.2,-21.4c0,-5.8 0.1,-17.2 -0.1,-20.9c-0.3,-3 -1.6,-3.8 -4.2,-4.3c-1.3,-0.3 -3,-0.6 -5.5,-0.9c-0.2,-0.5 1.4,-3.2 1.8,-3.7l0,0l0,0z" class="st0"/>
  <path fill="#442d22" id="svg_4" d="m271.123807,298.719562c-2.2,-0.3 -3.7,-0.6 -5.7,-1.5c-0.3,-0.2 -0.7,-1 -0.7,-1.4c-0.2,-3 -0.2,-11.7 -0.2,-17.6c0,-4.7 -0.8,-8.8 -2.8,-11.7c-2.3,-3.3 -5.7,-5.2 -10.1,-5.2c-3.8,0 -9,2.6 -13.2,6.3c-0.1,0.1 -0.8,0.7 -0.7,-0.3c0,-1 0.2,-2.9 0.3,-4.2c0.1,-1.2 -0.6,-1.8 -0.6,-1.8c-2.8,1.4 -10.6,3.2 -13.5,3.5c-2.1,0.4 -2.6,2.4 -0.4,3.1l0.1,0c2.3,0.7 3.9,1.5 5.1,2.3c0.9,0.7 0.8,1.7 0.8,2.4c0.1,6.5 0.1,16.5 -0.2,22c-0.1,2.2 -0.7,3 -2.3,3.3l0.2,-0.1c-1.2,0.3 -2.2,0.5 -3.7,0.7c-0.5,0.5 -0.5,3.3 0,3.9c1,0 6,-0.3 10.2,-0.3c5.7,0 8.7,0.3 10.2,0.3c0.6,-0.7 0.8,-3.3 0.4,-3.9c-1.7,-0.1 -2.9,-0.3 -4,-0.6c-1.6,-0.3 -2,-1.1 -2.1,-3c-0.2,-4.6 -0.2,-14.3 -0.2,-21c0,-1.8 0.5,-2.7 1,-3.2c2,-1.7 5.2,-3 8.1,-3c2.8,0 4.6,0.9 6,2c1.9,1.6 2.5,3.8 2.8,5.5c0.4,3.7 0.3,11.1 0.3,17.6c0,3.5 -0.3,4.3 -1.6,4.8c-0.6,0.3 -2.2,0.6 -4,0.8c-0.6,0.6 -0.4,3.3 0,3.9c2.5,0 5.5,-0.3 9.8,-0.3c5.4,0 8.9,0.3 10.3,0.3c0.6,-0.4 0.8,-2.9 0.4,-3.6l0,0l0,0zm24.1,-33.2c-4.6,0 -7.5,3.6 -7.5,9.1c0,5.7 2.5,12.2 9.7,12.2c1.2,0 3.5,-0.5 4.5,-1.7c1.7,-1.6 2.8,-4.7 2.8,-8c0,-7.3 -3.6,-11.6 -9.5,-11.6l0,0l0,0zm-0.6,38.4c-1.7,0 -3,0.5 -3.7,1c-3.7,2.3 -5.3,4.6 -5.3,7.3c0,2.5 1,4.5 3,6.3c2.5,2.2 6,3.2 10.4,3.2c8.9,0 12.8,-4.8 12.8,-9.5c0,-3.3 -1.7,-5.5 -5,-6.7c-2.5,-1.1 -6.9,-1.6 -12.2,-1.6l0,0l0,0zm0.6,22.6c-5.3,0 -9.1,-1.1 -12.4,-3.7c-3.2,-2.4 -4.6,-6.1 -4.6,-8.6c0,-0.7 0.2,-2.6 1.7,-4.3c1,-1 3,-3 8,-6.4c0.2,-0.1 0.3,-0.2 0.3,-0.3c0,-0.2 -0.2,-0.3 -0.3,-0.4c-4.1,-1.6 -5.3,-4.1 -5.7,-5.5l0,-0.3c-0.1,-0.5 -0.3,-1 0.5,-1.6c0.6,-0.4 1.5,-1 2.4,-1.6c1.5,-0.9 3,-1.8 4,-2.6c0.2,-0.2 0.2,-0.3 0.2,-0.5s-0.2,-0.3 -0.3,-0.4c-6.1,-2 -9.1,-6.5 -9.1,-13.3c0,-4.4 2,-8.4 5.6,-11c2.4,-1.9 8.5,-4.3 12.5,-4.3l0.3,0c4.1,0.1 6.3,1 9.6,2.1c1.7,0.6 3.4,0.9 5.7,0.9c3.4,0 4.9,-1 6.1,-2.3c0.1,0.2 0.3,0.6 0.3,1.7c0.1,1.1 -0.3,2.8 -1.1,4c-0.7,1 -2.3,1.7 -3.8,1.7l-0.4,0c-1.6,-0.2 -2.3,-0.3 -2.3,-0.3l-0.3,0.2c-0.1,0.2 0,0.3 0.1,0.6l0.1,0.2c0.2,0.8 0.5,3.1 0.5,3.7c0,7.1 -2.9,10.3 -5.9,12.6c-3,2.2 -6.3,3.6 -10.2,3.9c-0.1,0 -0.4,0 -1.2,0.1c-0.4,0 -1,0.1 -1.1,0.1l-0.1,0c-0.7,0.2 -2.4,1 -2.4,2.5c0,1.3 0.8,2.9 4.5,3.1c0.8,0.1 1.6,0.1 2.4,0.2c5,0.3 11.1,0.8 14,1.7c4,1.5 6.5,5 6.5,9.3c0,6.4 -4.6,12.4 -12.3,16.2c-4,1.7 -7.7,2.6 -11.8,2.6l0,0l0,0zm49.6,-60.6c-1.8,0 -3.5,0.4 -4.7,1.3c-3.4,2.1 -5.1,6.3 -5.1,12.3c0,11.4 5.7,19.4 13.9,19.4c2.4,0 4.3,-0.7 6,-2.1c2.5,-2.1 3.8,-6.3 3.8,-12.1c0,-11.2 -5.7,-18.8 -13.9,-18.8l0,0l0,0zm1.5,37.2c-14.8,0 -20.1,-10.9 -20.1,-21c0,-7.1 2.9,-12.6 8.6,-16.5c4.1,-2.5 9,-3.9 13.3,-3.9c11.3,0 19.2,8.1 19.2,19.7c0,7.9 -3.1,14.2 -9.1,18c-2.8,1.9 -7.8,3.7 -11.9,3.7l0,0l0,0zm-154.9,-37.2c-1.8,0 -3.5,0.4 -4.7,1.3c-3.4,2.1 -5.1,6.3 -5.1,12.3c0,11.4 5.7,19.4 13.9,19.4c2.4,0 4.3,-0.7 6,-2.1c2.5,-2.1 3.8,-6.3 3.8,-12.1c0,-11.2 -5.6,-18.8 -13.9,-18.8l0,0l0,0zm1.6,37.2c-14.8,0 -20.1,-10.9 -20.1,-21c0,-7.1 2.9,-12.6 8.6,-16.5c4.1,-2.5 9,-3.9 13.3,-3.9c11.3,0 19.2,8.1 19.2,19.7c0,7.9 -3.1,14.2 -9.1,18c-2.8,1.9 -7.8,3.7 -11.9,3.7l0,0l0,0zm-99.4,-0.9c-0.2,-0.3 -0.3,-1 -0.3,-2c0,-0.7 0.2,-1.1 0.3,-1.3c1.8,-0.3 2.8,-0.5 3.8,-0.8c1.7,-0.4 2.4,-1.4 2.5,-3.6c0.3,-5.2 0.3,-15.1 0.2,-22l0,-0.2c0,-0.8 0,-1.7 -1,-2.4c-1.4,-0.9 -3,-1.7 -5.2,-2.3c-0.8,-0.3 -1.3,-0.7 -1.2,-1.2c0,-0.5 0.5,-1.1 1.7,-1.3c2.9,-0.3 10.3,-2.1 13.3,-3.4c0.2,0.2 0.4,0.7 0.4,1.4l-0.1,1c-0.1,1 -0.2,2.1 -0.2,3.2c0,0.3 0.3,0.6 0.7,0.6c0.2,0 0.3,-0.1 0.5,-0.2c5.6,-4.3 10.6,-5.9 13.2,-5.9c4.3,0 7.6,2 10.1,6.2c0.2,0.3 0.3,0.3 0.6,0.3c0.2,0 0.4,-0.1 0.5,-0.3c5.1,-3.9 10.3,-6.3 13.7,-6.3c8.1,0 12.9,6 12.9,16.2c0,2.9 0,6.6 -0.1,10c0,3 -0.1,5.8 -0.1,7.8c0,0.4 0.6,1.8 1.6,2.1c1.2,0.6 2.9,0.9 5,1.2l0.1,0c0.2,0.6 -0.2,2.9 -0.5,3.3c-0.5,0 -1.3,0 -2.2,-0.1c-1.7,-0.1 -4,-0.2 -6.6,-0.2c-5.4,0 -8.2,0.1 -10.9,0.3c-0.2,-0.7 -0.3,-2.8 0,-3.3c1.6,-0.3 2.3,-0.5 3.3,-0.8c1.7,-0.5 2.2,-1.3 2.3,-3.6c0,-1.7 0.3,-15.7 -0.2,-19.1c-0.5,-3.5 -3.1,-7.6 -8.9,-7.6c-2.2,0 -5.6,0.9 -8.9,3.4c-0.2,0.2 -0.3,0.6 -0.3,0.9l0,0.1c0.3,1.8 0.3,3.9 0.3,7.1l0,5.7c0,3.9 -0.1,7.6 0,10.3c0,1.9 1.1,2.3 2.1,2.7c0.5,0.1 0.9,0.2 1.3,0.3c0.8,0.2 1.6,0.3 2.8,0.6c0.2,0.3 0.2,1.5 -0.1,2.4c-0.1,0.5 -0.3,0.8 -0.3,0.9c-3,-0.1 -6,-0.2 -10.4,-0.2c-1.3,0 -3.6,0.1 -5.5,0.1c-1.6,0 -3,0.1 -3.9,0.1c-0.1,-0.2 -0.3,-0.8 -0.3,-1.7c0,-0.8 0.2,-1.4 0.3,-1.6c0.4,-0.1 0.8,-0.2 1.2,-0.2c1,-0.2 1.9,-0.3 2.8,-0.5c1.5,-0.4 2,-1.2 2.1,-3.1c0.3,-4.3 0.5,-16.8 -0.1,-19.9c-1,-5 -3.9,-7.6 -8.5,-7.6c-2.7,0 -6.1,1.3 -8.9,3.4c-0.4,0.3 -0.8,1.2 -0.8,2l0,5.1c0,6.3 0,14.1 0.1,17.5c0.1,1 0.4,2.3 2.4,2.7c0.4,0.1 1.1,0.3 2,0.3l1.6,0.3c0.2,0.5 0.1,2.6 -0.3,3.3c-0.9,0 -1.9,-0.1 -3.1,-0.1c-1.8,-0.1 -4.2,-0.2 -6.8,-0.2c-3,0 -5.2,0.1 -7,0.2c-1,0 -2,0 -3,0l0,0l0,0z" class="st1"/>
  <path fill="#ffffff" id="svg_6" d="m47.823807,323.119562l-3.6,-1.2c0,0 0.4,-18.2 -6.1,-19.5c-4.3,-5 0.7,-213.9 16.3,-0.7c0,0 -5.4,2.7 -6.3,7.3c-1,4.5 -0.3,14.1 -0.3,14.1l0,0l0,0z" class="st2"/>
  <path fill="#a6a385" id="svg_7" d="m47.823807,323.119562l-3.6,-1.2c0,0 0.4,-18.2 -6.1,-19.5c-4.3,-5 0.7,-213.9 16.3,-0.7c0,0 -5.4,2.7 -6.3,7.3c-1,4.5 -0.3,14.1 -0.3,14.1l0,0l0,0z" class="st3"/>
  <path fill="#ffffff" id="svg_8" d="m49.723807,305.519562c0,0 31.2,-20.5 23.9,-63.2c-7,-31 -23.7,-41.2 -25.5,-45.1c-2,-2.8 -3.9,-7.7 -3.9,-7.7l1.3,86.3c0.1,0.2 -2.6,26.5 4.2,29.7" class="st2"/>
  <path fill="#499d4a" id="svg_9" d="m49.723807,305.519562c0,0 31.2,-20.5 23.9,-63.2c-7,-31 -23.7,-41.2 -25.5,-45.1c-2,-2.8 -3.9,-7.7 -3.9,-7.7l1.3,86.3c0.1,0.2 -2.6,26.5 4.2,29.7" class="st4"/>
  <path fill="#ffffff" id="svg_10" d="m42.423807,306.719562c0,0 -29.3,-20 -27.6,-55.2c1.7,-35.2 22.3,-52.5 26.3,-55.7c2.7,-2.8 2.8,-3.8 3,-6.6c1.8,3.9 1.5,58.5 1.7,65c0.8,24.7 -1.4,47.8 -3.4,52.5l0,0l0,0z" class="st2"/>
  <path fill="#58aa50" id="svg_11" d="m42.423807,306.719562c0,0 -29.3,-20 -27.6,-55.2c1.7,-35.2 22.3,-52.5 26.3,-55.7c2.7,-2.8 2.8,-3.8 3,-6.6c1.8,3.9 1.5,58.5 1.7,65c0.8,24.7 -1.4,47.8 -3.4,52.5l0,0l0,0z" class="st5"/>
 </g>
</svg>