<?xml version="1.0" encoding="utf-8"?>
<!-- Generator: Adobe Illustrator 19.0.0, SVG Export Plug-In . SVG Version: 6.00 Build 0)  -->
<svg version="1.1" xmlns="http://www.w3.org/2000/svg" xmlns:xlink="http://www.w3.org/1999/xlink" x="0px" y="0px"
	 viewBox="-155 247 300 300" style="enable-background:new -155 247 300 300;" xml:space="preserve">
<style type="text/css">
	.st0{fill:#2D2D2D;}
	.st1{fill:#383838;}
	.st2{fill:#636362;}
	.st3{fill:#2B2B2B;}
	.st4{fill:#2B2B2B;stroke:#191919;stroke-width:0.25;stroke-miterlimit:10;}
	.st5{fill:#D1D1D1;}
	.st6{fill:#212121;}
	.st7{opacity:0.39;fill:#212121;}
	.st8{fill:#1C1C1C;}
	.st9{fill:#232323;}
	.st10{fill:#E2E2E2;}
	.st11{fill:url(#SVGID_1_);stroke:#141414;stroke-width:0.5;stroke-miterlimit:10;}
	.st12{fill:url(#SVGID_2_);}
	.st13{fill:#5E91AA;}
	.st14{fill:#296DA5;}
	.st15{opacity:0.34;fill:#8DBFD3;}

	#Lente{
	  position: absolute;
	  top: 50%;
	  left: 50%;
	  margin: auto;
	  animation: spin 5s linear infinite;
	  transform-origin: -1% 128%;
	  width: 200px;
	}
	
	#Carregando{
		-webkit-animation: nadar 2s linear 0s infinite alternate;
	}
	
	@-webkit-keyframes nadar {
		from {-webkit-transform: translateY(0%);}
		to {-webkit-transform: translateY(2%);}	
	}
	
	
	
	@keyframes spin{
		0% {
		transform: rotate(0deg);
	  }
	  50% {
		transform: rotate(30deg);
	  }
	  100% {
		transform: rotate(0deg);
	  }
	}
</style>
<g id="Camada_1">
	<g id="Carregando">
		<g id="XMLID_2_">
			<path id="XMLID_4_" d="M-99.6,504.1c0,1.2-0.9,2.5-2.6,3.9c-2.9,2.3-6.6,3.5-11.2,3.5c-4.9,0-8.6-1.5-11.3-4.4s-4-7.1-4-12.4
				c0-5.1,1.4-9.3,4.1-12.6c2.9-3.5,6.8-5.2,11.7-5.2c4.1,0,7.5,1.1,10.2,3.2c1,0.8,1.5,1.5,1.5,2.2c0,0.5-0.2,1-0.6,1.4
				c-0.4,0.4-0.8,0.6-1.4,0.6c-0.3,0-0.8-0.2-1.4-0.7c-2.7-2-5.5-3-8.4-3c-3.5,0-6.4,1.3-8.5,3.8s-3.2,5.9-3.2,10.2
				c0,8.7,3.8,13,11.3,13c4.3,0,7.4-1,9.2-3.1c0.4-0.5,0.8-1.1,1.3-1.7c0.4-0.5,0.9-0.7,1.4-0.7s1,0.2,1.4,0.5
				C-99.7,503.1-99.6,503.5-99.6,504.1z"/>
			<path id="XMLID_6_" d="M-79,495.5c0,3.5-0.5,7.1-1.5,10.9c-0.5,1.9-1.3,2.9-2.3,2.9s-1.5-0.6-1.5-1.8c0-0.3,0-0.5,0-0.6
				c-1.3,0.7-2.6,1-4,1c-2.5,0-4.4-0.7-5.7-2.1c-1.4-1.4-2.1-3.3-2.1-5.8s0.7-4.5,2.2-6s3.5-2.2,5.9-2.2c2.1,0,4,0.7,5.4,2.2
				c-0.2-5-2.1-7.5-5.6-7.5c-0.8,0-1.6,0.2-2.5,0.7s-1.5,0.7-1.7,0.7c-0.4,0-0.8-0.2-1.2-0.5c-0.4-0.3-0.5-0.8-0.5-1.2
				c0-0.8,0.6-1.5,1.7-2.1c1.2-0.7,2.6-1,4.2-1C-82.1,482.9-79,487.1-79,495.5z M-82.9,499.9c0-3.2-1.5-4.8-4.6-4.8
				c-3.3,0-5,1.6-5,4.8c0,3.2,1.7,4.8,5,4.8c1.4,0,2.6-0.4,3.4-1.3C-83.3,502.6-82.9,501.4-82.9,499.9z"/>
			<path id="XMLID_18_" d="M-59.6,488c0,0.5-0.1,0.9-0.4,1.2c-0.3,0.3-0.6,0.5-1,0.5c-0.3,0-0.8-0.2-1.4-0.7s-1.1-0.7-1.6-0.7
				c-1.2,0-2.2,0.5-2.9,1.6c-0.7,1.1-1.1,2.5-1.1,4.3v2.5c0,2.8-0.3,5-0.9,6.6c-0.5,1.5-1.3,2.3-2.1,2.3c-1.2,0-1.7-0.6-1.7-1.7
				c0-0.2,0.2-1.1,0.5-2.5c0.4-1.5,0.5-2.8,0.5-4.1c0-3.6-0.5-6.4-1.5-8.5c0-0.1-0.4-0.7-1-1.9c-0.3-0.6-0.5-1.1-0.5-1.5
				s0.2-0.8,0.6-1.1c0.4-0.4,0.8-0.5,1.3-0.5c1.3,0,2.5,1.7,3.4,5c1.3-2.5,3.2-3.8,5.8-3.8c1.3,0,2.3,0.3,3.1,0.9
				C-60,486.4-59.6,487.1-59.6,488z"/>
			<path id="XMLID_20_" d="M-42.2,488c0,0.5-0.1,0.9-0.4,1.2c-0.3,0.3-0.6,0.5-1,0.5c-0.3,0-0.8-0.2-1.4-0.7
				c-0.6-0.4-1.1-0.7-1.6-0.7c-1.2,0-2.2,0.5-2.9,1.6c-0.8,1.1-1.1,2.5-1.1,4.3v2.5c0,2.8-0.3,5-0.9,6.6c-0.5,1.5-1.3,2.3-2.1,2.3
				c-1.2,0-1.7-0.6-1.7-1.7c0-0.2,0.2-1.1,0.5-2.5c0.4-1.5,0.5-2.8,0.5-4.1c0-3.6-0.5-6.4-1.5-8.5c0-0.1-0.4-0.7-1-1.9
				c-0.3-0.6-0.5-1.1-0.5-1.5s0.2-0.8,0.6-1.1c0.4-0.4,0.8-0.5,1.3-0.5c1.3,0,2.5,1.7,3.4,5c1.3-2.5,3.2-3.8,5.8-3.8
				c1.3,0,2.3,0.3,3.1,0.9C-42.5,486.4-42.2,487.1-42.2,488z"/>
			<path id="XMLID_22_" d="M-20.6,490.7c0,1.3-0.5,2.3-1.4,2.9c-0.4,0.3-1.7,0.6-3.9,1.1c-2.9,0.6-5.3,0.9-7.4,0.9
				c-0.9,0-2-0.1-3.4-0.2c0,4.8,1.8,7.2,5.5,7.2c1,0,1.9-0.3,2.7-0.9c0.4-0.3,1.1-1,2.2-2c0.4-0.4,0.8-0.6,1.2-0.6
				c0.5,0,1,0.2,1.4,0.6c0.4,0.4,0.6,0.9,0.6,1.5c0,0.5-0.2,0.9-0.6,1.3c-2.2,2.4-4.7,3.6-7.7,3.6c-6.1,0-9.1-3.5-9.1-10.5
				c0-3.6,1-6.7,2.9-9.4c2.2-3,4.9-4.5,8.2-4.5c2.5,0,4.6,0.8,6.2,2.5C-21.4,486-20.6,488.1-20.6,490.7z M-24.4,491
				c-0.1-1.8-0.5-3.2-1.4-4.2c-0.8-1-1.9-1.5-3.2-1.5c-1.7,0-3.1,0.6-4.4,1.8s-2.3,2.9-2.9,5.1c0.9,0.1,1.9,0.2,2.9,0.2
				C-30.9,492.2-27.9,491.8-24.4,491z"/>
			<path id="XMLID_32_" d="M1.1,481.7c0,1-0.6,1.5-1.7,1.5c-0.2,0-0.5,0-1-0.1c-0.6-0.1-1.2-0.1-1.6-0.1c1.5,1.7,2.3,3.7,2.3,6
				c0,2.3-0.8,4.1-2.4,5.6c-1.6,1.5-3.7,2.2-6.2,2.2c-0.6,0-1.5-0.1-2.7-0.2c-1.1,0.8-1.9,1.8-2.6,2.9c2.5-0.3,4.1-0.4,4.9-0.4
				c5.2,0,7.8,1.8,7.8,5.4c0,2.2-1,3.9-2.9,5.1c-2,1.2-4.7,1.9-8.2,1.9c-2.2,0-4-0.4-5.3-1.3c-1.2-0.8-1.8-1.8-1.8-3
				c0-0.4,0.2-0.8,0.6-1.1s0.8-0.5,1.3-0.5c0.3,0,0.7,0.1,1,0.4s0.6,0.7,1,1c0.6,0.6,1.8,0.9,3.5,0.9c2.2,0,4-0.3,5.2-0.9
				s1.8-1.3,1.8-2.3c0-1.4-1.7-2.2-5-2.2c-0.8,0-1.8,0.1-3.1,0.2c-1.3,0.1-2.2,0.2-2.7,0.2c-1.2,0-1.8-0.4-1.8-1.3
				c0-1.2,1.2-3.3,3.6-6.2c-2-1.4-2.9-3.4-2.9-6c0-2.4,0.9-4.5,2.6-6.2c1.7-1.7,3.8-2.6,6.3-2.6c0.5,0,1.1,0.1,1.8,0.2
				c0.4-0.6,1.8-0.9,4.1-0.9C-0.3,480,1.1,480.6,1.1,481.7z M-4.4,488.6c0-1.4-0.4-2.5-1.3-3.4c-0.8-0.9-2-1.3-3.3-1.3
				c-1.5,0-2.8,0.5-3.7,1.5c-1,1-1.4,2.4-1.4,4c0,2.7,1.6,4,4.8,4c1.6,0,2.8-0.4,3.7-1.3C-4.9,491.3-4.4,490.2-4.4,488.6z"/>
			<path id="XMLID_35_" d="M19.6,495.5c0,3.5-0.5,7.1-1.5,10.9c-0.5,1.9-1.3,2.9-2.3,2.9s-1.5-0.6-1.5-1.8c0-0.3,0-0.5,0-0.6
				c-1.3,0.7-2.6,1-4,1c-2.5,0-4.4-0.7-5.7-2.1c-1.4-1.4-2.1-3.3-2.1-5.8s0.7-4.5,2.2-6s3.5-2.2,5.9-2.2c2.1,0,4,0.7,5.4,2.2
				c-0.2-5-2.1-7.5-5.6-7.5c-0.8,0-1.6,0.2-2.5,0.7s-1.5,0.7-1.7,0.7c-0.4,0-0.8-0.2-1.2-0.5c-0.4-0.3-0.5-0.8-0.5-1.2
				c0-0.8,0.6-1.5,1.7-2.1c1.2-0.7,2.6-1,4.2-1C16.6,482.9,19.6,487.1,19.6,495.5z M15.7,499.9c0-3.2-1.5-4.8-4.6-4.8
				c-3.3,0-5,1.6-5,4.8c0,3.2,1.7,4.8,5,4.8c1.4,0,2.6-0.4,3.4-1.3C15.3,502.6,15.7,501.4,15.7,499.9z"/>
			<path id="XMLID_38_" d="M43.2,494.1c0,3-0.5,6-1.5,9c-0.6,1.9-1.4,2.8-2.3,2.8c-0.5,0-0.9-0.1-1.2-0.4s-0.5-0.7-0.5-1.1
				c0-0.1,0.3-1.3,0.9-3.5c0.6-2.2,0.9-4.4,0.9-6.6c0-4.9-1.5-7.4-4.6-7.4c-1.8,0-3.2,0.7-4.3,2c-1.2,1.3-1.7,3.1-1.7,5.3
				c0,1.2,0.2,2.9,0.5,5.2c0.3,2.2,0.5,3.8,0.5,4.7c0,2.2-0.6,3.3-1.9,3.3c-0.6,0-1.1-0.1-1.3-0.4c-0.2-0.2-0.3-0.7-0.5-1.3
				c0-0.8-0.2-3.1-0.5-6.8c-0.5-5.3-0.8-9-0.8-11.2c0-3.8,0.7-5.8,2.2-5.8c0.5,0,0.9,0.1,1.2,0.4c0.3,0.3,0.5,0.6,0.5,1
				c0,0.3-0.1,0.8-0.2,1.6c-0.1,0.8-0.2,1.4-0.2,2v0.4c1.9-2.6,4.2-3.8,6.9-3.8c2.5,0,4.4,0.9,5.8,2.8
				C42.5,488,43.2,490.6,43.2,494.1z"/>
			<path id="XMLID_40_" d="M68.1,478.2c0-0.1-0.1,0.9-0.2,2.9c-0.2,2.3-0.3,4.7-0.4,7.3c-0.1,3.7-0.2,7.7-0.2,11.9
				c0,0.9,0,1.7,0,2.7c0,0.9,0,1.4,0,1.4c0,1.9-0.6,2.8-1.8,2.8c-1.3,0-2-1.1-2-3.2c0-0.5,0-0.9,0-1.2c-2.4,2.4-5.2,3.5-8.3,3.5
				c-2.6,0-4.7-0.9-6.3-2.6c-1.5-1.7-2.3-4.1-2.3-7c0-4.1,1.1-7.3,3.4-9.8s5.2-3.8,8.8-3.8c1.7,0,3.4,0.4,5.2,1.2
				c0.1-3.5,0.2-5.6,0.4-6.3c0.3-1.3,1-1.9,2.1-1.9C67.6,476.1,68.1,476.8,68.1,478.2z M63.9,488.1c-1.7-1-3.3-1.6-5-1.6
				c-2.6,0-4.6,0.9-6.1,2.7c-1.5,1.8-2.2,4.2-2.2,7.3c0,2.1,0.5,3.7,1.5,4.9s2.4,1.7,4.2,1.7c2.2,0,3.9-0.7,5.1-2.2
				c0.3-0.5,0.7-1,1-1.5c0.4-0.5,0.8-0.8,1.4-1C63.6,494.8,63.7,491.4,63.9,488.1z"/>
			<path id="XMLID_43_" d="M93.5,493.2c0,3.7-1.1,6.7-3.3,8.9c-2.2,2.2-5.1,3.3-8.7,3.3c-3,0-5.4-1-7.1-3.1
				c-1.7-2.1-2.6-4.9-2.6-8.6c0-3.9,1-6.9,3.1-9c2-2.1,4.8-3.1,8.5-3.1c3,0,5.5,1.1,7.3,3.2C92.6,486.9,93.5,489.7,93.5,493.2z
				 M89.7,493.2c0-2.6-0.6-4.5-1.9-6c-1.2-1.4-2.9-2.2-5.1-2.2c-4.8,0-7.2,2.9-7.2,8.6c0,2.7,0.5,4.7,1.6,6.1c1,1.4,2.5,2.1,4.5,2.1
				c2.5,0,4.5-0.8,5.9-2.3S89.7,495.9,89.7,493.2z"/>
			<path id="XMLID_46_" d="M103.4,502.1c0,0.9-0.3,1.7-0.8,2.3c-0.6,0.6-1.3,0.9-2.2,0.9c-0.8,0-1.5-0.3-2-0.8
				c-0.5-0.6-0.8-1.3-0.8-2.1s0.3-1.5,0.9-2c0.6-0.6,1.3-0.8,2.1-0.8C102.4,499.4,103.4,500.3,103.4,502.1z"/>
			<path id="XMLID_48_" d="M115.1,502.1c0,0.9-0.3,1.7-0.8,2.3c-0.6,0.6-1.3,0.9-2.2,0.9c-0.8,0-1.5-0.3-2-0.8
				c-0.5-0.6-0.8-1.3-0.8-2.1s0.3-1.5,0.9-2c0.6-0.6,1.3-0.8,2.1-0.8C114.1,499.4,115.1,500.3,115.1,502.1z"/>
			<path id="XMLID_50_" d="M126.8,502.1c0,0.9-0.3,1.7-0.8,2.3c-0.6,0.6-1.3,0.9-2.2,0.9c-0.8,0-1.5-0.3-2-0.8
				c-0.5-0.6-0.8-1.3-0.8-2.1s0.3-1.5,0.9-2c0.6-0.6,1.3-0.8,2.1-0.8C125.8,499.4,126.8,500.3,126.8,502.1z"/>
		</g>
	</g>
	<g id="Camera">
		<path class="st0" d="M-82.7,322.6H54.8l44,22.1c5.1,4.9,9.2,11.7,8.6,28.4l0.1,68c-0.1,3.4-0.5,5.8-2.7,5.4H-82.7V322.6z"/>
		<path class="st1" d="M107.4,366.4c-0.6-11.9-4.2-17.5-8.6-21.7l-44-22.1H-82.7v38.9v4.9L107.4,366.4z"/>
		<circle class="st2" cx="-61.7" cy="346.2" r="3.4"/>
		<polygon class="st3" points="63.9,308.7 54.8,322.6 98.8,344.7 107.4,330.6 		"/>
		<path class="st4" d="M95.1,348.5l-0.3,17.9c0.1,2.3-0.4,3.7-2,3.7H70.5c-2.5,0.2-3.8-1.1-3.9-3.7v-17.9
			C66,346.1,94.8,344.7,95.1,348.5z"/>
		<g>
			<path class="st5" d="M77.8,357.9c0,0.1-0.1,0.2-0.2,0.2c-0.1,0-0.2,0.1-0.2,0.1h-4.8c-0.2,0-0.3-0.1-0.3-0.3
				c0-0.1,0.1-0.2,0.3-0.3c0.2-0.1,0.3-0.2,0.3-0.5v-5.7c0-0.2-0.1-0.4-0.3-0.4c-0.2-0.1-0.3-0.2-0.3-0.3c0-0.2,0.1-0.3,0.3-0.3h4.6
				c0.2,0,0.3,0.1,0.4,0.2c0.1,0.1,0.2,0.3,0.3,0.4c0.1,0.1,0.1,0.2,0.1,0.3c0,0.1,0,0.2,0,0.3c0,0,0,0.1-0.1,0.1c0,0,0,0.1,0,0.1
				c0,0,0,0.1-0.1,0.1c0,0-0.1,0-0.1,0c-0.1,0-0.1-0.1-0.2-0.2c-0.1-0.1-0.2-0.1-0.3-0.2s-0.2-0.1-0.2-0.1c-0.1,0-0.1-0.1-0.1-0.1
				c-0.1-0.1-0.3-0.1-0.5-0.1c-0.2,0-0.5,0-0.9,0c-0.3,0-0.5,0-0.6,0.1c-0.1,0.1-0.2,0.2-0.2,0.3c0,0.4,0,0.7,0,0.8s0,0.3,0,0.4
				s0,0.1,0,0.1c0,0,0,0,0,0c0,0.1,0,0.1,0,0.2c0,0,0.1,0.1,0.1,0.1c0,0,0.1,0,0.2,0c0.1,0,0.1,0,0.1,0c0,0,0.1,0,0.2,0
				c0.1,0,0.1,0,0.2,0c0.1,0,0.1,0,0.2,0c0.1,0,0.1,0,0.2,0c0.2,0,0.4,0,0.5,0.1c0.1,0.1,0.2,0.2,0.2,0.4c0,0.2-0.1,0.3-0.2,0.4
				c-0.1,0.1-0.3,0.1-0.5,0.1c-0.1,0-0.2,0-0.4,0c-0.1,0-0.3,0-0.4,0c-0.1,0-0.2,0-0.3,0.1c-0.1,0-0.2,0.1-0.2,0.3v2.5
				c0,0.2,0,0.3,0.1,0.3c0.1,0,0.2,0.1,0.3,0.1c0.1,0,0.2,0,0.4,0c0.2,0,0.3,0,0.5,0c0.2,0,0.3,0,0.5,0c0.1,0,0.2,0,0.3,0
				c0.1,0,0.2,0,0.3-0.1c0.1-0.1,0.2-0.2,0.4-0.3c0.1-0.1,0.3-0.2,0.4-0.3c0.1-0.1,0.2-0.2,0.2-0.2c0.1,0,0.2,0,0.2,0.1
				c0.1,0,0.1,0.1,0.1,0.2c0,0.1,0,0.1-0.1,0.3c0,0.1-0.1,0.2-0.2,0.4s-0.1,0.2-0.2,0.3C77.9,357.8,77.8,357.9,77.8,357.9z"/>
			<path class="st5" d="M81.3,356.9c0,0.1,0,0.2,0.1,0.3c0,0.1,0.1,0.1,0.3,0.1c0.3,0,0.6,0,0.8,0c0.2,0,0.4,0,0.5,0s0.2,0,0.3,0
				c0.1,0,0.1,0,0.2,0c0.1,0,0.3-0.1,0.5-0.2c0.2-0.1,0.4-0.3,0.6-0.5c0.1-0.1,0.2-0.2,0.3-0.2c0.1,0,0.2,0.1,0.2,0.3
				c0,0.1-0.1,0.3-0.2,0.7c-0.1,0.1-0.1,0.2-0.2,0.3c0,0.1-0.1,0.2-0.1,0.2s-0.1,0.1-0.2,0.1c-0.1,0-0.2,0.1-0.3,0.1H79
				c-0.2,0-0.3-0.1-0.3-0.3c0-0.1,0.1-0.2,0.3-0.3c0.2-0.1,0.4-0.2,0.4-0.5v-5.7c0-0.2-0.1-0.4-0.3-0.4c-0.2-0.1-0.3-0.2-0.3-0.3
				c0-0.2,0.1-0.3,0.3-0.3h2.6c0.2,0,0.3,0.1,0.3,0.3c0,0.1-0.1,0.2-0.3,0.3c-0.2,0.1-0.3,0.2-0.3,0.4L81.3,356.9z"/>
			<path class="st5" d="M87.9,358.3c-0.1,0-0.2,0-0.3-0.1c-0.2,0-0.3-0.1-0.5-0.1c-0.2,0-0.3-0.1-0.4-0.1c-0.1,0-0.2,0-0.3,0
				c-0.1,0-0.2,0.1-0.3,0.2c-0.1,0.1-0.1,0.1-0.2,0.1c-0.1,0-0.2-0.1-0.3-0.2c-0.1-0.2-0.2-0.3-0.2-0.6c-0.1-0.2-0.1-0.4-0.1-0.6
				c0-0.2,0-0.3,0-0.4c0-0.1,0-0.1,0-0.1c0,0,0.1-0.1,0.1-0.1c0,0,0.1,0,0.1,0c0,0,0.1,0,0.1,0c0.2,0.3,0.6,0.6,0.9,0.8
				c0.4,0.2,0.7,0.3,1,0.3c0.3,0,0.6,0,0.8-0.2c0.2-0.1,0.4-0.4,0.4-0.7c0-0.2,0-0.4-0.1-0.6c-0.1-0.2-0.2-0.3-0.3-0.5
				s-0.3-0.3-0.5-0.4c-0.2-0.1-0.4-0.2-0.6-0.4c-0.4-0.2-0.7-0.5-1-0.6c-0.3-0.2-0.5-0.4-0.6-0.6c-0.2-0.2-0.3-0.4-0.3-0.6
				c-0.1-0.2-0.1-0.4-0.1-0.7c0-0.3,0.1-0.5,0.2-0.8c0.1-0.2,0.3-0.4,0.5-0.6c0.2-0.2,0.4-0.3,0.7-0.4c0.3-0.1,0.6-0.1,0.9-0.1
				c0.1,0,0.2,0,0.3,0c0.1,0,0.3,0,0.4,0.1c0.1,0,0.3,0,0.4,0.1c0.1,0,0.2,0,0.3,0.1c0,0,0.1,0,0.1,0c0,0,0.1-0.1,0.1-0.1
				c0,0,0.1-0.1,0.1-0.1c0,0,0.1-0.1,0.1-0.1c0.1,0,0.2,0.1,0.3,0.2c0.1,0.2,0.2,0.3,0.2,0.6c0.1,0.2,0.1,0.4,0.2,0.6
				c0,0.2,0.1,0.3,0.1,0.4c0,0.2-0.1,0.3-0.3,0.3c-0.2-0.1-0.3-0.3-0.5-0.4c-0.2-0.1-0.3-0.2-0.5-0.3c-0.1-0.1-0.3-0.2-0.5-0.2
				c-0.2-0.1-0.4-0.1-0.6-0.1c-0.2,0-0.4,0.1-0.5,0.2c-0.1,0.1-0.2,0.3-0.2,0.6c0,0.1,0.1,0.2,0.2,0.4s0.2,0.2,0.4,0.4
				c0.2,0.1,0.4,0.2,0.6,0.4c0.2,0.1,0.4,0.2,0.6,0.4c0.2,0.2,0.5,0.3,0.7,0.5c0.2,0.2,0.4,0.4,0.6,0.6c0.2,0.2,0.3,0.5,0.4,0.7
				c0.1,0.3,0.2,0.5,0.2,0.8c0,0.7-0.2,1.2-0.7,1.6C89.3,358.1,88.7,358.3,87.9,358.3z"/>
		</g>
		<g>
			<path class="st5" d="M76.1,365.6c0,0.2,0.1,0.4,0.3,0.4c0.1,0,0.2,0.1,0.3,0.1c0.1,0.1,0.1,0.1,0.1,0.2c0,0.2-0.1,0.3-0.3,0.3
				h-2.7c-0.1,0-0.2,0-0.2-0.1c0,0,0-0.1,0-0.2c0-0.1,0-0.1,0.1-0.2c0.1-0.1,0.2-0.1,0.3-0.1c0.2-0.1,0.3-0.2,0.3-0.4v-5.2
				c-0.1,0.1-0.3,0.1-0.4,0.1c-0.1,0-0.2,0-0.4,0.1c-0.1,0-0.2,0-0.2-0.1c-0.1-0.1-0.1-0.1-0.1-0.2c0-0.1,0-0.2,0-0.3
				c0-0.1,0.1-0.2,0.3-0.2c0.2-0.1,0.5-0.1,0.6-0.2s0.4-0.1,0.5-0.2c0.2-0.1,0.3-0.1,0.4-0.2c0.1,0,0.3-0.1,0.4-0.1c0,0,0.1,0,0.1,0
				c0.1,0,0.1,0,0.2,0c0.1,0,0.1,0.1,0.1,0.1c0,0.1,0.1,0.1,0.1,0.3V365.6z"/>
			<path class="st5" d="M77.3,364.9c0-0.5,0.1-0.9,0.4-1.2c0.3-0.3,0.7-0.5,1.2-0.7c-0.2-0.1-0.3-0.2-0.5-0.3
				c-0.2-0.1-0.3-0.3-0.4-0.4c-0.1-0.2-0.2-0.3-0.3-0.5c-0.1-0.2-0.1-0.3-0.1-0.5c0-0.3,0.1-0.6,0.2-0.8c0.1-0.3,0.3-0.5,0.6-0.7
				c0.2-0.2,0.5-0.3,0.9-0.4c0.3-0.1,0.7-0.2,1.2-0.2c0.3,0,0.6,0,0.9,0.1c0.3,0.1,0.6,0.2,0.8,0.3c0.3,0.1,0.5,0.3,0.6,0.5
				c0.2,0.2,0.2,0.4,0.2,0.7c0,0.2,0,0.4-0.1,0.6c-0.1,0.2-0.2,0.3-0.3,0.4c-0.1,0.1-0.3,0.2-0.4,0.3c-0.2,0.1-0.3,0.2-0.5,0.3
				c0.2,0.1,0.5,0.2,0.7,0.3c0.2,0.1,0.4,0.3,0.5,0.5c0.2,0.2,0.3,0.4,0.4,0.6c0.1,0.2,0.1,0.4,0.1,0.6c0,0.4-0.1,0.7-0.3,1
				c-0.2,0.3-0.4,0.5-0.7,0.7c-0.3,0.2-0.7,0.3-1.1,0.4c-0.4,0.1-0.8,0.1-1.3,0.1c-0.3,0-0.7,0-1-0.1c-0.3-0.1-0.6-0.2-0.9-0.3
				c-0.3-0.2-0.5-0.3-0.6-0.6C77.4,365.6,77.3,365.3,77.3,364.9z M79.6,363.4c-0.1,0.1-0.2,0.1-0.3,0.2c-0.1,0.1-0.2,0.2-0.2,0.3
				c-0.1,0.1-0.1,0.3-0.2,0.4c0,0.2-0.1,0.3-0.1,0.4c0,0.2,0,0.4,0.1,0.5c0.1,0.2,0.2,0.3,0.3,0.4c0.1,0.1,0.3,0.2,0.4,0.3
				c0.2,0.1,0.3,0.1,0.5,0.1c0.2,0,0.3,0,0.5-0.1c0.2-0.1,0.3-0.2,0.4-0.3c0.1-0.1,0.2-0.2,0.3-0.4c0.1-0.1,0.1-0.3,0.1-0.5
				c0-0.3-0.1-0.5-0.2-0.6c-0.1-0.2-0.3-0.3-0.5-0.4c-0.2-0.1-0.4-0.2-0.6-0.3C80,363.6,79.8,363.5,79.6,363.4z M79.2,360.9
				c0,0.2,0.1,0.3,0.2,0.4c0.1,0.1,0.2,0.3,0.4,0.4c0.2,0.1,0.3,0.2,0.5,0.3c0.2,0.1,0.4,0.2,0.5,0.2c0.2-0.1,0.3-0.3,0.5-0.5
				c0.1-0.2,0.2-0.4,0.2-0.7c0-0.2,0-0.4-0.1-0.5c-0.1-0.2-0.2-0.3-0.3-0.4c-0.1-0.1-0.3-0.2-0.4-0.2c-0.2-0.1-0.3-0.1-0.5-0.1
				c-0.1,0-0.2,0-0.3,0.1c-0.1,0.1-0.2,0.1-0.3,0.2c-0.1,0.1-0.2,0.2-0.2,0.3C79.3,360.6,79.2,360.8,79.2,360.9z"/>
			<path class="st5" d="M87,366.7c-0.2,0-0.3-0.1-0.3-0.2c0-0.1,0.1-0.2,0.2-0.2c0.1-0.1,0.3-0.1,0.3-0.2c0.1-0.1,0.1-0.2,0.1-0.2
				l-0.3-0.9c-0.2,0-0.3-0.1-0.5,0c-0.3,0.1-0.5,0.1-0.7,0c-0.2-0.1-0.3-0.2-0.3-0.3c0-0.1,0-0.2,0.1-0.3c0.1,0,0.2-0.1,0.4-0.1
				c0.1,0,0.2,0,0.3,0c0.1,0,0.2,0,0.3-0.1c0-0.1,0-0.2-0.1-0.4c-0.1-0.2-0.1-0.4-0.2-0.6c-0.1-0.2-0.1-0.4-0.2-0.6
				c-0.1-0.2-0.1-0.3-0.1-0.4c-0.1,0.2-0.2,0.4-0.3,0.7c-0.1,0.3-0.2,0.7-0.4,1.1c-0.2,0.5-0.3,0.9-0.4,1.2
				c-0.1,0.3-0.1,0.5-0.1,0.6c0,0.2,0.1,0.3,0.2,0.3c0.2,0.1,0.2,0.1,0.2,0.2c0,0.2-0.1,0.2-0.3,0.2h-1.5c-0.1,0-0.1,0-0.2-0.1
				c0,0,0-0.1,0-0.2c0.2-0.1,0.3-0.3,0.5-0.4c0.1-0.1,0.2-0.2,0.3-0.4c0.3-0.8,0.6-1.6,0.8-2.5c0.3-0.8,0.5-1.6,0.8-2.5
				c0-0.1,0.1-0.2,0.2-0.2c0.1-0.1,0.2-0.1,0.3-0.1c0.1,0,0.3,0,0.4,0.1c0.1,0,0.2,0.1,0.3,0.2c0.3,0.8,0.6,1.6,0.9,2.5
				c0.3,0.8,0.6,1.6,0.9,2.5c0,0.1,0.1,0.2,0.2,0.2c0.1,0.1,0.2,0.2,0.4,0.3c0.1,0.1,0.2,0.1,0.2,0.2c0.1,0,0.1,0.1,0.1,0.1
				c0,0.2-0.1,0.2-0.2,0.2H87z"/>
		</g>
		<path class="st3" d="M42.6,304.4c2,5.6,3.9,12.2,6,18.2c4.2,15,7.1,30.9,9,47.5c9.7,2.2,15.4,9.6,14.3,26
			c-3.4,16.6-11.1,22.7-22,20.6l-3.8-0.4l-101.3-20.9c-3.9-26.1,7.6-64.1,18.5-91.1C-23.7,291.8,25.7,291.4,42.6,304.4z"/>
		<path class="st6" d="M47.8,320.3c-1.8-5.3-3.4-11-5.2-15.8c-16.9-13-66.2-12.7-79.2-0.1c-2,4.9-4,10.2-5.9,15.7
			C-12.5,323.4,17.7,323.5,47.8,320.3z"/>
		<ellipse class="st1" cx="-37.8" cy="427.4" rx="8.7" ry="8.3"/>
		<rect x="-81.8" y="322.6" class="st7" width="8.6" height="123.7"/>
		<path class="st0" d="M-125.9,446.5l0-101.3c0-26.6,28.2-38.3,45.6-22.6v123.8H-125.9z"/>
		<ellipse class="st2" cx="-99.4" cy="335.9" rx="10.8" ry="10.5"/>
		<path class="st8" d="M-117,351.5c5,5.5,11.1,10,23.3,9.2C-105.9,363.9-113.1,359.9-117,351.5z"/>
		<rect x="-125.9" y="435.6" class="st9" width="45.6" height="10.8"/>
		<g>
			<path class="st10" d="M-13.1,317.2c-1,0-2.1-0.1-3.3-0.3c-1.7-0.3-2.5-0.7-2.5-1.3c0-0.1,0.2-0.3,0.5-0.5
				c0.3-0.2,0.5-0.6,0.5-0.9v-9.5c0-0.3-0.2-0.5-0.6-0.6c-0.4-0.1-0.6-0.3-0.6-0.7c0-0.5,0.9-0.9,2.7-1.3c1.4-0.3,2.6-0.4,3.5-0.4
				c2.6,0,4.6,0.7,6,2s2.1,3.3,2.1,5.8c0,2.4-0.8,4.3-2.4,5.7C-8.7,316.6-10.7,317.2-13.1,317.2z M-12.5,303.4
				c-0.5,0-0.9,0.1-1.3,0.3c-0.4,0.2-0.6,0.6-0.6,1v9.7c0,0.4,0.2,0.7,0.6,0.9c0.3,0.2,0.7,0.3,1.2,0.3c1.4,0,2.6-0.6,3.4-1.8
				c0.7-1,1-2.3,1-3.9c0-1.8-0.3-3.2-0.9-4.3C-9.8,304.1-11,303.4-12.5,303.4z"/>
			<path class="st10" d="M-3.6,317.1c-0.3,0-0.4-0.2-0.4-0.5c0-0.2,0.2-0.4,0.5-0.5c0.4-0.1,0.5-0.4,0.5-0.7v-8.8
				c0-0.3-0.2-0.5-0.5-0.7c-0.4-0.1-0.5-0.3-0.5-0.5c0-0.3,0.1-0.5,0.4-0.5h4.1c0.3,0,0.4,0.2,0.4,0.5c0,0.2-0.2,0.4-0.6,0.5
				c-0.4,0.1-0.5,0.4-0.5,0.7v8.8c0,0.3,0.2,0.5,0.5,0.7c0.4,0.1,0.6,0.3,0.6,0.5c0,0.3-0.1,0.5-0.4,0.5H-3.6z"/>
			<path class="st10" d="M11.4,314.7L11.4,314.7c0,0,0.1,0.1,0.1,0.1c0.1,0,0.1,0.1,0.2,0.1h0.1c0,0.1,0.1,0.1,0.1,0.2
				c0,0.1,0.1,0.1,0.1,0.2c0,0.3-0.2,0.5-0.5,0.8c-0.4,0.2-0.9,0.5-1.5,0.7c-0.5,0.1-1,0.2-1.4,0.3c-0.5,0.1-0.9,0.1-1.3,0.1
				c-0.9,0-1.6-0.2-2.3-0.5c-0.7-0.3-1.3-0.7-1.7-1.3c-0.5-0.5-0.8-1.2-1.1-1.9c-0.3-0.7-0.4-1.6-0.4-2.4c0-0.8,0.1-1.6,0.4-2.3
				s0.6-1.3,1.1-1.9c0.5-0.5,1-1,1.7-1.3c0.7-0.3,1.4-0.5,2.2-0.6c0.3,0,0.5,0,0.8,0c0.3,0,0.5,0.1,0.7,0.1c0.2,0,0.4,0.1,0.6,0.1
				c0.2,0,0.3,0,0.4,0c0.1,0,0.2-0.1,0.3-0.2c0.1-0.1,0.2-0.1,0.4-0.1c0.1,0,0.3,0.1,0.4,0.3c0.1,0.2,0.3,0.5,0.4,0.9
				c0.2,0.4,0.3,0.7,0.3,0.9c0.1,0.2,0.1,0.4,0.1,0.5c0,0.1-0.1,0.2-0.1,0.3c-0.1,0.1-0.1,0.2-0.2,0.2c-0.1,0-0.2,0.1-0.3,0.1
				c-0.1,0-0.2,0-0.2-0.1c-0.1-0.1-0.2-0.2-0.2-0.2s-0.1-0.1-0.2-0.1c0,0-0.1-0.1-0.2-0.1c0,0-0.1-0.1-0.2-0.2
				c-0.3-0.3-0.6-0.5-1.1-0.7c-0.4-0.1-0.9-0.2-1.3-0.2c-0.5,0-1,0.2-1.4,0.5c-0.4,0.3-0.7,0.7-0.9,1.2s-0.4,1-0.5,1.6
				c-0.1,0.6-0.2,1.1-0.2,1.6c0,0.6,0.1,1.2,0.2,1.8c0.1,0.6,0.3,1,0.6,1.5c0.3,0.4,0.6,0.8,1,1c0.4,0.2,1,0.4,1.6,0.4
				c0.2,0,0.3,0,0.4,0c0.1,0,0.3,0,0.3-0.1c0.1-0.1,0.2-0.1,0.3-0.2c0.1-0.1,0.1-0.2,0.1-0.3v-2c0-0.3-0.2-0.6-0.5-0.7
				c-0.5-0.1-0.7-0.3-0.7-0.6c0-0.2,0.1-0.3,0.2-0.3c0.1-0.1,0.3-0.1,0.5-0.1h3.1c0.2,0,0.4,0,0.5,0.1c0.2,0.1,0.2,0.2,0.2,0.3
				c0,0.2-0.2,0.4-0.6,0.5c-0.1,0.1-0.2,0.2-0.3,0.3c-0.1,0.1-0.1,0.3-0.1,0.4V314.7z"/>
			<path class="st10" d="M23,313.6c0,0.6-0.1,1.1-0.4,1.5c-0.3,0.4-0.6,0.8-1.1,1.2c-0.4,0.3-0.9,0.5-1.4,0.6
				c-0.5,0.1-1.1,0.2-1.7,0.2c-1.1,0-2.1-0.3-3-0.9c-1-0.7-1.5-1.5-1.5-2.6v-6.9c0-0.3-0.2-0.5-0.5-0.7c-0.4-0.1-0.5-0.3-0.5-0.5
				c0-0.3,0.1-0.5,0.4-0.5h4c0.3,0,0.4,0.2,0.4,0.5c0,0.2-0.2,0.4-0.5,0.5c-0.4,0.1-0.5,0.4-0.5,0.7v6.9c0,0.7,0.2,1.2,0.6,1.6
				c0.4,0.4,1,0.6,1.6,0.6c0.8,0,1.4-0.2,1.8-0.6c0.5-0.4,0.7-1,0.7-1.7v-6.7c0-0.3-0.2-0.5-0.5-0.7c-0.3-0.1-0.5-0.3-0.5-0.5
				c0-0.3,0.1-0.5,0.4-0.5h2.8c0.3,0,0.5,0.2,0.5,0.5c0,0.2-0.2,0.4-0.6,0.5c-0.3,0.1-0.5,0.4-0.5,0.8V313.6z"/>
		</g>
		<ellipse class="st8" cx="-99.2" cy="372.3" rx="2.8" ry="3.6"/>
		<path class="st8" d="M51.3,370.1c7.2,1.4,16.3,3,18.7,16.8c1.6,8.3-1.9,16.2-6.8,22.9c-4,5.1-9.5,6.5-16.2,4.9L51.3,370.1z"/>
		<g id="Lente">
			<ellipse class="st8" cx="1.1" cy="385.7" rx="56.5" ry="59.6"/>
			<ellipse class="st1" cx="1.1" cy="385.7" rx="54.7" ry="57.7"/>
			<linearGradient id="SVGID_1_" gradientUnits="userSpaceOnUse" x1="-33.1236" y1="352.6845" x2="35.3236" y2="421.1316">
				<stop  offset="0" style="stop-color:#2B2B2B"/>
				<stop  offset="0.7704" style="stop-color:#000000"/>
			</linearGradient>
			<ellipse class="st11" cx="1.1" cy="386.9" rx="47.1" ry="49.7"/>
			<linearGradient id="SVGID_2_" gradientUnits="userSpaceOnUse" x1="27.4433" y1="418.3028" x2="-25.2433" y2="355.5134">
				<stop  offset="0" style="stop-color:#383838"/>
				<stop  offset="0.7704" style="stop-color:#000000"/>
			</linearGradient>
			<ellipse class="st12" cx="1.1" cy="386.9" rx="39.7" ry="41.9"/>
			<ellipse class="st13" cx="1.1" cy="386.9" rx="25.2" ry="26.6"/>
			<ellipse class="st8" cx="1.1" cy="386.9" rx="20.6" ry="21.7"/>
			<ellipse class="st14" cx="1.1" cy="386.9" rx="14.2" ry="15"/>
			<ellipse class="st8" cx="1.1" cy="386.9" rx="11.2" ry="11.8"/>
			<path class="st15" d="M4.8,360.6c-1.2-0.2-2.4-0.3-3.7-0.3c-11.6,0-21.4,8.3-24.3,19.5l25.6,7.1L4.8,360.6z"/>
			<ellipse class="st10" cx="-5.6" cy="370" rx="4.5" ry="4.8"/>
			<ellipse class="st10" cx="-1.2" cy="379.4" rx="1.5" ry="1.7"/>
		</g>
	</g>
</g>
<g id="Camada_2">
</g>
</svg>
