<?xml version="1.0" encoding="utf-8"?>
<!-- Generator: Adobe Illustrator 19.0.0, SVG Export Plug-In . SVG Version: 6.00 Build 0)  -->
<svg version="1.1" id="Camada_1" xmlns="http://www.w3.org/2000/svg" xmlns:xlink="http://www.w3.org/1999/xlink" x="0px" y="0px"
	 viewBox="125 -125 300 300" style="enable-background:new 125 -125 300 300;" xml:space="preserve">
<style type="text/css">
	.st0{opacity:0.89;fill:#FFFFFF;stroke:#000000;stroke-width:4;stroke-miterlimit:10;}
	.st1{fill:#020202;stroke:#000000;stroke-width:4;stroke-miterlimit:10;}
	.st2{fill:#FFFFFF;stroke:#000000;stroke-width:4;stroke-miterlimit:10;}
	.st3{fill:#020202;stroke:#F7F7F7;stroke-miterlimit:10;}
	.st4{fill:#FFFFFF;stroke:#F7F7F7;stroke-miterlimit:10;}
	.st5{fill:#AD0B0B;}
	.st6{fill:#F9F9F4;stroke:#F7F7F7;stroke-miterlimit:10;}
	.st7{fill:#020202;stroke:#F7F7F7;stroke-width:2;stroke-miterlimit:10;}
	.st8{fill:#FFFFFF;}


	#Carregando{
		-webkit-animation: nadar 2s linear 0s infinite alternate;
	}
	
	@-webkit-keyframes nadar {
		from {-webkit-transform: translateY(0%);}
		to {-webkit-transform: translateY(2%);}	
	}
</style>
<g id="Carregando_1_">
	<g id="Carregando">
		<g id="XMLID_2_">
			<path id="XMLID_4_" d="M172.9,136.2c0,1.2-0.9,2.5-2.6,3.9c-2.9,2.3-6.6,3.5-11.2,3.5c-4.9,0-8.6-1.5-11.3-4.4
				c-2.7-2.9-4-7.1-4-12.4c0-5.1,1.4-9.3,4.1-12.6c2.9-3.5,6.8-5.2,11.7-5.2c4.1,0,7.5,1.1,10.2,3.2c1,0.8,1.5,1.5,1.5,2.2
				c0,0.5-0.2,1-0.6,1.4c-0.4,0.4-0.8,0.6-1.4,0.6c-0.3,0-0.8-0.2-1.4-0.7c-2.7-2-5.5-3-8.4-3c-3.5,0-6.4,1.3-8.5,3.8
				c-2.1,2.5-3.2,5.9-3.2,10.2c0,8.7,3.8,13,11.3,13c4.3,0,7.4-1,9.2-3.1c0.4-0.5,0.8-1.1,1.3-1.7c0.4-0.5,0.9-0.7,1.4-0.7
				s1,0.2,1.4,0.5C172.8,135.2,172.9,135.6,172.9,136.2z"/>
			<path id="XMLID_6_" d="M193.5,127.6c0,3.5-0.5,7.1-1.5,10.9c-0.5,1.9-1.3,2.9-2.3,2.9s-1.5-0.6-1.5-1.8c0-0.3,0-0.5,0-0.6
				c-1.3,0.7-2.6,1-4,1c-2.5,0-4.4-0.7-5.7-2.1c-1.4-1.4-2.1-3.3-2.1-5.8s0.7-4.5,2.2-6s3.5-2.2,5.9-2.2c2.1,0,4,0.7,5.4,2.2
				c-0.2-5-2.1-7.5-5.6-7.5c-0.8,0-1.6,0.2-2.5,0.7c-0.9,0.5-1.5,0.7-1.7,0.7c-0.4,0-0.8-0.2-1.2-0.5c-0.4-0.3-0.5-0.8-0.5-1.2
				c0-0.8,0.6-1.5,1.7-2.1c1.2-0.7,2.6-1,4.2-1C190.4,115,193.5,119.2,193.5,127.6z M189.6,132c0-3.2-1.5-4.8-4.6-4.8
				c-3.3,0-5,1.6-5,4.8c0,3.2,1.7,4.8,5,4.8c1.4,0,2.6-0.4,3.4-1.3C189.2,134.7,189.6,133.5,189.6,132z"/>
			<path id="XMLID_18_" d="M212.9,120.1c0,0.5-0.1,0.9-0.4,1.2c-0.3,0.3-0.6,0.5-1,0.5c-0.3,0-0.8-0.2-1.4-0.7s-1.1-0.7-1.6-0.7
				c-1.2,0-2.2,0.5-2.9,1.6c-0.7,1.1-1.1,2.5-1.1,4.3v2.5c0,2.8-0.3,5-0.9,6.6c-0.5,1.5-1.3,2.3-2.1,2.3c-1.2,0-1.7-0.6-1.7-1.7
				c0-0.2,0.2-1.1,0.5-2.5c0.4-1.5,0.5-2.8,0.5-4.1c0-3.6-0.5-6.4-1.5-8.5c0-0.1-0.4-0.7-1-1.9c-0.3-0.6-0.5-1.1-0.5-1.5
				s0.2-0.8,0.6-1.1c0.4-0.4,0.8-0.5,1.3-0.5c1.3,0,2.5,1.7,3.4,5c1.3-2.5,3.2-3.8,5.8-3.8c1.3,0,2.3,0.3,3.1,0.9
				C212.5,118.5,212.9,119.2,212.9,120.1z"/>
			<path id="XMLID_20_" d="M230.3,120.1c0,0.5-0.1,0.9-0.4,1.2c-0.3,0.3-0.6,0.5-1,0.5c-0.3,0-0.8-0.2-1.4-0.7
				c-0.6-0.4-1.1-0.7-1.6-0.7c-1.2,0-2.2,0.5-2.9,1.6c-0.8,1.1-1.1,2.5-1.1,4.3v2.5c0,2.8-0.3,5-0.9,6.6c-0.5,1.5-1.3,2.3-2.1,2.3
				c-1.2,0-1.7-0.6-1.7-1.7c0-0.2,0.2-1.1,0.5-2.5c0.4-1.5,0.5-2.8,0.5-4.1c0-3.6-0.5-6.4-1.5-8.5c0-0.1-0.4-0.7-1-1.9
				c-0.3-0.6-0.5-1.1-0.5-1.5s0.2-0.8,0.6-1.1c0.4-0.4,0.8-0.5,1.3-0.5c1.3,0,2.5,1.7,3.4,5c1.3-2.5,3.2-3.8,5.8-3.8
				c1.3,0,2.3,0.3,3.1,0.9C230,118.5,230.3,119.2,230.3,120.1z"/>
			<path id="XMLID_22_" d="M251.9,122.8c0,1.3-0.5,2.3-1.4,2.9c-0.4,0.3-1.7,0.6-3.9,1.1c-2.9,0.6-5.3,0.9-7.4,0.9
				c-0.9,0-2-0.1-3.4-0.2c0,4.8,1.8,7.2,5.5,7.2c1,0,1.9-0.3,2.7-0.9c0.4-0.3,1.1-1,2.2-2c0.4-0.4,0.8-0.6,1.2-0.6
				c0.5,0,1,0.2,1.4,0.6c0.4,0.4,0.6,0.9,0.6,1.5c0,0.5-0.2,0.9-0.6,1.3c-2.2,2.4-4.7,3.6-7.7,3.6c-6.1,0-9.1-3.5-9.1-10.5
				c0-3.6,1-6.7,2.9-9.4c2.2-3,4.9-4.5,8.2-4.5c2.5,0,4.6,0.8,6.2,2.5C251.1,118.1,251.9,120.2,251.9,122.8z M248.1,123.1
				c-0.1-1.8-0.5-3.2-1.4-4.2c-0.8-1-1.9-1.5-3.2-1.5c-1.7,0-3.1,0.6-4.4,1.8s-2.3,2.9-2.9,5.1c0.9,0.1,1.9,0.2,2.9,0.2
				C241.6,124.3,244.6,123.9,248.1,123.1z"/>
			<path id="XMLID_32_" d="M273.6,113.8c0,1-0.6,1.5-1.7,1.5c-0.2,0-0.5,0-1-0.1c-0.6-0.1-1.2-0.1-1.6-0.1c1.5,1.7,2.3,3.7,2.3,6
				s-0.8,4.1-2.4,5.6c-1.6,1.5-3.7,2.2-6.2,2.2c-0.6,0-1.5-0.1-2.7-0.2c-1.1,0.8-1.9,1.8-2.6,2.9c2.5-0.3,4.1-0.4,4.9-0.4
				c5.2,0,7.8,1.8,7.8,5.4c0,2.2-1,3.9-2.9,5.1c-2,1.2-4.7,1.9-8.2,1.9c-2.2,0-4-0.4-5.3-1.3c-1.2-0.8-1.8-1.8-1.8-3
				c0-0.4,0.2-0.8,0.6-1.1c0.4-0.3,0.8-0.5,1.3-0.5c0.3,0,0.7,0.1,1,0.4s0.6,0.7,1,1c0.6,0.6,1.8,0.9,3.5,0.9c2.2,0,4-0.3,5.2-0.9
				c1.2-0.6,1.8-1.3,1.8-2.3c0-1.4-1.7-2.2-5-2.2c-0.8,0-1.8,0.1-3.1,0.2c-1.3,0.1-2.2,0.2-2.7,0.2c-1.2,0-1.8-0.4-1.8-1.3
				c0-1.2,1.2-3.3,3.6-6.2c-2-1.4-2.9-3.4-2.9-6c0-2.4,0.9-4.5,2.6-6.2c1.7-1.7,3.8-2.6,6.3-2.6c0.5,0,1.1,0.1,1.8,0.2
				c0.4-0.6,1.8-0.9,4.1-0.9C272.2,112.1,273.6,112.7,273.6,113.8z M268.1,120.7c0-1.4-0.4-2.5-1.3-3.4c-0.8-0.9-2-1.3-3.3-1.3
				c-1.5,0-2.8,0.5-3.7,1.5c-1,1-1.4,2.4-1.4,4c0,2.7,1.6,4,4.8,4c1.6,0,2.8-0.4,3.7-1.3C267.6,123.4,268.1,122.3,268.1,120.7z"/>
			<path id="XMLID_35_" d="M292.1,127.6c0,3.5-0.5,7.1-1.5,10.9c-0.5,1.9-1.3,2.9-2.3,2.9s-1.5-0.6-1.5-1.8c0-0.3,0-0.5,0-0.6
				c-1.3,0.7-2.6,1-4,1c-2.5,0-4.4-0.7-5.7-2.1c-1.4-1.4-2.1-3.3-2.1-5.8s0.7-4.5,2.2-6s3.5-2.2,5.9-2.2c2.1,0,4,0.7,5.4,2.2
				c-0.2-5-2.1-7.5-5.6-7.5c-0.8,0-1.6,0.2-2.5,0.7s-1.5,0.7-1.7,0.7c-0.4,0-0.8-0.2-1.2-0.5s-0.5-0.8-0.5-1.2
				c0-0.8,0.6-1.5,1.7-2.1c1.2-0.7,2.6-1,4.2-1C289.1,115,292.1,119.2,292.1,127.6z M288.2,132c0-3.2-1.5-4.8-4.6-4.8
				c-3.3,0-5,1.6-5,4.8c0,3.2,1.7,4.8,5,4.8c1.4,0,2.6-0.4,3.4-1.3C287.8,134.7,288.2,133.5,288.2,132z"/>
			<path id="XMLID_38_" d="M315.7,126.2c0,3-0.5,6-1.5,9c-0.6,1.9-1.4,2.8-2.3,2.8c-0.5,0-0.9-0.1-1.2-0.4c-0.3-0.3-0.5-0.7-0.5-1.1
				c0-0.1,0.3-1.3,0.9-3.5c0.6-2.2,0.9-4.4,0.9-6.6c0-4.9-1.5-7.4-4.6-7.4c-1.8,0-3.2,0.7-4.3,2c-1.2,1.3-1.7,3.1-1.7,5.3
				c0,1.2,0.2,2.9,0.5,5.2c0.3,2.2,0.5,3.8,0.5,4.7c0,2.2-0.6,3.3-1.9,3.3c-0.6,0-1.1-0.1-1.3-0.4c-0.2-0.2-0.3-0.7-0.5-1.3
				c0-0.8-0.2-3.1-0.5-6.8c-0.5-5.3-0.8-9-0.8-11.2c0-3.8,0.7-5.8,2.2-5.8c0.5,0,0.9,0.1,1.2,0.4c0.3,0.3,0.5,0.6,0.5,1
				c0,0.3-0.1,0.8-0.2,1.6c-0.1,0.8-0.2,1.4-0.2,2v0.4c1.9-2.6,4.2-3.8,6.9-3.8c2.5,0,4.4,0.9,5.8,2.8
				C315,120.1,315.7,122.7,315.7,126.2z"/>
			<path id="XMLID_40_" d="M340.6,110.3c0-0.1-0.1,0.9-0.2,2.9c-0.2,2.3-0.3,4.7-0.4,7.3c-0.1,3.7-0.2,7.7-0.2,11.9
				c0,0.9,0,1.7,0,2.7c0,0.9,0,1.4,0,1.4c0,1.9-0.6,2.8-1.8,2.8c-1.3,0-2-1.1-2-3.2c0-0.5,0-0.9,0-1.2c-2.4,2.4-5.2,3.5-8.3,3.5
				c-2.6,0-4.7-0.9-6.3-2.6c-1.5-1.7-2.3-4.1-2.3-7c0-4.1,1.1-7.3,3.4-9.8c2.3-2.5,5.2-3.8,8.8-3.8c1.7,0,3.4,0.4,5.2,1.2
				c0.1-3.5,0.2-5.6,0.4-6.3c0.3-1.3,1-1.9,2.1-1.9S340.6,108.9,340.6,110.3z M336.4,120.2c-1.7-1-3.3-1.6-5-1.6
				c-2.6,0-4.6,0.9-6.1,2.7c-1.5,1.8-2.2,4.2-2.2,7.3c0,2.1,0.5,3.7,1.5,4.9s2.4,1.7,4.2,1.7c2.2,0,3.9-0.7,5.1-2.2
				c0.3-0.5,0.7-1,1-1.5c0.4-0.5,0.8-0.8,1.4-1C336.1,126.9,336.2,123.5,336.4,120.2z"/>
			<path id="XMLID_43_" d="M366,125.3c0,3.7-1.1,6.7-3.3,8.9c-2.2,2.2-5.1,3.3-8.7,3.3c-3,0-5.4-1-7.1-3.1c-1.7-2.1-2.6-4.9-2.6-8.6
				c0-3.9,1-6.9,3.1-9c2-2.1,4.8-3.1,8.5-3.1c3,0,5.5,1.1,7.3,3.2C365.1,119,366,121.8,366,125.3z M362.2,125.3c0-2.6-0.6-4.5-1.9-6
				c-1.2-1.4-2.9-2.2-5.1-2.2c-4.8,0-7.2,2.9-7.2,8.6c0,2.7,0.5,4.7,1.6,6.1c1,1.4,2.5,2.1,4.5,2.1c2.5,0,4.5-0.8,5.9-2.3
				S362.2,128,362.2,125.3z"/>
			<path id="XMLID_46_" d="M375.9,134.2c0,0.9-0.3,1.7-0.8,2.3c-0.6,0.6-1.3,0.9-2.2,0.9c-0.8,0-1.5-0.3-2-0.8
				c-0.5-0.6-0.8-1.3-0.8-2.1s0.3-1.5,0.9-2c0.6-0.6,1.3-0.8,2.1-0.8C374.9,131.5,375.9,132.4,375.9,134.2z"/>
			<path id="XMLID_48_" d="M387.6,134.2c0,0.9-0.3,1.7-0.8,2.3c-0.6,0.6-1.3,0.9-2.2,0.9c-0.8,0-1.5-0.3-2-0.8
				c-0.5-0.6-0.8-1.3-0.8-2.1s0.3-1.5,0.9-2c0.6-0.6,1.3-0.8,2.1-0.8C386.6,131.5,387.6,132.4,387.6,134.2z"/>
			<path id="XMLID_50_" d="M399.3,134.2c0,0.9-0.3,1.7-0.8,2.3c-0.6,0.6-1.3,0.9-2.2,0.9c-0.8,0-1.5-0.3-2-0.8
				c-0.5-0.6-0.8-1.3-0.8-2.1s0.3-1.5,0.9-2c0.6-0.6,1.3-0.8,2.1-0.8C398.3,131.5,399.3,132.4,399.3,134.2z"/>
		</g>
	</g>
</g>
<g id="logo">
	<ellipse class="st0" cx="260" cy="-12.3" rx="92" ry="92.7"/>
	<polygon class="st1" points="290.6,6.1 261.4,23 232.1,6.1 232.1,-27.6 261.4,-44.5 290.6,-27.6 	"/>
	<line class="st2" x1="200.8" y1="-83.3" x2="261.4" y2="-44.5"/>
	<line class="st2" x1="288.2" y1="-99.3" x2="290.6" y2="-27.6"/>
	<line class="st2" x1="290.6" y1="6.1" x2="350.5" y2="-29"/>
	<line class="st2" x1="261.4" y1="23" x2="320.6" y2="58.7"/>
	<line class="st2" x1="232.1" y1="6.1" x2="232.1" y2="76"/>
	<line class="st2" x1="232.1" y1="-27.6" x2="169.8" y2="6.1"/>
	<rect x="239.8" y="-19" class="st3" width="42.3" height="26.3"/>
	<rect x="265.3" y="-33" class="st3" width="16.8" height="11.5"/>
	<rect x="250.7" y="-19" class="st3" width="18.4" height="26.3"/>
	<rect x="253.8" y="-23" class="st3" width="8.8" height="4"/>
	<rect x="255.6" y="-23" class="st4" width="4.9" height="4"/>
	<path class="st5" d="M268.9-29.3l4.4,7l5-7c1.9-2.6-4.9-4.5-4.9,0C273.5-33.7,267.1-32.6,268.9-29.3z"/>
	<rect x="269.1" y="-21.5" class="st6" width="8.4" height="2.5"/>
	<ellipse class="st7" cx="260.1" cy="-5.9" rx="10.8" ry="10.6"/>
	<polygon class="st8" points="247.8,-13.8 250.3,-11.2 252.6,-14.2 250.4,-16.5 	"/>
	<ellipse class="st8" cx="260.1" cy="-5.9" rx="4.8" ry="4.6"/>
</g>
</svg>
