<?xml version="1.0" encoding="utf-8"?>
<!-- Generator: Adobe Illustrator 19.0.0, SVG Export Plug-In . SVG Version: 6.00 Build 0)  -->
<svg version="1.1" id="Camada_1" xmlns="http://www.w3.org/2000/svg" xmlns:xlink="http://www.w3.org/1999/xlink" x="0px" y="0px"
	 viewBox="486 -240 1021 530" style="enable-background:new 486 -240 1021 530;" xml:space="preserve">
<style type="text/css">
	.st0{fill:#5AA6B7;}
	.st1{fill:#67B4C1;}
	.st2{fill:#BFBFBF;}
	.st3{fill:#66AEC4;}
	.st4{fill:#949595;}
	.st5{fill:url(#XMLID_2_);}
	.st6{opacity:0.56;fill:#D8D8D7;enable-background:new    ;}
	.st7{fill:#818282;}
	.st8{opacity:0.57;fill:#85CFE0;enable-background:new    ;}
	.st9{opacity:0.57;fill:#A5DCEB;enable-background:new    ;}
	.st10{opacity:0.7;fill:#818282;enable-background:new    ;}
	.st11{fill:#4880AA;}
	.st12{fill:#4172A3;}
	.st13{fill:#39669B;}
	.st14{fill:#2E568D;}
	.st15{fill:#214A7A;}
	.st16{fill:#775935;}
	.st17{fill:#836340;}
	.st18{opacity:0.68;fill:#6C4D2B;enable-background:new    ;}
	.st19{fill:#694A2A;}
	.st20{fill:#A53B3B;}
	.st21{fill:#922D2D;}
	.st22{fill:#B64949;}
	.st23{opacity:0.56;fill:#353535;}
	.st24{fill:#725433;}
	.st25{fill:none;}
	.st26{fill:#5E4125;}
	.st27{fill:#75542F;}
	.st28{fill:#8C6E44;}
	.st29{fill:#BCBBBB;}
	.st30{fill:#7F603B;}
	.st31{fill:#5B3C20;}
	.st32{fill:#664A2B;}
	.st33{fill:#AAAAAA;}
	.st34{fill:#BFBEBE;}
	.st35{fill:none;stroke:#000000;stroke-miterlimit:10;}
	.st36{fill:#604123;}
	.st37{fill:#772222;}
	.st38{fill:#661919;}
	.st39{fill:#8C3131;}
	.st40{fill:#3A3A3A;}
	.st41{fill:#C5CE6F;}
	.st42{fill:#2D2D2D;}
	.st43{fill:#383838;}
	.st44{fill:#636362;}
	.st45{fill:#2B2B2B;}
	.st46{fill:#2B2B2B;stroke:#191919;stroke-width:0.25;stroke-miterlimit:10;}
	.st47{fill:#D1D1D1;}
	.st48{fill:#212121;}
	.st49{opacity:0.39;fill:#212121;enable-background:new    ;}
	.st50{fill:#1C1C1C;}
	.st51{fill:#232323;}
	.st52{fill:#E2E2E2;}
	.st53{fill:url(#SVGID_1_);stroke:#141414;stroke-width:0.5;stroke-miterlimit:10;}
	.st54{fill:url(#SVGID_2_);}
	.st55{fill:#5E91AA;}
	.st56{fill:#296DA5;}
	.st57{opacity:0.34;fill:#8DBFD3;enable-background:new    ;}
	.st58{opacity:0.68;fill:#6B9FC6;enable-background:new    ;}
	.st59{opacity:0.67;fill:#BAD7E5;enable-background:new    ;}
	.st60{opacity:0.68;fill:#538BAD;enable-background:new    ;}
	.st61{fill:#316DA8;}
	.st62{fill:#296799;}
	.st63{opacity:0.28;fill:#A8C5DD;enable-background:new    ;}
	.st64{opacity:0.47;fill:#353535;enable-background:new    ;}
	.st65{fill:#A89B42;}
	.st66{fill:#444444;}
	.st67{fill:#999895;}
	.st68{fill:#498C3B;}
	.st69{fill:#A58359;}
	.st70{fill:#873C3C;}
	.st71{fill:#A57E28;}
	.st72{fill:#AA5B5B;}
	.st73{fill:#727272;}
	.st74{fill:#3F3C38;}
	.st75{fill:#282625;}
	.st76{opacity:0.69;fill:#DBD9D7;enable-background:new    ;}
	.st77{fill:#6D4D35;}
	.st78{fill:#A8845A;}
	.st79{fill:#96704A;}
	.st80{fill:#C4C2C0;}
	.st81{opacity:0.52;fill:#999999;enable-background:new    ;}
	.st82{fill:#AF8964;}
	.st83{fill:#8C6B4B;}
	.st84{fill:#7A593D;}
	.st85{fill:#8FA4B5;}
	.st86{fill:#999922;}
	.st87{fill:#A7AD2A;}
	.st88{fill:#822929;}
	.st89{fill:#3B7CB2;}
	.st90{fill:#3D3D3D;}
	.st91{fill:#ADADAD;}
	.st92{fill:#772525;}
	.st93{fill:#998B39;}
	.st94{fill:#BABABA;}
	.st95{fill:#3D772F;}
	.st96{fill:#788D9B;}
	.st97{fill:url(#SVGID_3_);}
	.st98{opacity:0.34;fill:#B73939;enable-background:new    ;}
	.st99{opacity:0.34;fill:#E2E2E2;enable-background:new    ;}
	.st100{opacity:0.25;fill:#E2E2E2;enable-background:new    ;}
	.st101{fill:#AAAA2D;}
	.st102{fill:#969323;}
	.st103{fill:#2B993D;}
	.st104{fill:#238C2F;}
	.st105{fill:#8C671C;}
	.st106{fill:#661818;}
	.st107{fill:url(#SVGID_4_);}
	.st108{fill:#C66F34;}
	.st109{fill:#B25C22;}
	.st110{fill:#9B470E;}
	.st111{opacity:0.75;fill:#BAB3AF;}
	.st112{opacity:0.26;fill:#BAB3AF;}
	.st113{fill:#111111;}
	.st114{fill:#775731;}
	.st115{fill:#634525;}
	.st116{fill:#23659B;}
	.st117{fill:#4A8EBC;}
	.st118{fill:#353535;}
	.st119{fill:#A2A4A5;}
	.st120{fill:#771818;}
	.st121{fill:#842323;}
	.st122{fill:#CC8B8B;}
	.st123{fill:#3D773F;}
	.st124{fill:#468246;}
	.st125{fill:#A6AD42;}
	.st126{fill:#528E3C;}
	.st127{fill:#9D43AA;}
	.st128{fill:#DDDDD9;}
	.st129{fill:#1A5C89;}
	.st130{fill:#A8A8A7;}
	.st131{fill:#262626;}
	.st132{fill:#631111;}
	.st133{fill:#2E632E;}
	.st134{fill:#A6A84F;}
	.st135{fill:#969644;}
	.st136{fill:#470909;}
	.st137{fill:#B7B75A;}
	.st138{fill:url(#SVGID_5_);}
	.st139{fill:url(#SVGID_6_);}
	.st140{opacity:0.54;fill:#BACDD8;}
	.st141{opacity:0.12;fill:#9AAEB7;}
	.st142{opacity:0.5;fill:#CDDFE8;}
	.st143{opacity:0.54;fill:#9DB8C6;}
	.st144{fill:#6A9630;}
	.st145{fill:#5D8223;}
	.st146{fill:#A0A03C;}
	.st147{fill:#919331;}
	.st148{fill:#185984;}
	.st149{fill:#4C4C4C;}
	.st150{fill:#A3A3A3;}
	.st151{fill:#E8C09E;}
	.st152{fill:#BFBB64;}
	.st153{fill:#CCC676;}
	.st154{fill:#BABA5D;}
	.st155{opacity:0.43;fill:#7BBFC6;stroke:#161616;stroke-width:0.25;stroke-miterlimit:10;enable-background:new    ;}
	.st156{fill:none;stroke:#161616;stroke-width:0.25;stroke-miterlimit:10;}
	.st157{fill:#D8D8D8;}
	.st158{fill:#1E1E1E;}
	.st159{fill:#8C8C8C;}
	.st160{fill:#191919;}
	.st161{fill:#9B9B9B;}
	.st162{fill:#B5B241;}
	.st163{fill:#A09A33;}
	.st164{fill:#7A7A7A;}
	.st165{fill:#514D47;}
	.st166{fill:#33302D;}
	.st167{fill:#0F4B7C;}
	.st168{fill:#D6A885;}
	.st169{fill:#C69473;}
	.st170{fill:#15517A;}
	.st171{fill:#EFC9AC;}
	.st172{fill:#2E78AA;}
	.st173{fill:#424242;}
	.st174{fill:#515151;}
	.st175{fill:#D6D6D6;}
	.st176{fill:#3D3D3D;stroke:#E5AC77;stroke-width:0.25;stroke-miterlimit:10;}
	.st177{fill:#7F3E09;}
	.st178{fill:#964E0E;}
	.st179{display:none;}
	.st180{display:inline;fill:#2D2D2D;}
	.st181{fill:none;stroke:#1E1E1E;stroke-width:2;stroke-miterlimit:10;}
	.st182{fill:#282828;}
	.st183{fill:#565656;}
	.st184{fill:none;stroke:#282828;stroke-miterlimit:10;}
	.st185{fill:#669FC6;}
	.st186{fill:#0C0C0C;}
	.st187{fill:#535D63;}
	.st188{fill:#3582A8;}
	.st189{fill:#414C51;}
	.st190{fill:#535D63;stroke:#2D2D2D;stroke-width:0.25;stroke-miterlimit:10;}
	.st191{fill:#ADADAD;stroke:#2D2D2D;stroke-width:0.25;stroke-miterlimit:10;}
	.st192{fill:url(#SVGID_7_);stroke:#2D2D2D;stroke-width:0.25;stroke-miterlimit:10;}
	.st193{fill:#383838;stroke:#2D2D2D;stroke-width:0.25;stroke-miterlimit:10;}
	.st194{fill:#195B7C;stroke:#2D2D2D;stroke-width:0.25;stroke-miterlimit:10;}
	.st195{fill:#0B4359;}
	.st196{fill:#063949;}
	.st197{fill:#939338;}
	.st198{fill:#D3D3CB;}
	.st199{fill:#9E9E9E;}
	.st200{fill:#B2B2B2;}
	.st201{fill:#BCBCBC;}
	.st202{fill:#A5A5A5;}
	.st203{font-family:'ARJULIAN';}
	.st204{font-size:15.0063px;}
	.st205{opacity:0.35;fill:#3D3D3D;enable-background:new    ;}
	.st206{display:inline;fill:none;stroke:#000000;stroke-miterlimit:10;}
</style>
<g id="Parede">
	<rect x="486" y="229.2" class="st0" width="1021" height="60.8"/>
	<rect x="566.1" y="-240" class="st1" width="940.9" height="469.7"/>
	<rect x="566.1" y="196.9" class="st2" width="940.9" height="32.8"/>
	<rect x="486" y="-240" class="st3" width="86" height="514.5"/>
</g>
<g id="Janela">
	<rect id="XMLID_15_" x="654.1" y="-205.3" class="st4" width="222.1" height="249.3"/>
	
		<linearGradient id="XMLID_2_" gradientUnits="userSpaceOnUse" x1="765.95" y1="22.8" x2="765.95" y2="243" gradientTransform="matrix(1 0 0 -1 0 50)">
		<stop  offset="0" style="stop-color:#FFFFFF"/>
		<stop  offset="0.6735" style="stop-color:#51C9F4"/>
	</linearGradient>
	<rect id="XMLID_20_" x="667.7" y="-193" class="st5" width="196.5" height="220.2"/>
	<path id="XMLID_36_" class="st6" d="M724.9-173c-3-2.2-7.2-2.1-10.8-1.3c-3.7,0.8-7.2,2.2-11,2.3c-1.8,0-3.6-0.3-5.4-0.1
		c-2,0.2-3.8,1-5.6,1.7c-5,2-10,4.1-14.9,6.1c13.8,5.9,29.6,3.2,44.7,3.2c9.8,0,19.6,1.1,29.4,2.4c2.1,0.3,4.2,0.6,6.3,0
		c2.1-0.6,3.9-2.2,4-4.3c-2.1-0.1-4.1-0.2-6.2-0.4c-1.6-2.1-3.3-4.3-4.9-6.4c-1.5-1.9-3.1-3.9-5.5-4.3c-3.7-0.6-6.7,3.1-10.3,3.8
		c-2.6-4-8-5.9-12.5-4.4"/>
	<path id="XMLID_34_" class="st6" d="M727.5-105.2c2.2-4.3,7.6-6.1,11.6-3.9c0.5,0.3,1,0.6,1.6,0.6c0.7-0.1,1.2-0.8,1.7-1.4
		c3.1-4.2,8.1-7.4,12.8-5.9c3.1,0.9,5.5,3.6,7.8,6.2c4.8-1.2,9.6-2.5,14.4-3.7c0.9-0.2,1.8-0.4,2.6-0.1c1.3,0.5,1.9,2,2.8,3.1
		c1.4,1.6,3.6,2,5.5,2.3c3.5,0.6,7,1.1,10.5,1.7c1.3,0.2,2.6,0.4,3.7,1.3c0.8,0.6,1.3,1.6,1.8,2.5c1.7,3,3.4,6,5,9
		c0.3,0.5,0.6,1.1,0.3,1.7c-0.2,0.4-0.7,0.6-1.1,0.7c-3.6,0.9-7.3,1.8-10.9,2.7c0.9,1.1,0.3,3-0.8,3.9c-1.1,0.9-2.5,1-3.8,1.2
		c-8.1,0.8-16.8,1.4-23.9-3c-0.5,2.3-2.6,3.8-4.7,4.1c-2.1,0.4-4.2-0.2-6.3-0.6c-5.3-1-10.7-1.2-16.1-0.5c-2.4,0.3-4.8,0.7-7.1,0.4
		c-3.5-0.5-6.7-2.8-8.6-6c-3.6,1.7-7.4,2.9-11.3,2.3c-3.8-0.5-7.6-3.1-8.9-7.2c0.9-0.3,1.7-0.6,2.6-0.8c-1.3-0.9-2.6-1.8-3.9-2.7
		c-0.4-0.3-0.8-0.6-0.9-1.1c-0.1-0.5,0.2-1,0.5-1.4c2.4-3,6.6-4,9.9-2.3c-1,0.2-0.5-1.7,0.3-2.3c4-2.5,9.2-2.4,13.1,0.2"/>
	<path id="XMLID_35_" class="st6" d="M833.2-156.9c-2.6-2-6.2-1.8-9.5-1.5c-5,0.5-10,0.9-15.1,1.4c-2.4,0.2-4.9,0.5-7.3,1.2
		c-5.1,1.7-9.3,5.9-14.6,6.7c-1.4,0.2-2.8,0.2-4,0.9c-2.3,1.5-1.8,5.2,0.2,7.1c2,1.8,4.9,2.3,7.6,2.7c-0.9-0.4-0.7,1.3,0.1,1.9
		c5.2,3.9,11,7.9,17.4,7.7c5.4-0.2,10.5-3.5,15.9-3.2c4.9,0.3,9.9,3.5,14.5,1.8c3-1.1,5-4.2,8-5.2c1.2-0.4,2.5-0.5,3.6-1
		c2.6-1.2,3.4-5,1.7-7.3c1.2-0.2,2.5-0.4,3.7-0.5c-0.8-6.3-7.8-11.1-14-9.6c0.3-1.8-1.3-3.5-3-3.9c-1.8-0.4-3.6,0-5.4,0.5"/>
	<rect id="XMLID_16_" x="649.9" y="36.7" class="st4" width="233.1" height="14.1"/>
	<rect id="XMLID_17_" x="654.1" y="33" class="st7" width="222.1" height="3.7"/>
	<rect id="XMLID_21_" x="671.3" y="-193" class="st8" width="190.3" height="68.6"/>
	<polygon id="XMLID_23_" class="st9" points="671.3,-136.3 733,-193 842.3,-193 775.9,-124.3 671.3,-124.3 	"/>
	<rect id="XMLID_19_" x="761.5" y="-193" class="st4" width="8.9" height="68.9"/>
	<path id="XMLID_26_" class="st7" d="M667.7-194.1v73.7h196.5v-73.7H667.7z M861.6-124.1H671.3v-68.6h190.3V-124.1z"/>
	<rect id="XMLID_18_" x="666.1" y="-120.4" class="st4" width="200.7" height="12.3"/>
	<rect id="XMLID_22_" x="667.7" y="24.9" class="st7" width="196.5" height="2.4"/>
	<rect id="XMLID_27_" x="667.7" y="-124.1" class="st10" width="3.7" height="15.9"/>
	<rect id="XMLID_28_" x="861.6" y="-124.3" class="st10" width="2.6" height="16.2"/>
	<path id="XMLID_33_" class="st11" d="M667.7-86.9c8.1,8,17.8,14.5,30.8,17.4c15.8,4,31.4,7.5,45.6,4.7c23.9-10.8,46.9-9.9,69.2,1
		c10.7,4.8,21.2,7.2,31.4,3.9c8.9-5.7,17.6-11,19.5-8.4v33.1l-196.5,0.7L667.7-86.9L667.7-86.9z"/>
	<path id="XMLID_29_" class="st12" d="M667.7-61.1c7.2-2.2,14.3-5.6,20.9-11c14.2-13.1,31.3-15.7,53.6,0
		c11.2,5.9,26.1,16.5,43.4,9.7c29.7-12.7,52.1-12.9,66.9,0c3.4,2,6.7,4.2,11.8,5v50.7L667.8-6.2L667.7-61.1L667.7-61.1z"/>
	<polygon id="XMLID_32_" class="st13" points="676.4,-31.1 681.6,-31.1 681.6,-58.5 700.8,-58.5 700.8,-41.7 722.7,-41.7 
		722.7,-57.6 741.2,-57.6 741.2,-44.8 748.7,-44.8 748.7,-37.3 752.9,-37.3 752.9,-54.1 762.8,-54.1 762.8,-41.6 765.2,-41.6 
		765.2,-58.5 776.6,-58.5 776.6,-42.6 780.2,-42.4 780.2,-52.2 791.6,-52 791.6,-42.4 797.3,-42.4 797.3,-47.5 811.4,-47.3 
		811.4,-50.8 830.2,-50.8 830.2,-39.8 853.4,-40 853.4,-31.1 864.2,-31.1 864.2,15.4 667.7,15.4 667.7,-30.4 	"/>
	<polygon id="XMLID_31_" class="st14" points="667.7,-37.3 679.4,-37.3 679.4,-23.4 686.8,-23.4 686.8,-15.3 720.2,-15.3 
		720.2,-37.3 742.2,-37.3 742.2,-20.6 778.7,-20.6 778.7,-35.5 837,-35.5 837,-27.4 837,-25 861.6,-24.7 861.6,-18.7 864.2,-18.7 
		864.2,24.9 667.7,24.9 	"/>
	<polygon id="XMLID_30_" class="st15" points="673.9,-18.5 692,-18.5 692,-46.2 712.4,-46.2 712.4,-62.4 727,-62.4 727,-16.6 
		750,-16.6 750,-9.3 756.8,-9.3 766.5,0.6 761.5,0.6 761.5,10 770.4,10 770.4,-27.6 790.5,-27.9 790.5,-40.2 802.8,-40.2 
		802.8,-56.9 818.5,-56.9 818.5,-44.9 826.3,-44.9 826.3,-21.1 842.3,-21.3 842.3,-13.5 854.5,-13.5 854.5,-6.5 864.2,-6.7 
		864.2,24.9 667.7,24.9 667.7,-10.6 674.2,-10.6 	"/>
	<rect id="XMLID_45_" x="606" y="-225.7" class="st16" width="290.2" height="10.5"/>
	<rect id="XMLID_49_" x="606" y="-220.5" class="st17" width="290.2" height="5.2"/>
	<path id="XMLID_51_" class="st18" d="M613.2-225.7c1.7,3.7,1.1,7.3,0,10.5h-2.6l-0.4-10.5C610.2-225.7,613.2-225.7,613.2-225.7z"/>
	<ellipse id="XMLID_50_" class="st16" cx="600.9" cy="-220.5" rx="11.6" ry="10.8"/>
	<path id="XMLID_53_" class="st19" d="M610.9-223.1c0.2,0.8,0.4,1.7,0.4,2.6c0,5.3-4.6,9.6-10.3,9.6c-2.2,0-4.3-0.7-6-1.8
		C603.8-211.4,609.7-214,610.9-223.1z"/>
	<ellipse id="XMLID_52_" class="st16" cx="599.2" cy="-230.2" rx="0.2" ry="0.1"/>
	<ellipse id="XMLID_54_" class="st17" cx="601.3" cy="-228.7" rx="2.1" ry="1.9"/>
	<path id="XMLID_56_" class="st17" d="M597.2-225.2c1.4-1.5,0-3.1-1.9-2.5c-4.6,2.8-5.3,6.1-4.4,9.5c0.8,2.4,3.3,1.5,2.9-0.4
		C593.9-221.2,594.9-223.5,597.2-225.2z"/>
	<path id="XMLID_61_" class="st18" d="M894.2-225.7c-1.7,3.7-1.1,7.3,0,10.5h2.6l0.4-10.5C897.2-225.7,894.2-225.7,894.2-225.7z"/>
	<ellipse id="XMLID_60_" class="st16" cx="906.6" cy="-220.5" rx="11.6" ry="10.8"/>
	<path id="XMLID_59_" class="st19" d="M896.6-223.1c-0.2,0.8-0.4,1.7-0.4,2.6c0,5.3,4.6,9.6,10.3,9.6c2.2,0,4.3-0.7,6-1.8
		C903.7-211.4,897.7-214,896.6-223.1z"/>
	<ellipse id="XMLID_58_" class="st16" cx="908.3" cy="-230.2" rx="0.2" ry="0.1"/>
	<ellipse id="XMLID_57_" class="st17" cx="906.2" cy="-228.7" rx="2.1" ry="1.9"/>
	<path id="XMLID_55_" class="st17" d="M910.3-225.2c-1.4-1.5,0-3.1,1.9-2.5c4.6,2.8,5.3,6.1,4.4,9.5c-0.8,2.4-3.3,1.5-2.9-0.4
		C913.6-221.2,912.5-223.5,910.3-225.2z"/>
	<path id="XMLID_37_" class="st20" d="M690.2-215.3V58.1c-4.9,4.1-10.9,6.9-20.6,5.2c-11.2,5.1-19.7,5.9-24.3,0.5
		c-9.2,5.3-16.4,5.2-20.9-1.5c-5,3-8.4,2.7-10.5-0.5v-277h76.3V-215.3z"/>
	<path id="XMLID_39_" class="st21" d="M625.5,1.3l-1.2,61l-4.9,2C623.5,52.8,624.4,26.7,625.5,1.3z"/>
	<path id="XMLID_40_" class="st21" d="M645.2,63.8l-1.6-104.3c-0.9,43.2-1.6,89-5,107.3C640.8,66.1,643,65.1,645.2,63.8z"/>
	<path id="XMLID_41_" class="st21" d="M669.5-19.6v82.9C669,64,667.4,16.3,669.5-19.6z"/>
	<path id="XMLID_38_" class="st21" d="M661.9-178.4c5.5,35.8,7.7,70.7,5.7,104.6C667.7-112,666.2-147.6,661.9-178.4z"/>
	<path id="XMLID_42_" class="st21" d="M638.8-175.3c-5.1,33-7,66.3-5.9,100.1C633.2-110.3,635-144,638.8-175.3z"/>
	<path id="XMLID_43_" class="st22" d="M661.9-178.4c4.3,28.7,5.5,65.4,5.7,104.6C666.4-110.8,664.5-145.9,661.9-178.4z"/>
	<path id="XMLID_44_" class="st22" d="M632.8-75.2c0.5-35.9,2.2-69.8,5.9-100.1L632.8-75.2z"/>
	<polygon id="XMLID_46_" class="st22" points="625.5,1.3 624.3,62.3 625.9,64.3 	"/>
	<polygon id="XMLID_47_" class="st22" points="645.2,63.8 643.6,-40.5 647.5,65.8 	"/>
	<polygon id="XMLID_48_" class="st22" points="669.5,63.3 669.5,-19.6 671.9,63.6 	"/>
	<rect id="XMLID_62_" x="613.8" y="-225.7" class="st20" width="8.8" height="10.5"/>
	<rect id="XMLID_63_" x="629" y="-225.7" class="st20" width="8.8" height="10.5"/>
	<rect id="XMLID_64_" x="644.5" y="-225.7" class="st20" width="8.8" height="10.5"/>
	<rect id="XMLID_65_" x="659.6" y="-225.7" class="st20" width="8.8" height="10.5"/>
	<rect id="XMLID_66_" x="675.1" y="-225.7" class="st20" width="8.8" height="10.5"/>
	<path id="XMLID_82_" class="st20" d="M814.5-215.3V58.1c4.9,4.1,10.9,6.9,20.6,5.2c11.2,5.1,19.7,5.9,24.3,0.5
		c9.2,5.3,16.4,5.2,20.9-1.5c5,3,8.4,2.7,10.5-0.5v-277h-76.3V-215.3z"/>
	<path id="XMLID_81_" class="st21" d="M879.1,1.3l1.2,61l4.9,2C881.2,52.8,880.2,26.7,879.1,1.3z"/>
	<path id="XMLID_80_" class="st21" d="M859.4,63.8L861-40.5c0.9,43.2,1.6,89,5,107.3C863.8,66.1,861.6,65.1,859.4,63.8z"/>
	<path id="XMLID_79_" class="st21" d="M835.1-19.6v82.9C835.6,64,837.2,16.3,835.1-19.6z"/>
	<path id="XMLID_78_" class="st21" d="M842.7-178.4c-5.5,35.8-7.7,70.7-5.7,104.6C836.9-112,838.4-147.6,842.7-178.4z"/>
	<path id="XMLID_77_" class="st21" d="M865.9-175.3c5.1,33,7,66.3,5.9,100.1C871.4-110.3,869.7-144,865.9-175.3z"/>
	<path id="XMLID_76_" class="st22" d="M842.7-178.4c-4.3,28.7-5.5,65.4-5.7,104.6C838.3-110.8,840.1-145.9,842.7-178.4z"/>
	<path id="XMLID_75_" class="st22" d="M871.8-75.2c-0.5-35.9-2.2-69.8-5.9-100.1L871.8-75.2z"/>
	<polygon id="XMLID_74_" class="st22" points="879.1,1.3 880.3,62.3 878.7,64.3 	"/>
	<polygon id="XMLID_73_" class="st22" points="859.4,63.8 861,-40.5 857.1,65.8 	"/>
	<polygon id="XMLID_72_" class="st22" points="835.1,63.3 835.1,-19.6 832.8,63.6 	"/>
	<rect id="XMLID_71_" x="882" y="-225.7" class="st20" width="8.8" height="10.5"/>
	<rect id="XMLID_70_" x="866.9" y="-225.7" class="st20" width="8.8" height="10.5"/>
	<rect id="XMLID_69_" x="851.3" y="-225.7" class="st20" width="8.8" height="10.5"/>
	<rect id="XMLID_68_" x="836.3" y="-225.7" class="st20" width="8.8" height="10.5"/>
	<rect id="XMLID_67_" x="820.8" y="-225.7" class="st20" width="8.8" height="10.5"/>
</g>
<g id="SombraEstante">
	<rect x="1097.9" y="271.5" class="st23" width="352.1" height="15.8"/>
</g>
<g id="Estante_perspect">
	<polyline class="st24" points="1397.9,41.7 1507,58.7 1041.1,58.7 995.2,41.8 	"/>
	<line class="st25" x1="994.7" y1="49" x2="926.5" y2="21.9"/>
	<polyline class="st26" points="995.2,41.8 1041.1,58.7 1041.1,67.4 994.7,49 	"/>
	<polygon class="st27" points="1001.9,51.8 1041.1,67.4 1045,67.4 1045,274.5 1000.1,230.2 1000.1,51.8 	"/>
	<polyline class="st16" points="1442.8,287.3 1420.3,276.5 1420.3,274.5 1420.3,274.5 1442.8,274.5 1442.8,274.5 1442.8,287.3 
		1442.8,287.3 	"/>
	<polyline class="st16" points="1051.8,287.3 1036.9,272.3 1036.9,266.2 1045,274.5 1045,274.5 1051.8,274.5 1051.8,274.5 
		1051.8,287.3 	"/>
	<polygon class="st16" points="1000.8,236.5 1000.8,231 1013.9,243.9 1013.9,250 	"/>
	<polygon class="st28" points="1020.1,250 1013.9,250 1013.9,243.9 	"/>
	<polyline class="st29" points="1164,58.7 1096,41.3 1275.5,41.7 1365.3,58.7 1164,58.7 1165.4,57.8 	"/>
</g>
<g id="Estante">
	<rect x="1045" y="67.4" class="st28" width="456.7" height="207.1"/>
	<rect x="1041.1" y="58.7" class="st30" width="465.9" height="8.7"/>
	<rect x="1049.8" y="71.1" class="st31" width="111.3" height="47.6"/>
	<rect x="1049.8" y="123.4" class="st31" width="111.3" height="47.6"/>
	<rect x="1049.8" y="175.8" class="st31" width="111.3" height="91.6"/>
	<rect x="1167" y="71.1" class="st16" width="198.3" height="196.2"/>
	<rect x="1051.8" y="274.5" class="st28" width="48.8" height="12.8"/>
	<rect x="1051.8" y="274.5" class="st30" width="48.8" height="4"/>
	<rect x="1167" y="199.5" class="st32" width="198.3" height="2"/>
	<rect x="1167" y="167.8" class="st32" width="198.3" height="2"/>
	<rect x="1167" y="136.7" class="st32" width="198.3" height="2"/>
	<rect x="1167" y="103.2" class="st32" width="198.3" height="2.4"/>
	<rect x="1442.8" y="274.5" class="st28" width="48.8" height="12.8"/>
	<rect x="1442.8" y="274.5" class="st30" width="48.8" height="4"/>
	<path class="st32" d="M1305.8,168.7h-79.3c-0.2,0-0.3,0.1-0.3,0.3v2.2c0,0.2,0.1,0.3,0.3,0.3h79.3c0.2,0,0.3-0.1,0.3-0.3V169
		C1306.2,168.9,1306,168.7,1305.8,168.7z"/>
	<path class="st32" d="M1305.8,137.3h-79.3c-0.2,0-0.3,0.1-0.3,0.3v2.2c0,0.2,0.1,0.3,0.3,0.3h79.3c0.2,0,0.3-0.1,0.3-0.3v-2.2
		C1306.2,137.5,1306,137.3,1305.8,137.3z"/>
	<path class="st32" d="M1305.8,103.8h-79.3c-0.2,0-0.3,0.1-0.3,0.3v2.2c0,0.2,0.1,0.3,0.3,0.3h79.3c0.2,0,0.3-0.1,0.3-0.3v-2.2
		C1306.2,103.9,1306,103.8,1305.8,103.8z"/>
	<path class="st32" d="M1305.8,200.1h-79.3c-0.2,0-0.3,0.1-0.3,0.3v2.2c0,0.2,0.1,0.3,0.3,0.3h79.3c0.2,0,0.3-0.1,0.3-0.3v-2.2
		C1306.2,200.2,1306,200.1,1305.8,200.1z"/>
	<rect x="1371.3" y="71.1" class="st16" width="124" height="196.2"/>
	<path class="st33" d="M1383.2,183.3L1383.2,183.3c-2.7,0-4.8-2.2-4.8-4.8v-41.7c0-2.7,2.2-4.8,4.8-4.8l0,0c2.7,0,4.8,2.2,4.8,4.8
		v41.7C1388,181.2,1385.8,183.3,1383.2,183.3z"/>
	<path class="st34" d="M1381.6,179.6L1381.6,179.6c0.5,0,0.9-0.4,0.9-0.9v-44c0-0.5-0.4-0.9-0.9-0.9l0,0c-0.5,0-0.9,0.4-0.9,0.9v44
		C1380.7,179.2,1381.1,179.6,1381.6,179.6z"/>
	<path class="st35" d="M1041.1,67.4"/>
	<polygon class="st36" points="1045,97.8 1000.1,76.4 1000.1,78.3 1045,100.2 	"/>
</g>
<g id="Abajur">
	<polygon class="st37" points="1306.1,-63.4 1310.8,-57.8 1302.4,-49.4 1297.7,-54.8 	"/>
	<path class="st38" d="M1278.7-65.7l14.9-13.7c4.5-3.1,18.6,10.6,14.5,16.1l-14.3,14.5L1278.7-65.7z"/>
	<path class="st37" d="M1244.3-38.5c0-15.5,12.9-28,28.7-28c15.8,0,28.7,12.5,28.7,28"/>
	<path class="st39" d="M1244.3-38.5c0-14.9,12-27.1,27.1-28c-15.6,5.3-21.6,15.6-23.8,28H1244.3z"/>
	<ellipse class="st40" cx="1273" cy="-38.2" rx="28.7" ry="5.7"/>
	<path class="st41" d="M1273-43.9c-2.7,0-5.4,0.1-7.9,0.2c0-0.1,0-0.1,0-0.2c0,3.6,3.8,6.4,8.5,6.4c4.6,0,8.3-2.7,8.5-6.1
		C1279.2-43.8,1276.2-43.9,1273-43.9z"/>
	<path class="st2" d="M1308.9-57.7l-4.7,4.5c32.2,30.8,28.7,71.6,9.9,101.1h8.3c21.9-39.9,16.7-74.8-13.6-105"/>
	<path class="st37" d="M1334.9-10.5c3,18.1-1,37.6-12.4,58.4h-8.3c10.5-16.6,16.3-36.8,13.5-56.8L1334.9-10.5z"/>
	<ellipse class="st37" cx="1319.4" cy="48" rx="18.6" ry="6.6"/>
	<path class="st38" d="M1325,43c-0.8,1.6-1.7,3.3-2.6,4.9c-3,1.5-5.7,1.2-8.3,0c1.1-1.7,2.1-3.4,3.1-5.2
		C1319.3,43.8,1322.1,43.6,1325,43z"/>
	<path class="st38" d="M1300.7,50.9v-3c1.3,4.2,7.8,6.3,18.6,6.6c8.9-0.6,17.3-1.6,18.6-6.6l-0.3,3
		C1337.5,59.5,1300.7,58.9,1300.7,50.9z"/>
</g>
<g id="camera">
	<g id="parte_de_tras">
		<path class="st42" d="M1059.1,8h48.8l15.6,7.8c1.8,1.7,3.3,4.1,3,10.1V50c0,1.2-0.2,2-1,1.9H1059L1059.1,8L1059.1,8z"/>
		<path class="st43" d="M1126.5,23.5c-0.2-4.2-1.5-6.2-3-7.7L1107.9,8h-48.8v13.8v1.7H1126.5z"/>
		<circle class="st44" cx="1066.5" cy="16.4" r="1.2"/>
		<polygon class="st45" points="1111.1,3.1 1107.8,8 1123.4,15.9 1126.5,10.9 		"/>
		<path class="st46" d="M1122.1,17.2l-0.1,6.3c0,0.8-0.1,1.3-0.7,1.3h-7.9c-0.9,0.1-1.4-0.4-1.4-1.3v-6.3
			C1111.8,16.3,1122,15.9,1122.1,17.2z"/>
		<g>
			<path class="st47" d="M1116,20.5C1116,20.6,1116,20.6,1116,20.5c-0.1,0.1-0.1,0.1-0.2,0.1h-1.7c-0.1,0-0.1,0-0.1-0.1
				c0,0,0-0.1,0.1-0.1s0.1-0.1,0.1-0.2v-2c0-0.1,0-0.1-0.1-0.2c-0.1,0-0.1-0.1-0.1-0.1c0-0.1,0-0.1,0.1-0.1h1.6c0.1,0,0.1,0,0.1,0.1
				c0,0,0.1,0.1,0.1,0.2v0.1v0.1l0,0l0,0l0,0l0,0c0,0-0.1,0-0.1-0.1c0,0-0.1,0-0.1-0.1s-0.1,0-0.1-0.1c0,0,0,0-0.1,0
				c0,0-0.1,0-0.2,0c-0.1,0-0.2,0-0.3,0s-0.2,0-0.2,0l-0.1,0.1c0,0.1,0,0.2,0,0.3s0,0.1,0,0.1l0,0l0,0c0,0,0,0,0,0.1l0,0
				c0,0,0,0,0.1,0c0,0,0,0,0.1,0c0,0,0,0,0.1,0c0,0,0,0,0.1,0h0.1c0,0,0,0,0.1,0c0.1,0,0.1,0,0.2,0l0.1,0.1c0,0.1,0,0.1-0.1,0.1
				c0,0-0.1,0-0.2,0h-0.1h-0.1h-0.1c0,0-0.1,0-0.1,0.1v0.9c0,0.1,0,0.1,0,0.1h0.1h0.1c0.1,0,0.1,0,0.2,0s0.1,0,0.2,0
				c0.1,0,0.1,0,0.1,0h0.1l0.1-0.1l0.1-0.1l0.1-0.1h0.1c0,0,0,0,0,0.1c0,0,0,0,0,0.1c0,0,0,0.1-0.1,0.1
				C1115.9,19.9,1116.1,20.4,1116,20.5L1116,20.5z"/>
			<path class="st47" d="M1117.2,20.2v0.1h0.1c0.1,0,0.2,0,0.3,0s0.1,0,0.2,0c0.1,0,0.1,0,0.1,0s0,0,0.1,0c0,0,0.1,0,0.2-0.1
				c0.1,0,0.1-0.1,0.2-0.2l0.1-0.1c0,0,0.1,0,0.1,0.1c0,0,0,0.1-0.1,0.2c0,0,0,0.1-0.1,0.1v0.1c0,0,0,0-0.1,0.1h-0.1h-1.7
				c-0.1,0-0.1,0-0.1-0.1c0,0,0-0.1,0.1-0.1s0.1-0.1,0.1-0.2v-2c0-0.1,0-0.1-0.1-0.2c-0.1,0-0.1-0.1-0.1-0.1c0-0.1,0-0.1,0.1-0.1
				h0.9c0.1,0,0.1,0,0.1,0.1c0,0,0,0.1-0.1,0.1s-0.1,0.1-0.1,0.2L1117.2,20.2z"/>
			<path class="st47" d="M1119.6,20.7L1119.6,20.7c-0.2,0-0.2,0-0.3,0c-0.1,0-0.1,0-0.2,0s-0.1,0-0.1,0s-0.1,0-0.1,0.1s-0.1,0-0.1,0
				s-0.1,0-0.1-0.1s-0.1-0.1-0.1-0.2s0-0.1,0-0.2s0-0.1,0-0.2c0,0,0,0,0-0.1s0,0,0,0l0,0l0,0c0.1,0.1,0.2,0.2,0.3,0.3
				c0.1,0.1,0.2,0.1,0.4,0.1c0.1,0,0.2,0,0.3-0.1s0.1-0.1,0.1-0.3c0-0.1,0-0.2,0-0.2c0-0.1-0.1-0.1-0.1-0.2s-0.1-0.1-0.2-0.1
				c-0.1,0-0.1-0.1-0.2-0.1c-0.1-0.1-0.3-0.2-0.3-0.2c-0.1-0.1-0.2-0.1-0.2-0.2s-0.1-0.1-0.1-0.2s0-0.1,0-0.2s0-0.2,0.1-0.3
				s0.1-0.2,0.2-0.2c0.1,0,0.2-0.1,0.3-0.1s0.2-0.1,0.3-0.1h0.1h0.1h0.1h0.1l0,0l0,0l0,0l0,0c0,0,0.1,0,0.1,0.1s0.1,0.1,0.1,0.2
				s0,0.1,0.1,0.2c0,0.1,0,0.1,0,0.1c0,0.1,0,0.1-0.1,0.1c-0.1-0.1-0.1-0.1-0.2-0.1c-0.1,0-0.1-0.1-0.2-0.1c-0.1,0-0.1-0.1-0.2-0.1
				s-0.1,0-0.2,0c-0.1,0-0.1,0-0.2,0.1c0,0-0.1,0.1-0.1,0.2c0,0,0,0.1,0.1,0.1s0.1,0.1,0.1,0.1c0.1,0,0.1,0.1,0.2,0.1
				c0.1,0,0.1,0.1,0.2,0.1c0.1,0.1,0.2,0.1,0.2,0.2c0.1,0.1,0.2,0.1,0.2,0.2s0.1,0.2,0.2,0.3c0,0.1,0.1,0.2,0.1,0.3
				c0,0.2-0.1,0.4-0.3,0.6S1119.8,20.7,1119.6,20.7z"/>
		</g>
		<g>
			<path class="st47" d="M1115.4,23.3c0,0.1,0,0.1,0.1,0.2h0.1c0,0,0,0,0,0.1s0,0.1-0.1,0.1h-1h-0.1c0,0,0,0,0-0.1c0,0,0,0,0.1-0.1
				h0.1c0.1,0,0.1-0.1,0.1-0.2v-1.9h-0.1h-0.1h-0.1v-0.1v-0.1c0,0,0-0.1,0.1-0.1s0.2,0,0.2-0.1s0.1,0,0.2-0.1c0.1,0,0.1,0,0.2-0.1
				h0.1l0,0c0,0,0,0,0.1,0l0,0c0,0,0,0,0,0.1L1115.4,23.3L1115.4,23.3z"/>
			<path class="st47" d="M1115.8,23c0-0.2,0.1-0.3,0.2-0.4c0.1-0.1,0.2-0.2,0.4-0.3c-0.1,0-0.1-0.1-0.2-0.1c-0.1,0-0.1-0.1-0.1-0.1
				s-0.1-0.1-0.1-0.2s0-0.1,0-0.2s0-0.2,0.1-0.3c0-0.1,0.1-0.2,0.2-0.2c0.1-0.1,0.2-0.1,0.3-0.2c0.1-0.1,0.3-0.1,0.4-0.1
				c0.1,0,0.2,0,0.3,0s0.2,0.1,0.3,0.1c0.1,0,0.2,0.1,0.2,0.2c0.1,0.1,0.1,0.2,0.1,0.3c0,0.1,0,0.1,0,0.2s-0.1,0.1-0.1,0.2
				c0,0-0.1,0.1-0.2,0.1c-0.1,0-0.1,0.1-0.2,0.1c0.1,0,0.2,0.1,0.2,0.1c0.1,0,0.1,0.1,0.2,0.2c0.1,0.1,0.1,0.1,0.1,0.2s0,0.1,0,0.2
				s0,0.3-0.1,0.4s-0.1,0.2-0.3,0.3c-0.1,0.1-0.2,0.1-0.4,0.2c-0.1,0-0.3,0.1-0.5,0c-0.1,0-0.2,0-0.3,0s-0.2-0.1-0.3-0.1
				c-0.1,0-0.2-0.1-0.2-0.2C1115.8,23.2,1115.8,23.1,1115.8,23z M1116.6,22.5c0,0-0.1,0-0.1,0.1l-0.1,0.1c0,0,0,0.1-0.1,0.1
				c0,0.1,0,0.1,0,0.2s0,0.1,0,0.2s0.1,0.1,0.1,0.2s0.1,0.1,0.2,0.1c0.1,0,0.1,0,0.2,0c0.1,0,0.1,0,0.2,0c0.1,0,0.1-0.1,0.2-0.1
				s0.1-0.1,0.1-0.1c0-0.1,0-0.1,0-0.2s0-0.2-0.1-0.2c0-0.1-0.1-0.1-0.2-0.1c-0.1,0-0.1-0.1-0.2-0.1
				C1116.8,22.5,1116.7,22.5,1116.6,22.5z M1116.5,21.6c0,0.1,0,0.1,0.1,0.2l0.1,0.1c0.1,0,0.1,0.1,0.2,0.1c0.1,0,0.1,0.1,0.2,0.1
				s0.1-0.1,0.2-0.2c0-0.1,0.1-0.1,0.1-0.2s0-0.1,0-0.2s-0.1-0.1-0.1-0.1l-0.1-0.1c0,0-0.1,0-0.2,0h-0.1c0,0-0.1,0-0.1,0.1l-0.1,0.1
				C1116.5,21.5,1116.5,21.5,1116.5,21.6z"/>
			<path class="st47" d="M1119.2,23.6L1119.2,23.6c-0.1-0.1-0.1-0.1,0-0.2c0,0,0.1,0,0.1-0.1v-0.1l-0.1-0.3c-0.1,0-0.1,0-0.2,0
				c-0.1,0-0.2,0-0.2,0c-0.1,0-0.1-0.1-0.1-0.1v-0.1h0.1h0.1h0.1v-0.1c0-0.1,0-0.1-0.1-0.2c-0.1-0.1,0-0.1-0.1-0.2
				c0-0.1,0-0.1,0-0.1c0,0.1-0.1,0.1-0.1,0.2s-0.1,0.2-0.1,0.4c-0.1,0.2-0.1,0.3-0.1,0.4s0,0.2,0,0.2c0,0.1,0,0.1,0.1,0.1
				c0.1,0,0.1,0.1,0.1,0.1c0,0.1,0,0.1-0.1,0.1h-0.5c0,0,0,0-0.1,0c-0.1,0,0,0,0-0.1c0.1,0,0.1-0.1,0.2-0.1l0.1-0.1
				c0.1-0.3,0.2-0.6,0.3-0.9c0.1-0.3,0.2-0.6,0.3-0.9c0,0,0-0.1,0.1-0.1h0.1h0.1c0,0,0.1,0,0.1,0.1c0.1,0.3,0.2,0.6,0.3,0.9
				c0.1,0.3,0.2,0.6,0.3,0.9c0,0,0,0.1,0.1,0.1l0.1,0.1c0,0,0.1,0,0.1,0.1l0,0c0,0.1,0,0.1-0.1,0.1L1119.2,23.6L1119.2,23.6z"/>
		</g>
	</g>
	<g id="Cima">
		<path class="st45" d="M1103.5,1.6c0.7,2,1.4,4.3,2.1,6.5c1.5,5.3,2.5,11,3.2,16.8c3.4,0.8,5.5,3.4,5.1,9.2
			c-1.2,5.9-3.9,8.1-7.8,7.3l-1.3-0.2l-35.9-7.4c-1.4-9.3,2.7-22.7,6.6-32.3C1080-2.9,1097.5-3,1103.5,1.6z"/>
		<path class="st48" d="M1105.3,7.2c-0.6-1.9-1.2-3.9-1.9-5.6c-6-4.6-23.5-4.5-28.1,0c-0.7,1.7-1.4,3.6-2.1,5.6
			C1084,8.3,1094.6,8.3,1105.3,7.2z"/>
		<ellipse class="st43" cx="1075" cy="45.2" rx="3.1" ry="2.9"/>
		<rect x="1059.4" y="8" class="st49" width="3.1" height="43.9"/>
	</g>
	<g id="Leteral">
		<path class="st42" d="M1043.7,51.9V16c0-9.4,10-13.6,16.2-8v43.9H1043.7z"/>
		<ellipse class="st44" cx="1053.1" cy="12.7" rx="3.8" ry="3.7"/>
		<path class="st50" d="M1046.9,18.3c1.8,1.9,3.9,3.5,8.3,3.3C1050.8,22.6,1048.3,21.3,1046.9,18.3z"/>
		<rect x="1043.7" y="48.1" class="st51" width="16.2" height="3.8"/>
		<g>
			<path class="st52" d="M1083.7,6.1c-0.3,0-0.7,0-1.2-0.1c-0.6-0.1-0.9-0.3-0.9-0.4c0,0,0.1-0.1,0.2-0.2c0.1-0.1,0.2-0.2,0.2-0.3
				V1.7c0-0.1-0.1-0.2-0.2-0.2c-0.2,0-0.2-0.1-0.2-0.2c0-0.2,0.3-0.3,1-0.4c0.5-0.1,0.9-0.1,1.3-0.1c0.9,0,1.6,0.2,2.1,0.7
				s0.8,1.2,0.8,2.1c0,0.8-0.3,1.5-0.9,2C1085.3,5.9,1084.6,6.1,1083.7,6.1z M1083.9,1.2c-0.2,0-0.3,0-0.5,0.1
				c-0.1,0.1-0.2,0.2-0.2,0.4v3.4c0,0.1,0.1,0.3,0.2,0.3c0.1,0.1,0.3,0.1,0.4,0.1c0.5,0,0.9-0.2,1.2-0.6c0.2-0.4,0.4-0.8,0.4-1.4
				c0-0.6-0.1-1.1-0.3-1.5C1084.9,1.5,1084.5,1.2,1083.9,1.2z"/>
			<path class="st52" d="M1087.1,6.1c-0.1,0-0.2-0.1-0.2-0.2c0-0.1,0.1-0.1,0.2-0.2c0.1,0,0.2-0.1,0.2-0.2V2.4
				c0-0.1-0.1-0.2-0.2-0.2s-0.2-0.1-0.2-0.2c0-0.1,0.1-0.2,0.2-0.2h1.5c0.1,0,0.2,0.1,0.2,0.2c0,0.1-0.1,0.1-0.2,0.2
				c-0.1,0-0.2,0.1-0.2,0.2v3.1c0,0.1,0.1,0.2,0.2,0.2s0.2,0.1,0.2,0.2c0,0.1-0.1,0.2-0.2,0.2H1087.1z"/>
			<path class="st52" d="M1092.4,5.2L1092.4,5.2C1092.4,5.2,1092.5,5.2,1092.4,5.2c0.1,0,0.1,0.1,0.1,0.1l0,0v0.1c0,0,0,0,0,0.1
				s-0.1,0.2-0.2,0.3c-0.1,0.1-0.3,0.2-0.5,0.2c-0.2,0-0.3,0.1-0.5,0.1c-0.2,0-0.3,0-0.5,0c-0.3,0-0.6-0.1-0.8-0.2
				c-0.2-0.1-0.4-0.3-0.6-0.5s-0.3-0.4-0.4-0.7c-0.1-0.3-0.1-0.6-0.1-0.9c0-0.3,0-0.6,0.1-0.8s0.2-0.5,0.4-0.7s0.4-0.3,0.6-0.5
				c0.2-0.1,0.5-0.2,0.8-0.2c0.1,0,0.2,0,0.3,0s0.2,0,0.3,0c0.1,0,0.1,0,0.2,0s0.1,0,0.1,0s0.1,0,0.1-0.1s0.1,0,0.1,0
				c0.1,0,0.1,0,0.1,0.1s0.1,0.2,0.1,0.3c0.1,0.1,0.1,0.2,0.1,0.3s0,0.1,0,0.2v0.1c0,0,0,0.1-0.1,0.1h-0.1h-0.1l-0.1-0.1
				c0,0,0,0-0.1,0c0,0,0,0-0.1,0c0,0,0,0-0.1-0.1s-0.2-0.2-0.4-0.2s-0.3-0.1-0.5-0.1s-0.4,0.1-0.5,0.2c-0.1,0.1-0.2,0.3-0.3,0.4
				c-0.1,0.1-0.1,0.4-0.2,0.6c0,0.2-0.1,0.4-0.1,0.6c0,0.2,0,0.4,0.1,0.6c0,0.2,0.1,0.4,0.2,0.5c0.1,0.1,0.2,0.3,0.4,0.4
				c0.2,0.1,0.3,0.1,0.6,0.1c0.1,0,0.1,0,0.2,0h0.1c0,0,0.1,0,0.1-0.1V5.3V4.6c0-0.1-0.1-0.2-0.2-0.2c-0.2,0-0.2-0.1-0.2-0.2
				c0-0.1,0-0.1,0.1-0.1s0.1,0,0.2,0h1.1c0.1,0,0.1,0,0.2,0c0.1,0,0.1,0.1,0.1,0.1c0,0.1-0.1,0.1-0.2,0.2l-0.1,0.1v0.1v0.6H1092.4z"
				/>
			<path class="st52" d="M1096.5,4.8c0,0.2,0,0.4-0.1,0.5c-0.1,0.2-0.2,0.3-0.4,0.4c-0.1,0.1-0.3,0.2-0.5,0.2
				c-0.2,0.1-0.4,0.1-0.6,0.1c-0.4,0-0.7-0.1-1.1-0.3c-0.3-0.2-0.5-0.5-0.5-0.9V2.3c0-0.1-0.1-0.2-0.2-0.2c-0.1,0-0.2-0.1-0.2-0.2
				c0-0.1,0.1-0.2,0.2-0.2h1.4c0.1,0,0.2,0.1,0.2,0.2c0,0.1-0.1,0.1-0.2,0.2c-0.1,0-0.2,0.1-0.2,0.2v2.4c0,0.2,0.1,0.4,0.2,0.6
				c0.1,0.1,0.3,0.2,0.6,0.2c0.3,0,0.5-0.1,0.7-0.2c0.2-0.1,0.2-0.3,0.2-0.6V2.3c0-0.1-0.1-0.2-0.2-0.2c-0.1,0-0.2-0.1-0.2-0.2
				c0-0.1,0.1-0.2,0.2-0.2h1c0.1,0,0.2,0.1,0.2,0.2c0,0.1-0.1,0.1-0.2,0.2c-0.1,0-0.2,0.1-0.2,0.3v2.4H1096.5z"/>
		</g>
		<ellipse class="st50" cx="1053.2" cy="25.6" rx="1" ry="1.3"/>
	</g>
	<g id="Lente">
		<g id="Camada_52">
			<path class="st50" d="M1106.6,24.9c2.5,0.5,5.8,1,6.6,5.9c0.6,3-0.7,5.7-2.4,8.1c-1.4,1.8-3.4,2.3-5.8,1.7L1106.6,24.9z"/>
		</g>
		<ellipse class="st50" cx="1088" cy="30.8" rx="20" ry="21.1"/>
		<ellipse class="st43" cx="1088" cy="30.8" rx="19.4" ry="20.5"/>
		
			<linearGradient id="SVGID_1_" gradientUnits="userSpaceOnUse" x1="1075.8689" y1="30.9311" x2="1100.1311" y2="6.6689" gradientTransform="matrix(1 0 0 -1 0 50)">
			<stop  offset="0" style="stop-color:#2B2B2B"/>
			<stop  offset="0.7704" style="stop-color:#000000"/>
		</linearGradient>
		<ellipse class="st53" cx="1088" cy="31.2" rx="16.7" ry="17.6"/>
		
			<linearGradient id="SVGID_2_" gradientUnits="userSpaceOnUse" x1="1097.3618" y1="7.643" x2="1078.6754" y2="29.9126" gradientTransform="matrix(1 0 0 -1 0 50)">
			<stop  offset="0" style="stop-color:#383838"/>
			<stop  offset="0.7704" style="stop-color:#000000"/>
		</linearGradient>
		<ellipse class="st54" cx="1088" cy="31.2" rx="14.1" ry="14.8"/>
		<ellipse class="st55" cx="1088" cy="31.2" rx="8.9" ry="9.4"/>
		<ellipse class="st50" cx="1088" cy="31.2" rx="7.3" ry="7.7"/>
		<ellipse class="st56" cx="1088" cy="31.2" rx="5" ry="5.3"/>
		<ellipse class="st50" cx="1088" cy="31.2" rx="4" ry="4.2"/>
		<path class="st57" d="M1089.3,21.9c-0.4-0.1-0.9-0.1-1.3-0.1c-4.1,0-7.6,2.9-8.6,6.9l9.1,2.5L1089.3,21.9z"/>
		<ellipse class="st52" cx="1085.6" cy="25.2" rx="1.6" ry="1.7"/>
		<ellipse class="st52" cx="1087.2" cy="28.6" rx="0.5" ry="0.6"/>
	</g>
</g>
<g id="Óculos">
	<path class="st48" d="M1161.4,39.1l-14.8-3.4c-3.9-0.6-6.7,2.1-8.3,8.1c0,2,0.8,3.3,2.3,1.8c1.7-4.6,3.6-8.2,6.5-7.1l13.9,3.3
		l0.4-2.1"/>
	<path class="st48" d="M1222.5,38.5l-14.8-3c-3.9-0.5-6.6,2.3-8.1,8.3c0.1,2,0.9,3.2,2.3,1.7c1.6-4.7,3.4-8.3,6.3-7.3l14,2.9
		l0.4-2.1"/>
	<circle class="st58" cx="1175.9" cy="40.7" r="13.7"/>
	<ellipse class="st59" cx="1175.9" cy="32.6" rx="3.6" ry="3.7"/>
	<path class="st59" d="M1167.1,35.2c3-2.2,6.2,1.1,4.7,4c-0.9,3.1-1.1,6,0.4,8.4c1,1.4-1.4,4.5-3.1,3.3
		C1163.9,47.7,1161.7,40.2,1167.1,35.2z"/>
	<path class="st60" d="M1188.1,39.1c0.1,0.5,0.1,1,0.1,1.5c0,7-5.6,12.6-12.6,12.6c-1.5,0-3-0.3-4.4-0.8
		C1179.2,52.2,1185.7,49.2,1188.1,39.1z"/>
	<circle class="st58" cx="1208.3" cy="40.7" r="13.7"/>
	<ellipse class="st59" cx="1208.3" cy="32.6" rx="3.6" ry="3.7"/>
	<path class="st59" d="M1199.5,35.2c3-2.2,6.2,1.1,4.7,4c-0.9,3.1-1.1,6,0.4,8.4c1,1.4-1.4,4.5-3.1,3.3
		C1196.3,47.7,1194.1,40.2,1199.5,35.2z"/>
	<path class="st60" d="M1220.4,39.1c0.1,0.5,0.1,1,0.1,1.5c0,7-5.6,12.6-12.6,12.6c-1.5,0-3-0.3-4.4-0.8
		C1211.6,52.2,1218.1,49.2,1220.4,39.1z"/>
	<path class="st48" d="M1208.3,25.1c-5.3,0-10,2.6-12.8,6.7c-2.2-0.9-4.4-0.9-6.7,0.1c-2.8-4.1-7.5-6.8-12.9-6.8
		c-8.6,0-15.6,7-15.6,15.6s7,15.6,15.6,15.6c8.6,0,15.6-7,15.6-15.6c0-2.4-0.5-4.6-1.5-6.6c1.3-0.8,2.9-0.8,4.1,0
		c-0.9,2-1.5,4.2-1.5,6.6c0,8.6,7,15.6,15.6,15.6c8.6,0,15.6-7,15.6-15.6C1223.9,32.1,1216.9,25.1,1208.3,25.1z M1175.9,54.4
		c-7.6,0-13.7-6.1-13.7-13.7s6.1-13.7,13.7-13.7s13.7,6.1,13.7,13.7S1183.4,54.4,1175.9,54.4z M1208.3,54.4
		c-7.6,0-13.7-6.1-13.7-13.7s6.1-13.7,13.7-13.7c7.6,0,13.7,6.1,13.7,13.7S1215.8,54.4,1208.3,54.4z"/>
</g>
<g id="coisas_da_estante">
	<g id="Pote">
		<rect x="1054.1" y="138.4" class="st61" width="25.4" height="32.6"/>
		<polygon class="st40" points="1079.5,153.2 1079.5,170.9 1054.1,170.9 1054.1,153.2 1056.1,151.5 1058,153.2 1059.6,151.5 
			1061.3,153.2 1062.9,151.5 1064.4,153.2 1065.9,151.5 1067.5,153.2 1069,151.5 1070.6,153.2 1072.1,151.5 1073.6,153.1 
			1074.9,151.5 1076.4,153.2 1077.9,151.5 		"/>
		<rect x="1054.1" y="138.4" class="st62" width="25.4" height="0.8"/>
		<rect x="1053.3" y="136.6" class="st61" width="27.2" height="1.7"/>
		<path class="st63" d="M1059.7,170h-1.8c-0.7,0-1.3-0.6-1.3-1.3v-27.2c0-0.7,0.6-1.3,1.3-1.3h1.8c0.7,0,1.3,0.6,1.3,1.3v27.2
			C1060.9,169.4,1060.4,170,1059.7,170z"/>
		<rect x="1077.6" y="139.1" class="st64" width="1.9" height="31.8"/>
		<rect x="1055.8" y="129.8" class="st65" width="1.3" height="6.8"/>
		<path class="st66" d="M1056.5,124.1c1,2,1.4,4,0.7,5.7h-1.3C1055.2,128.1,1055.3,126.3,1056.5,124.1z"/>
		<rect x="1055.8" y="129.8" class="st67" width="1.3" height="1.9"/>
		<rect x="1075.8" y="129.8" class="st65" width="1.3" height="6.8"/>
		<path class="st66" d="M1076.4,124.1c1,2,1.4,4,0.7,5.7h-1.3C1075.1,128.1,1075.2,126.3,1076.4,124.1z"/>
		<rect x="1075.8" y="129.8" class="st67" width="1.3" height="1.9"/>
		<rect x="1068.5" y="129.8" class="st65" width="1.3" height="6.8"/>
		<path class="st66" d="M1069.1,124.1c1,2,1.4,4,0.7,5.7h-1.3C1067.8,128.1,1067.9,126.3,1069.1,124.1z"/>
		<rect x="1068.5" y="129.8" class="st67" width="1.3" height="1.9"/>
		<rect x="1060.9" y="129.4" class="st68" width="2.2" height="7.3"/>
		<polygon class="st69" points="1062,125.4 1060.9,129.4 1063.1,129.4 		"/>
		<rect x="1073.8" y="131.1" class="st68" width="2.2" height="5.6"/>
		<polygon class="st69" points="1074.9,127.1 1073.8,131.1 1076,131.1 		"/>
		<rect x="1065.8" y="131.1" class="st66" width="2.2" height="5.6"/>
		<polygon class="st69" points="1066.9,127.1 1065.8,131.1 1068,131.1 		"/>
		<rect x="1056.9" y="131.1" class="st70" width="2.2" height="5.6"/>
		<polygon class="st69" points="1058,127.1 1056.9,131.1 1059.1,131.1 		"/>
		<rect x="1070.9" y="132.7" class="st71" width="2.2" height="3.9"/>
		<polygon class="st69" points="1072,128.8 1070.9,132.7 1073.1,132.7 		"/>
		<rect x="1234.8" y="46.6" class="st68" width="45.9" height="7.3"/>
		<polygon class="st69" points="1221.8,50.3 1234.8,53.9 1234.8,46.6 		"/>
		<path class="st72" d="M1281.6,53.9h3.8c1.5,0,2.8-1.3,2.8-2.8v-1.7c0-1.5-1.3-2.8-2.8-2.8h-3.8c-1.5,0-2.8,1.3-2.8,2.8v1.7
			C1278.8,52.7,1280,53.9,1281.6,53.9z"/>
		<rect x="1276" y="46.6" class="st73" width="5.6" height="7.3"/>
	</g>
	<g id="Instrumento">
		<rect x="1049.8" y="178.3" class="st74" width="37.2" height="89"/>
		<rect x="1049.8" y="178.3" class="st33" width="37.2" height="2.2"/>
		<rect x="1049.8" y="265.1" class="st33" width="37.2" height="2.2"/>
		<rect x="1064" y="206.3" class="st75" width="8.3" height="27.4"/>
		<path class="st33" d="M1069.6,231.8h-2.6c-0.4,0-0.7-0.3-0.7-0.7v-22.3c0-0.4,0.3-0.7,0.7-0.7h2.6c0.4,0,0.7,0.3,0.7,0.7v22.3
			C1070.3,231.5,1070,231.8,1069.6,231.8z"/>
		<path class="st76" d="M1067.5,231.3L1067.5,231.3c0.4,0,0.6-0.2,0.6-0.5v-21.5c0-0.3-0.2-0.5-0.5-0.5h-0.1c-0.3,0-0.5,0.2-0.5,0.5
			v21.5C1067,231.1,1067.2,231.3,1067.5,231.3z"/>
	</g>
	<g id="Lápis">
	</g>
	<g id="Caixas">
		<polygon class="st77" points="1086.9,178.3 1146.9,178.3 1161.2,186 1097.9,186 		"/>
		<rect x="1097.9" y="226.8" class="st78" width="63.2" height="40.6"/>
		<rect x="1097.9" y="265.1" class="st79" width="63.2" height="2.2"/>
		<rect x="1111.1" y="236.4" class="st80" width="37.4" height="21.9"/>
		<polygon class="st45" points="1124.6,240.7 1134.3,240.7 1130,248 1129.5,248 		"/>
		<rect x="1129.5" y="248" class="st45" width="0.6" height="4.2"/>
		<rect x="1126.8" y="252.2" class="st45" width="5.8" height="0.7"/>
		
			<rect x="1108.3" y="235.4" transform="matrix(-0.8025 0.5966 -0.5966 -0.8025 2144.3328 -237.0737)" class="st81" width="6.3" height="1.8"/>
		
			<rect x="1144.8" y="235.4" transform="matrix(-0.6706 -0.7418 0.7418 -0.6706 1742.5463 1246.3126)" class="st81" width="6.3" height="1.8"/>
		
			<rect x="1144.9" y="256.7" transform="matrix(0.6749 -0.7379 0.7379 0.6749 183.1198 930.8781)" class="st81" width="6.3" height="1.8"/>
		
			<rect x="1108.3" y="257.3" transform="matrix(-0.6706 -0.7418 0.7418 -0.6706 1665.3009 1255.7942)" class="st81" width="6.3" height="1.8"/>
		<rect x="1097.9" y="186" class="st78" width="63.2" height="40.6"/>
		<rect x="1097.9" y="224.3" class="st79" width="63.2" height="2.2"/>
		<rect x="1097.9" y="186" class="st79" width="63.2" height="21.2"/>
		<rect x="1097.9" y="186" class="st82" width="62.9" height="20.3"/>
		<polygon class="st83" points="1086.9,258.1 1097.9,267.3 1097.9,226.5 1087.2,218.6 		"/>
		<polygon class="st84" points="1087,255.9 1086.9,258.1 1097.9,267.3 1097.9,265.1 		"/>
		<polygon class="st83" points="1086.9,178.3 1097.9,186 1097.9,226.5 1087.2,218.6 		"/>
		<polygon class="st84" points="1087.1,199.5 1086.9,178.8 1097.9,186.4 1097.9,207.2 1087.1,199.8 		"/>
		<polygon class="st84" points="1097.9,224.3 1097.9,227 1087.2,219 1087.2,216.5 		"/>
		<polygon class="st78" points="1092.4,201 1097.9,186 1086.9,178.3 1087.1,198.9 1091.8,202.1 		"/>
		<polygon class="st85" points="1147.1,178.8 1136.1,186 1158.8,186 		"/>
		<path class="st65" d="M1125.6,186c0-0.1-0.9-2.6-1.8-3.2c-0.5-0.4-1-0.6-1.6-0.8c-2-0.7-4.2-0.7-6.2-1.3c-0.8-0.2-1.7-0.5-2.5-0.5
			c-0.5,0-0.9,0.1-1.4,0.1c-1.5,0.1-3-0.1-4.5,0s-3.1,0.3-4.3,1.2c-2.8,1.4-4.1,2.9-4.4,4.5L1125.6,186"/>
	</g>
	<g id="Livros">
		<rect x="1049.8" y="73.3" class="st37" width="4.7" height="45.3"/>
		<rect x="1049.8" y="76.9" class="st86" width="4.7" height="0.8"/>
		<rect x="1049.8" y="114.3" class="st87" width="4.7" height="0.8"/>
		<rect x="1054.1" y="73.3" class="st88" width="4.7" height="45.3"/>
		<rect x="1054.1" y="76.9" class="st87" width="4.7" height="0.8"/>
		<rect x="1054.1" y="114.3" class="st87" width="4.7" height="0.8"/>
		<rect x="1058.8" y="73.3" class="st61" width="4.7" height="45.3"/>
		<rect x="1058.8" y="76.9" class="st86" width="4.7" height="0.8"/>
		<rect x="1058.8" y="114.3" class="st87" width="4.7" height="0.8"/>
		<rect x="1063.2" y="73.3" class="st89" width="4.7" height="45.3"/>
		<rect x="1063.2" y="76.9" class="st87" width="4.7" height="0.8"/>
		<rect x="1063.2" y="114.3" class="st87" width="4.7" height="0.8"/>
		
			<rect x="1071.9" y="73.3" transform="matrix(-0.9842 0.1772 -0.1772 -0.9842 2148.5427 1.820655e-002)" class="st90" width="4.7" height="45.3"/>
		
			<rect x="1068.6" y="77.1" transform="matrix(-0.9842 0.1772 -0.1772 -0.9842 2138.709 -36.0078)" class="st86" width="4.7" height="0.8"/>
		
			<rect x="1075.2" y="113.9" transform="matrix(-0.9842 0.1772 -0.1772 -0.9842 2158.3264 35.8511)" class="st87" width="4.7" height="0.8"/>
		
			<rect x="1076.2" y="72.5" transform="matrix(-0.9842 0.1772 -0.1772 -0.9842 2156.9248 -2.3278)" class="st66" width="4.7" height="45.3"/>
		
			<rect x="1072.9" y="76.4" transform="matrix(-0.9842 0.1772 -0.1772 -0.9842 2147.1438 -38.1615)" class="st87" width="4.7" height="0.8"/>
		
			<rect x="1079.5" y="113.2" transform="matrix(-0.9842 0.1772 -0.1772 -0.9842 2166.7612 33.6975)" class="st87" width="4.7" height="0.8"/>
		<polygon class="st42" points="1067.9,115.1 1075.9,118.7 1067.9,74.1 		"/>
	</g>
	<g id="Tintas">
		<path class="st88" d="M1091.8,170.9h-9.3c-1.4,0-2.6-1.2-2.6-2.6v-6.8c0-1.4,1.2-2.6,2.6-2.6h9.3c1.4,0,2.6,1.2,2.6,2.6v6.8
			C1094.4,169.8,1093.3,170.9,1091.8,170.9z"/>
		<rect x="1079.9" y="162" class="st91" width="14.5" height="5.9"/>
		<rect x="1082.5" y="156.9" class="st92" width="9.3" height="2.1"/>
		<rect x="1081.6" y="153.6" class="st66" width="11.2" height="3.3"/>
		<path class="st65" d="M1107.9,170.9h-9.3c-1.4,0-2.6-1.2-2.6-2.6v-6.8c0-1.4,1.2-2.6,2.6-2.6h9.3c1.4,0,2.6,1.2,2.6,2.6v6.8
			C1110.5,169.8,1109.4,170.9,1107.9,170.9z"/>
		<rect x="1096" y="162" class="st91" width="14.5" height="5.9"/>
		<rect x="1098.6" y="156.9" class="st93" width="9.3" height="2.1"/>
		<rect x="1097.7" y="153.6" class="st66" width="11.2" height="3.3"/>
		<path class="st68" d="M1101.4,170.9h-9.3c-1.4,0-2.6-1.2-2.6-2.6v-6.8c0-1.4,1.2-2.6,2.6-2.6h9.3c1.4,0,2.6,1.2,2.6,2.6v6.8
			C1104,169.8,1102.9,170.9,1101.4,170.9z"/>
		<rect x="1089.5" y="162" class="st94" width="14.5" height="5.9"/>
		<rect x="1092.1" y="156.9" class="st95" width="9.3" height="2.1"/>
		<rect x="1091.2" y="153.6" class="st66" width="11.2" height="3.3"/>
	</g>
	<g id="Robot">
		<ellipse class="st85" cx="1129.7" cy="167.8" rx="5.7" ry="3"/>
		<path class="st96" d="M1133.2,170.1c-0.9-0.8-1.9-1.6-1.5-2.8c-1.6-0.7-2.9-1.5-3.4-2.5l1.7-0.2l3.4,1.5l0.8,3.6L1133.2,170.1z"/>
		<ellipse class="st85" cx="1127.8" cy="156.7" rx="5.9" ry="7.5"/>
		<path class="st96" d="M1127.8,164.3c-3.4-4.3-4.2-10.6,1.8-14.7l1.8,1.1l-2.6,13.4L1127.8,164.3z"/>
		<ellipse class="st85" cx="1135.5" cy="157.7" rx="9.5" ry="9.6"/>
		<path class="st96" d="M1131.9,166.6c3.6-3.3,6.5-2.6,9.7-1.5l-0.8,0.9l-7.9,1L1131.9,166.6z"/>
		<ellipse class="st85" cx="1137.7" cy="167.8" rx="5.3" ry="3.1"/>
		<path class="st96" d="M1141.9,150.8l-0.8-0.8c-3.9,3.8-4,10.3,0.8,14.8l1.3-1.3L1141.9,150.8z"/>
		<ellipse class="st85" cx="1144.5" cy="156.7" rx="5.6" ry="7.5"/>
		<path class="st96" d="M1141,150.6l0.5-0.2l0.2-0.1l-1.1-0.7l-13.6-0.3C1126.7,151.1,1135.7,155,1141,150.6z"/>
		<ellipse class="st85" cx="1134.7" cy="138.9" rx="12.7" ry="13"/>
		
			<linearGradient id="SVGID_3_" gradientUnits="userSpaceOnUse" x1="1124.0359" y1="-83.0526" x2="1138.6018" y2="-97.6186" gradientTransform="matrix(1 0 0 -1 0 50)">
			<stop  offset="0" style="stop-color:#2B2B2B"/>
			<stop  offset="0.7704" style="stop-color:#000000"/>
		</linearGradient>
		<path class="st97" d="M1124.3,146.5c-1.5-2.1-2.4-4.7-2.4-7.6c0-1.6,0.3-3.2,0.8-4.7c7.6-3.9,16.9-1.4,20.8,6.1
			C1141.8,149.3,1129.3,150.7,1124.3,146.5z"/>
		<ellipse class="st98" cx="1125" cy="140.1" rx="1.7" ry="1.7"/>
		<ellipse class="st99" cx="1136.4" cy="166.5" rx="1" ry="0.9"/>
		<ellipse class="st100" cx="1136.7" cy="134.2" rx="4.6" ry="4.8"/>
		<ellipse class="st98" cx="1133.7" cy="140.6" rx="1.7" ry="1.7"/>
	</g>
	<g id="Roupas">
		<path class="st101" d="M1104.5,91.1c-2.2-2.4-1.4-5,3.5-8c3.7-1.5,7.9-2,12.8-1.5c4.4,0.1,8.7,0.1,11.9-1.1
			c6.4-1.3,16.3-1.6,18.3,3.1c2.5,4.2,1.7,6.2-0.3,7.5H1104.5L1104.5,91.1"/>
		<path class="st102" d="M1104.5,91.1L1104.5,91.1h46.2c1.2-0.8,2-2,1.7-3.8c-4.4-0.8-9.2-0.8-14.7,0.8c-3.4-0.4-6.9-0.3-10.2,0.8
			h-0.6c-5,0.6-17.1-2.3-23.4,0.6C1103.5,90.2,1103.7,90.7,1104.5,91.1L1104.5,91.1"/>
		<path class="st102" d="M1152,87.3"/>
		<path class="st103" d="M1103,97.1c-1.2-0.5-1.5-2.1-1.1-3.2c0.4-1.2,1.5-2,2.5-2.8c0.4-0.3,0.8-0.6,1.3-0.8
			c0.5-0.2,0.9-0.2,1.4-0.3c4-0.5,8-0.5,12,0c2,0.2,4,0.6,6,0.6c3,0,5.9-0.8,8.9-0.7c1,0,2.1,0.2,3.1,0c0.8-0.1,1.6-0.5,2.4-0.7
			c2-0.6,4.2-0.6,6.4-0.5c2.1,0,3.9,0.8,5.7,1.9c1.4,0.8,2.5,1.7,1.8,4.1c-0.5,2-3.7,2.6-7.9,2.7c-0.8,0-1.5,0.4-2.2,0.5
			c-1,0.1-1.9,0.1-2.9,0.1c-5.6,0.1-11,1.9-16.6,2.1c-2.9,0.1-5.8-0.2-8.6-0.6c-3.6-0.4-7.2-0.8-10.8-1.3
			C1103.8,98.1,1102.9,97.7,1103,97.1"/>
		<path class="st104" d="M1153.8,93.8c0,0.3-0.1,0.5-0.2,0.8c-0.5,2-3.7,2.6-7.9,2.7c-0.8,0-1.5,0.4-2.2,0.5c-1,0.1-1.9,0.1-2.9,0.1
			c-5.6,0.1-11,1.9-16.6,2.1c-2.9,0.1-5.8-0.2-8.6-0.6c-3.6-0.4-7.2-0.8-10.8-1.3c-0.7-0.1-1.6-0.5-1.4-1.1
			c4.4-1.7,8.1-0.8,12.1-0.6c5.8,0.3,11.8,1.1,16.8-1.3l-1.1,1.3c7.4-0.9,15.8-2.7,21.1-1.8C1152.7,94.9,1153.4,94.8,1153.8,93.8z"
			/>
		<path class="st71" d="M1135.2,96.3c-7.5,1.2-14.9,1.9-21.2,0.5c-12.8-1-15.7,2.9-12.1,7.8l19.5,3.3l29.3-1.4l2.5-2.3
			c1.7-2.6,3.5-7.3-0.7-8.9C1147,94.9,1141.3,95.1,1135.2,96.3z"/>
		<path class="st105" d="M1154,102.9c-0.2,0.5-0.5,0.9-0.8,1.3l-2.5,2.3l-29.3,1.4l-19.5-3.3c-0.3-0.4-0.6-0.9-0.8-1.3
			c2.3-0.4,3.9-1.3,10.3,0.5c2.1,1.1,4.5,0.7,7.4-1.1l-0.3,1.1c12.3-1.1,14.9-0.2,20.9,0c3.1-0.1,6.2-0.4,8.5,0.5
			C1149.9,102.8,1151.9,102.2,1154,102.9z"/>
		<path class="st40" d="M1099.4,114.8c-4-1.8-3.9-4.9,2.5-10c2.2-1,5.5-0.5,9.2,0.8c1.8,0.7,3.9,0.8,7.2-0.7
			c4.6-1.2,11.1-1.3,19-0.6c4.8,0.1,9,0.3,10.6,1.4c3.7-1.4,7.1-2.4,7.2,1.2c0.1,4.2-1.7,7.1-7.9,7.3L1099.4,114.8z"/>
		<path class="st45" d="M1152.5,112.7c-1.2,0.8-3,1.3-5.4,1.3l-47.7,0.8c-0.9-0.4-1.5-0.8-2-1.4c6.8,0.4,13.6,0.5,20.8,0l7.7-0.7
			l-1.2,0.8C1137.2,113.6,1148.9,113.6,1152.5,112.7z"/>
		<path class="st45" d="M1147.9,105.6l-2.8,1l0.5-1l-4.3-1.2C1143.7,104.5,1146.2,104.6,1147.9,105.6z"/>
		<path class="st106" d="M1144.3,114h-37.6c-13.9,0-18.9,10-19.8,24.5v2.9c0,1.2,26.1,2.2,26.4,0c3.4-10.5,4.4-20.5,14.4-22.9h25.9
			C1156.4,116,1153.6,113.6,1144.3,114z"/>
		<path class="st65" d="M1116.1,132.2l0.6-1.7c-10.4,0.1-20.2-0.1-28.5-0.8l-0.4,1.7C1087.8,131.3,1105.7,131.9,1116.1,132.2z"/>
		<path class="st65" d="M1120.4,123c-10.4-0.2-20.2-0.6-29.1-1.2l-0.7,1.2c11.7,0.8,21.6,1.1,29,1.1L1120.4,123z"/>
		<path class="st65" d="M1133.7,114c3.1,1.6,5.9,3.1,6.6,4.5h1.5c-1-1.3-2.1-2.7-6.3-4.5H1133.7z"/>
		<path class="st65" d="M1122,114c3.5,1.5,6,3,7.5,4.5h2.4c-1.2-1.7-4-3.1-7.2-4.5H1122z"/>
		<path class="st106" d="M1086.9,151.3V141l1.5,0.5C1088.9,149.3,1088.4,152.5,1086.9,151.3z"/>
		<path class="st106" d="M1089.9,152.4l-0.3-11h1.5C1091.1,152,1090.3,153.5,1089.9,152.4z"/>
		<path class="st106" d="M1091.8,141.4v10.1c0.2,0.5,0.4,0.8,0.8,0v-9.7L1091.8,141.4z"/>
		<path class="st106" d="M1095.1,141.8v10c0.6,0.8,1-0.4,0.8-10H1095.1z"/>
		<path class="st106" d="M1096.9,141.8v10.5c0.6,0.8,1-0.6,0.8-10.5H1096.9z"/>
		<path class="st106" d="M1098.9,142v10.4c0.9,1.1,1.2-2.2,0.9-10.4H1098.9z"/>
		<path class="st106" d="M1101.9,142c0.1,12.6-0.7,11.5-1,10.7l0.4-10.7H1101.9z"/>
		<path class="st106" d="M1103.1,142l-0.2,10.7c0.1,0.7,0.8,1.6,0.8-11L1103.1,142z"/>
		<path class="st106" d="M1104.5,142l-0.2,10.4c0.8,1.3,1-3.4,0.9-10.4H1104.5z"/>
		<path class="st106" d="M1106.3,142v10.4c0.2,1.4,1.2-3.7,0.5-10.4H1106.3z"/>
		<path class="st106" d="M1107.9,152.2l-0.3-10.2l0.8-0.3C1108.9,147.4,1108.6,152.2,1107.9,152.2z"/>
		<path class="st106" d="M1109.9,141.8c0.5,4.2,0.5,11.3-0.3,10.2l-0.3-10.2H1109.9z"/>
		<path class="st106" d="M1111.1,141.8v10.3c0.4,3.1,0.7-3.2,0.6-10.3H1111.1z"/>
		<path class="st106" d="M1112.6,141.4v11.2c0.7,0.9,0.9-6.8,0.7-11.2H1112.6z"/>
		<path class="st106" d="M1093.6,151.3c0.3,0.7,0.5,0.7,0.8,0l-0.1-9.3L1093.6,151.3z"/>
	</g>
</g>
<g id="PortaRetratos">
	<polygon class="st48" points="1473.3,54.6 1373.4,54.6 1367.3,-10 1466.1,-10 	"/>
	<linearGradient id="SVGID_4_" gradientUnits="userSpaceOnUse" x1="1420.25" y1="50.2" x2="1420.25" y2="-4.8844">
		<stop  offset="0.2092" style="stop-color:#FFBE15"/>
		<stop  offset="0.9337" style="stop-color:#945F00"/>
	</linearGradient>
	<polygon class="st107" points="1461.5,-4.9 1372.5,-4.9 1377.7,50.2 1468,50.2 	"/>
	<path class="st108" d="M1376,32.3c3,2.7,7.4,4.4,12.1,5.8l37.3,0.7c3-0.3,5.6-1.5,7.3-4.8c1.6-1.8,3.4-2.8,5.6,0.2
		c1.7,1.4,3.3,3.1,6.6,2.4c7.6-4.6,14.7-6.6,20-0.5l1.7,2.3l1.4,11.8h-90.3L1376,32.3z"/>
	<path class="st109" d="M1376.7,39.2c4.2-0.5,7.5-2,9-5.5l35.6-3.2c3.9,1.8,8,3,10.7,6.5c2.7,2.5,5.5,3.6,8.8-5.1
		c0.8-3.2,5.7-3.9,8.8,2.9c1.8,2.5,3.7,5,10.9,2.4c2.1-1,4.1-2.7,5.3-6.9l2.3,19.8h-90.3L1376.7,39.2z"/>
	<path class="st110" d="M1377.2,44.6h7.8v-5.3h-1.6l1.6-1.9V25.6l-1.2-0.6v-4.5l3.4-4.8l1.7,1.8V14l-1.8-1.2l-0.2-2.9l4-4.8l4.2,4.7
		v2.9l-1.6,1.2l-0.2,3.7h1.3v0.6h1v-0.6l0.7-0.2v-1.7h2.8v-4.1l-1.7-0.8l-0.3-5.8l4.8-5.7l5.7,5.6v5.8l-1.8,1.3l0.1,3.5l2.8,3.7
		l1.8,0.1v1.2h1.3v-1.1l1.8,0.1v-5.4l-1.8-1.7l-0.1-5.2l5.3-5.4l4.8,5.3V13l-1.4,1.5l0,4.8l4.2,4.5v4.4l-2.1,1.3V32l1.8-0.1
		l-0.1,0.7l1,0.2v-0.8l1.3,0.1v0.7l4.9,6.2l-2.3,0.1v3.6l5.9-0.1l0.7-1.4c-2.7,0.3-2.3-1.9,0-3.9c2.1,1.9,2.8,3.4,0.9,4
		c-0.4,0.5,0.2,0.9,1.1,1.3l17.7,0.7v-1.5c-2.2-0.4-3.5-4.5,0-4.7c4.1,0.3,3.9,4.3,0.8,4.7l0.2,1.6l6,0.6l5-0.2l0.8,6.5h-90.3
		L1377.2,44.6z"/>
	<path class="st111" d="M1439.6,5.3c-1.5-0.1-3-0.1-4.5,0.1c-0.9,0.1-2,0.6-1.8,1.5c-1.1,0-2.1,0.8-2.3,1.8
		c-0.3,1.6,1.1,3.1,2.7,3.6c1.5,0.5,3.2,0.3,4.8,0.6c0.7,0.1,1.4,0.3,2.2,0.4c2.4,0.3,4.8-0.6,7-1.4c0.4-0.1,0.8-0.3,1.1-0.4
		c0.2-0.1,0.5-0.2,0.7-0.3c0.2-0.2,0.4-0.4,0.6-0.6c0.5-0.7,0.8-1.4,0.9-2.2c-0.9-0.5-1.9-0.7-2.9-0.6c0.1-0.9-0.7-1.9-1.7-1.8
		c-0.4,0-0.8,0.2-1.1,0.1c-0.2-0.1-0.4-0.3-0.6-0.5c-1.4-1.1-3.9,0.7-5.1-0.5"/>
	<path class="st111" d="M1389.5-0.6c-0.6,0-1.3,0-1.9,0.2c-0.6,0.3-1,0.9-0.9,1.6c-0.9-0.2-2.2-0.4-2.6,0.5
		c-0.2,0.3-0.2,0.7-0.4,0.9c-0.5,0.5-1.6,0.1-1.8,0.8c-0.1,0.4,0.2,0.7,0.6,0.9c1.5,0.8,3.4-0.1,5.1,0c1,0,2,0.3,2.9,0.2
		c0.7-0.1,1.3-0.4,2-0.6c1.9-0.6,3.9-0.6,5.8-0.7c0.2,0,0.4,0,0.5-0.2c0.1-0.1,0.1-0.3,0.1-0.4c-0.1-0.8-0.7-1.4-1.4-1.6
		c-0.6-0.1-1.2,0-1.7-0.1c-0.4-0.1-0.8-0.5-1.1-0.8c-1.5-1.1-3.6-1.2-5.1-0.2c-0.1-0.2-0.1-0.4-0.2-0.6"/>
	<path class="st111" d="M1436.9,23c-1.3-0.3-2.6-0.5-3.9-0.2c-1.3,0.3-2.5,1-3,2.2c-0.2,0.4-0.3,0.9-0.7,1c-0.2,0.1-0.5,0.1-0.6,0.3
		c1,0.7,2.4,0.8,3.6,0.8c1.3,0,2.5,0,3.8-0.3c0.4-0.1,0.8-0.3,1.2-0.3c0.6-0.1,1.3,0,1.9,0c0.6,0,1.3-0.1,1.7-0.6
		c0.1-0.1,0.2-0.3,0.2-0.5c0-0.2-0.2-0.3-0.4-0.4c-1.2-0.7-2.5-1.3-3.9-1.6c-0.2,0-0.3-0.1-0.4-0.2c-0.1-0.1,0-0.4,0.2-0.4"/>
	<polygon class="st112" points="1425.8,-4.9 1377.7,50.2 1438.1,50.2 1464.1,17.3 1461.5,-4.9 	"/>
	<polygon class="st113" points="1369.5,54 1370.4,54.3 1373.4,54.6 1367.3,-10 1363.4,-10 	"/>
</g>
<g id="Prateleira">
	<polygon class="st23" points="1030.1,-68.5 974.3,-86.7 1150.3,-86.7 1200.1,-88.5 1200.1,-101.5 1255,-68.5 	"/>
	<rect x="1000.8" y="-101.5" class="st28" width="199.3" height="13"/>
	<polygon class="st114" points="1000.8,-101.5 974.3,-98.5 974.3,-86.7 1000.8,-88.5 	"/>
	<polygon class="st115" points="1200.1,-88.5 1150.3,-86.7 974.3,-86.7 1000.8,-88.5 	"/>
</g>
<g id="Livros_1_">
	<rect x="1271.7" y="-158" class="st116" width="61.1" height="10.4"/>
	<rect x="1273.6" y="-156.9" class="st117" width="57.8" height="8.2"/>
	<rect x="1271.7" y="-171.6" class="st118" width="61.1" height="13.6"/>
	<rect x="1271.7" y="-170.1" class="st2" width="61.1" height="10.7"/>
	<path class="st119" d="M1275.1-168c8.6,1,18,1,28.2,0H1275.1z"/>
	<path class="st119" d="M1295.3-163.7c10.7-0.6,21.2-0.8,31.6,0H1295.3z"/>
	<path class="st119" d="M1298.7-160.9c-8-0.9-16.5-0.7-25.4,0H1298.7z"/>
	<rect x="1273.6" y="-177.6" class="st120" width="55.8" height="6"/>
	<rect x="1273.6" y="-183.3" class="st121" width="55.8" height="5.6"/>
	<rect x="1276.8" y="-181.9" class="st122" width="7.3" height="9"/>
	<rect x="1271.7" y="-186.1" class="st123" width="61.1" height="2.9"/>
	<rect x="1271.7" y="-189.1" class="st124" width="61.1" height="3"/>
	<ellipse class="st125" cx="1283.7" cy="-186.1" rx="2.1" ry="1.8"/>
	<ellipse class="st121" cx="1289.5" cy="-186.1" rx="2.1" ry="1.8"/>
	<ellipse class="st2" cx="1295.7" cy="-186.1" rx="2.1" ry="1.8"/>
	<ellipse class="st118" cx="1301.1" cy="-186.1" rx="2.1" ry="1.8"/>
	<ellipse class="st126" cx="1306.6" cy="-186.1" rx="2.1" ry="1.8"/>
	<ellipse class="st127" cx="1311.8" cy="-186.1" rx="2.1" ry="1.8"/>
	<ellipse class="st128" cx="1317.3" cy="-186.1" rx="2.1" ry="1.8"/>
	<polygon class="st129" points="1249.9,-154.6 1271.7,-158 1271.7,-147.6 1249.9,-144.5 	"/>
	<polygon class="st130" points="1270.8,-157.3 1270.8,-148.8 1249.9,-145.4 1249.9,-153.8 	"/>
	<polygon class="st131" points="1249.9,-167.6 1271.7,-171.6 1271.7,-158 1249.9,-154.6 	"/>
	<path class="st130" d="M1250.8-166.8c-0.6,3.7-0.3,7.3,0,10.9l20.9-3.6v-10.7L1250.8-166.8z"/>
	<polygon class="st132" points="1253.7,-179.3 1273.6,-183.3 1273.6,-171.6 1271.7,-171.6 1253.7,-168.3 	"/>
	<polygon class="st133" points="1254.3,-185.4 1271.7,-189.1 1271.7,-183.3 1271.7,-182.9 1254.3,-179.4 	"/>
	<polygon class="st130" points="1270.8,-188.1 1270.8,-183.5 1254.3,-180.1 1254.3,-184.7 	"/>
	<path class="st130" d="M1272.5-182.2c0.4,3.6,0.6,7.1,0,10.3l-18.8,3.2v-9.9L1272.5-182.2z"/>
</g>
<g id="Relógio">
	<path class="st134" d="M1399.7-181.2c-6.6-0.6-12.2-4.2-16.8-10.3C1390.5-208.8,1409-196.8,1399.7-181.2z"/>
	<path class="st135" d="M1395.5-199.7c1.5,0.5,3,1.4,4.1,2.6c1.1,4.8,0.6,10.1-1.4,15.7c-1.8-0.3-3.6-0.8-5.2-1.6
		C1394.8-188.5,1396.2-194.2,1395.5-199.7z"/>
	<polygon class="st136" points="1391.2,-151.1 1393.8,-146.8 1384.3,-146.8 1384,-148.6 	"/>
	<ellipse class="st120" cx="1376.3" cy="-169.2" rx="24.2" ry="22.9"/>
	<ellipse class="st2" cx="1376.3" cy="-169.2" rx="21.8" ry="20.6"/>
	<rect x="1376.3" y="-185.9" class="st118" width="1.2" height="16.7"/>
	<rect x="1376.3" y="-169.6" class="st118" width="13.2" height="0.9"/>
	<path class="st132" d="M1357.5-188.7c12.4-3.5,16.1-3.6,18.8-3.5c-16.5,1.5-23.8,11.5-24.2,22.9c0,14.1,12.4,21.6,24.2,22.9h-18.8
		C1341.6-155.8,1340.4-179.4,1357.5-188.7z"/>
	<path class="st136" d="M1353.7-150.7c4.2-0.9,8.1-0.4,11.3,2.9l-0.8,2.6h-13.9L1353.7-150.7z"/>
	<path class="st134" d="M1348.9-182.7c6.6-0.6,12.2-4.2,16.8-10.3C1358.2-210.3,1339.6-198.3,1348.9-182.7z"/>
	<path class="st137" d="M1353.1-201.2c-1.5,0.5-3,1.4-4.1,2.6c-1.1,4.8-0.6,10.1,1.4,15.7c1.8-0.3,3.6-0.8,5.2-1.6
		C1353.9-190,1352.4-195.7,1353.1-201.2z"/>
	<rect x="1375.3" y="-195.2" class="st2" width="2.8" height="3.1"/>
	<path class="st120" d="M1378.5-194.4h-3.4c-0.9,0-1.7-0.8-1.7-1.7v-1.6c0-0.9,0.8-1.7,1.7-1.7h3.4c0.9,0,1.7,0.8,1.7,1.7v1.6
		C1380.1-195.2,1379.4-194.4,1378.5-194.4z"/>
</g>
<g id="Perfume">
	<linearGradient id="SVGID_5_" gradientUnits="userSpaceOnUse" x1="1411.75" y1="-146.275" x2="1411.75" y2="-182.7188">
		<stop  offset="0.2092" style="stop-color:#C255C1"/>
		<stop  offset="0.9337" style="stop-color:#7B004F"/>
	</linearGradient>
	<polygon class="st138" points="1406.6,-180.9 1416.9,-182.7 1416.9,-146.3 1406.6,-146.3 	"/>
	<linearGradient id="SVGID_6_" gradientUnits="userSpaceOnUse" x1="1437.4375" y1="-146.275" x2="1437.4375" y2="-182.7188">
		<stop  offset="0.2092" style="stop-color:#F37FFF"/>
		<stop  offset="0.9337" style="stop-color:#940094"/>
	</linearGradient>
	<rect x="1416.9" y="-182.7" class="st139" width="41.1" height="36.4"/>
	<rect x="1414.7" y="-184.7" class="st140" width="46.7" height="39.5"/>
	<rect x="1452.2" y="-184.7" class="st141" width="9.2" height="38.4"/>
	<path class="st142" d="M1426.1-149.3h-3c-1.5,0-2.7-1.2-2.7-2.7v-25c0-1.5,1.2-2.7,2.7-2.7h3c1.5,0,2.7,1.2,2.7,2.7v25
		C1428.8-150.5,1427.5-149.3,1426.1-149.3z"/>
	<polygon class="st131" points="1404.8,-192.1 1406,-192.6 1415.5,-194.3 1415.5,-184.8 1405.2,-182.9 1404.8,-184 	"/>
	<path class="st40" d="M1459.4-184.7h-43.3c-1.1,0-2-0.9-2-2v-5.8c0-1.1,0.9-2,2-2h43.3c1.1,0,2,0.9,2,2v5.8
		C1461.3-185.6,1460.5-184.7,1459.4-184.7z"/>
	<path class="st131" d="M1452.2-184.7h7.2c1.1,0,2-0.9,2-2v-5.8c0-1.1-0.9-2-2-2h-7.2V-184.7z"/>
	<polygon class="st143" points="1405.2,-182.9 1414.7,-184.7 1414.7,-145.2 1405.2,-145.2 	"/>
	<rect x="1438.8" y="-171.6" class="st134" width="16.6" height="4.1"/>
	<rect x="1438.8" y="-167.5" class="st2" width="16.6" height="2"/>
</g>
<g id="Prateleira_2">
	<rect x="1271.7" y="-147.6" class="st28" width="199.3" height="13"/>
	<polygon class="st114" points="1235.7,-142.5 1271.7,-147.6 1271.7,-134.6 1235.7,-130.6 	"/>
	<polygon class="st115" points="1470.9,-134.6 1425.6,-130.6 1235.7,-130.6 1271.7,-134.6 	"/>
	<polygon class="st23" points="1280.4,-117.8 1235.7,-130.6 1425.6,-130.6 1470.9,-134.6 1470.9,-147.6 1530,-117.8 	"/>
</g>
<g id="Potinho">
	<rect x="1085.2" y="-119.1" class="st144" width="37" height="17.6"/>
	<rect x="1085.2" y="-121.2" class="st145" width="37" height="5.4"/>
	<rect x="1085.2" y="-125.6" class="st146" width="37" height="7"/>
	<rect x="1091.1" y="-125.6" class="st147" width="1.5" height="24.1"/>
	<rect x="1114.7" y="-125.6" class="st147" width="1.4" height="24.1"/>
</g>
<g id="PernasMiniEU">
	<path class="st148" d="M1146.9-103.3v-10.5h17.3v10.5h-5c-2.5-8.4-4.9-11.1-6.8,0H1146.9z"/>
	<path class="st149" d="M1143.3-101.5c0.2-1,0.8-1.9,3.7-1.8h5.5v1.8H1143.3z"/>
	<path class="st149" d="M1168.3-101.5c-0.2-1-0.8-1.9-3.7-1.8h-5.5v1.8H1168.3z"/>
</g>
<g id="EoupaEu">
	<polygon class="st150" points="1149.4,-128.4 1149.4,-113.8 1160.8,-113.8 1160.8,-128.7 	"/>
	<path class="st151" d="M1172.7-109c2.1,0.2,2-2.5,1.5-5.7l-2.7,0.9C1171.2-111.6,1171.5-110,1172.7-109z"/>
	<path class="st116" d="M1160-128.1l0.3,16h6.8c0.5-4.1,0.6-8,0-11.3l-0.3-2.7c2.2,4.7,4.8,9.7,4.7,12.5l2.7-0.8
		c-1.3-7.7-3.8-15.3-9-18.1l-6.3,2.4L1160-128.1z"/>
	<path class="st148" d="M1162-120.4c0.6,2.2,1.6,4.2,3.4,5.8C1164.1-116.5,1162.9-118.4,1162-120.4z"/>
	<path class="st148" d="M1171.8-115.7c0.6-0.1,1.2-0.2,1.9-0.6L1171.8-115.7z"/>
	<path class="st148" d="M1166.9-126.2l-0.8-1.4c0.7,3.9,1.1,7.8,1.3,11.6c0.1-2.7,0.1-5.4-0.3-7.6L1166.9-126.2z"/>
	<path class="st151" d="M1138.6-109c-2.1,0.2-2-2.5-1.5-5.7l2.7,0.9C1140.1-111.7,1139.8-110,1138.6-109z"/>
	<path class="st116" d="M1151.3-128.2l-0.3,16h-6.8c-0.5-4.1-0.6-8,0-11.3l0.3-2.7c-2.2,4.7-4.8,9.7-4.7,12.5l-2.7-0.8
		c1.3-7.7,3.8-15.3,9-18.1l6.3,2.4L1151.3-128.2z"/>
	<path class="st148" d="M1149.3-120.5c-0.6,2.2-1.6,4.2-3.4,5.8C1147.3-116.5,1148.4-118.4,1149.3-120.5z"/>
	<path class="st148" d="M1139.6-115.7c-0.6-0.1-1.2-0.2-1.9-0.6L1139.6-115.7z"/>
	<path class="st148" d="M1144.4-126.3l0.8-1.4c-0.7,3.9-1.1,7.8-1.3,11.6c-0.1-2.7-0.1-5.4,0.3-7.6L1144.4-126.3z"/>
</g>
<g id="CachecolEu">
	<path class="st152" d="M1143.3-133.2c2.3,8.1,18.2,10.5,23.1,0.4L1143.3-133.2z"/>
	<path class="st149" d="M1152.2-133.1l-9-0.2c0.6,2.3,2.4,4.2,4.7,5.4L1152.2-133.1"/>
	<path class="st149" d="M1152.2-133.1"/>
	<path class="st149" d="M1158.3-133l8.1,0.1c-1,2.1-2.5,3.6-4.2,4.7L1158.3-133z"/>
	<rect x="1145.7" y="-133" class="st153" width="9.3" height="17.3"/>
	<rect x="1145.7" y="-129.5" class="st149" width="9.3" height="5.7"/>
	<rect x="1145.7" y="-118.2" class="st149" width="9.3" height="2.5"/>
</g>
<g id="MiniEu">
	<path class="st151" d="M1169.9-131.8h-28.7c-5.1,0-9.3-4.2-9.3-9.3v-16.1c0-5.1,4.2-9.3,9.3-9.3h28.7c5.1,0,9.3,4.2,9.3,9.3v16.2
		C1179.2-136,1175-131.8,1169.9-131.8z"/>
	<ellipse class="st149" cx="1146.2" cy="-148.9" rx="2.1" ry="6.4"/>
	<ellipse class="st149" cx="1164.2" cy="-148.9" rx="2.1" ry="6.4"/>
	<path class="st134" d="M1180.5-147.7c0-0.2-0.3-0.1-0.4-0.2c-1.2-3.6-2.8-7.1-4.8-10.3c0.5,3-0.5,6.1-2.7,8.2c-0.5-3.2-2.3-6.2-5-8
		c0.1,3.1-0.4,6.4-2.7,8.5c0-1.3-0.3-2.6-0.7-3.9c-0.2-0.6-0.5-1.3-0.9-1.8c-0.9-1.2-2.5-1.6-3.9-2c-0.4,1-0.3,2.2,0.1,3.2
		s1.1,1.9,1.7,2.8c-2.1,0.4-4.3-0.2-5.9-1.5c-1.6-1.3-2.7-3.4-2.7-5.5c-1.6,0.4-3,1.6-3.7,3.1c-0.8,1.5-0.8,3.3-1.3,4.9
		c-1.6-2.8-2.6-6-2.9-9.2c-1.8,0.6-3.3,2.1-4.2,3.8c-0.9,1.7-1.3,3.7-1.5,5.6c-0.7-2.9-1.3-5.8-1.5-8.7c-1.9,4-4.1,7.9-6.5,11.7
		c-1-4.3-0.2-8.7,0.7-13c1.5-5.3,5.1-8.2,11.3-7.9h26.9c4.9-0.1,9.2,1.4,11.1,9.3c0.3,4.4,0,8.2-0.8,11.1"/>
	<path class="st154" d="M1180.2-147.8c0.9-2.9,1.1-6.7,0.8-11.1c-1.9-7.9-6.2-9.4-11.1-9.3H1143c-6.2-0.3-9.8,2.6-11.3,7.9
		c-0.3,1.3-0.5,2.7-0.8,4c2.8-4.8,5.9-9.5,15.6-9.4c-1.8,0.2-3.1,1.2-3.9,3c3.6-1.4,7.1-2.7,9.3-2.5l-2.5,2l4.8-1.6
		c0.4,1.7,1.1,3.2,2.4,4.6c0.4-1.9,0.8-3.7,2.8-4.7c2,0.8,3.8,1.7,4.2,3.8c0.4-1.2,1.2-2.2-0.3-4.1c3.6,1.2,6.8,2.6,8.1,4.4
		c0.5-1.4,0.9-2.7,0.1-3.6C1180.3-162.4,1181.8-156.1,1180.2-147.8z"/>
	<path class="st155" d="M1150.1-141.1h-11.9c-1.4,0-2.6-1.2-2.6-2.6v-2c0-1.4,1.2-2.6,2.6-2.6h11.9c1.4,0,2.6,1.2,2.6,2.6v2
		C1152.6-142.2,1151.5-141.1,1150.1-141.1z"/>
	<path class="st156" d="M1150.1-141.1h-11.9c-1.4,0-2.6-1.2-2.6-2.6v-2c0-1.4,1.2-2.6,2.6-2.6h11.9c1.4,0,2.6,1.2,2.6,2.6v2
		C1152.6-142.2,1151.5-141.1,1150.1-141.1z"/>
	<ellipse class="st157" cx="1138.7" cy="-146.3" rx="1.1" ry="1"/>
	<path class="st155" d="M1171.7-141.1h-11.9c-1.4,0-2.6-1.2-2.6-2.6v-2c0-1.4,1.2-2.6,2.6-2.6h11.9c1.4,0,2.6,1.2,2.6,2.6v2
		C1174.2-142.2,1173.1-141.1,1171.7-141.1z"/>
	<path class="st156" d="M1171.7-141.1h-11.9c-1.4,0-2.6-1.2-2.6-2.6v-2c0-1.4,1.2-2.6,2.6-2.6h11.9c1.4,0,2.6,1.2,2.6,2.6v2
		C1174.2-142.2,1173.1-141.1,1171.7-141.1z"/>
	<ellipse class="st157" cx="1160.3" cy="-146.3" rx="1.1" ry="1"/>
	<rect x="1152.6" y="-145.7" class="st158" width="4.6" height="0.4"/>
</g>
<g id="Mangas">
	<rect x="1003.2" y="-104.4" class="st159" width="82" height="2.9"/>
	<rect x="1009.6" y="-104.2" class="st160" width="6.7" height="2.7"/>
	<rect x="1003.2" y="-107.2" class="st161" width="82" height="2.9"/>
	<rect x="1009.6" y="-107.2" class="st45" width="6.7" height="2.9"/>
	<rect x="1003.2" y="-110.1" class="st159" width="82" height="2.9"/>
	<rect x="1009.6" y="-109.9" class="st160" width="6.7" height="2.7"/>
	<rect x="1003.2" y="-112.9" class="st161" width="82" height="2.9"/>
	<rect x="1009.6" y="-112.9" class="st45" width="6.7" height="2.9"/>
	<rect x="1003.2" y="-115.8" class="st159" width="82" height="2.9"/>
	<rect x="1009.6" y="-115.6" class="st160" width="6.7" height="2.7"/>
	<rect x="1003.2" y="-118.6" class="st161" width="82" height="2.9"/>
	<rect x="1009.6" y="-118.6" class="st45" width="6.7" height="2.9"/>
	<rect x="1003.2" y="-121.4" class="st159" width="82" height="2.9"/>
	<rect x="1009.6" y="-121.2" class="st160" width="6.7" height="2.7"/>
	<rect x="1003.2" y="-124.1" class="st161" width="82" height="2.9"/>
	<rect x="1009.6" y="-124.1" class="st45" width="6.7" height="2.9"/>
	<rect x="1003.2" y="-127.1" class="st159" width="82" height="2.9"/>
	<rect x="1009.6" y="-126.9" class="st160" width="6.7" height="2.7"/>
	<rect x="1003.2" y="-129.8" class="st161" width="82" height="2.9"/>
	<rect x="1009.6" y="-129.8" class="st45" width="6.7" height="2.9"/>
	<rect x="1003.2" y="-132.8" class="st159" width="82" height="2.9"/>
	<rect x="1009.6" y="-132.6" class="st160" width="6.7" height="2.7"/>
	<rect x="1003.2" y="-135.5" class="st161" width="82" height="2.9"/>
	<rect x="1009.6" y="-135.5" class="st45" width="6.7" height="2.9"/>
	<path class="st162" d="M1010.7-154c-0.1,8.4,4,13.9,13.9,13.9v2.9c-11,0-17.6-5.8-17.6-16.8c0-9.7,2.4-16.9,15.1-17.1v3.6
		C1011.1-167.6,1011.1-161.3,1010.7-154z"/>
	<path class="st163" d="M1019.6-137.6c1.5,0.3,3.2,0.5,5,0.5v-2.9c-1.9,0-3.5-0.2-5-0.6V-137.6z"/>
	<path class="st163" d="M1019-170.9c1-0.1,2-0.2,3.1-0.2v3.6c-1.2,0-2.2,0.1-3.2,0.2L1019-170.9z"/>
	<rect x="1021.7" y="-176.5" class="st162" width="36.3" height="41"/>
	<rect x="1028.1" y="-189.7" class="st65" width="4" height="13.2"/>
	<path class="st66" d="M1030.1-207c2.9,6.1,4.3,11.9,2,17.3h-4C1026.2-194.8,1026.5-200.5,1030.1-207z"/>
	<rect x="1028.1" y="-189.7" class="st67" width="4" height="5.7"/>
	<polygon class="st164" points="976.6,-129.8 1003.2,-135.5 1003.2,-101.5 1000.8,-101.5 976.6,-98.8 	"/>
</g>
<g id="cadeira">
	<g id="junção">
		<path class="st51" d="M962.5,151.3c3.7,8.3,0.7,20.2-3.2,32.6l2.4,11.5L982,204c7.2-26.7,13-52.4,5.5-69L962.5,151.3z"/>
	</g>
	<g id="banco">
		<path class="st165" d="M956.7,189.3c44.1-3.2,53.6,71.3,20.6,89.2L950,256.9L956.7,189.3z"/>
	</g>
	<g id="Cadeira">
		<path class="st165" d="M935.3,5.7C954.8-9,999-3.6,1003.3,57c3.7,72-17.9,101.7-52.3,103.8l-1.7,0.8l-38-113.5L935.3,5.7z"/>
		<path class="st74" d="M927.1,59.7L927.1,59.7c6.4-45,79.4-18.7,50.8,91.5c-7.6,5.9-16.7,8.9-26.9,9.5l-1.7,0.8l-20.8-62.1
			L927.1,59.7L927.1,59.7"/>
		<path class="st165" d="M1110.3-101.7"/>
		<path class="st74" d="M982,114.3c14.1-51.7,9.8-84.1-13-97.2C994,26.3,1000.8,56,982,114.3z"/>
		<path class="st74" d="M950.9,12.9c-5-0.8-9,0.5-12.9,1.9L950.9,12.9z"/>
		<path class="st166" d="M969,136.7c-0.8,1.6-4,3.1-9.6,4.7L969,136.7z"/>
	</g>
</g>
<g id="SaiaTras">
	<path class="st167" d="M966,193.9c15.5,23.8,9.5,53.4,0,70.1l-39.5-43.3l28.8-23.1L966,193.9z"/>
	<path class="st167" d="M1130,136.7"/>
</g>
<g id="camisaTrás">
	<path class="st116" d="M958.4,161.2c1.5-10-0.5-18.6-6.5-25.7c-4.8-38.3-13.3-73.9-26-106.5c-4.4,8.9-11.9,16.5-13.5,25.4
		c-6,29-15,54-25,79c-3.3,9.1-8.2,17.8-11.2,26.9l9.2,5.9l48.6,58.3c14.9-9.2,28.5-18.8,34.3-30.1
		C970.7,188.2,967.2,173.4,958.4,161.2z"/>
	<path class="st129" d="M958.4,161.2c1.5-10-0.5-18.6-6.5-25.7c-4.8-38.3-13.3-73.9-26-106.5c-4.4,8.9-11.9,16.5-13.5,25.4
		c-3,14.3-6.6,27.6-10.8,40.4l13,6.4c2.7-3.1,5.2-6.3,10.5-6.6c-4.4,3.5-6.9,6.5-6.3,8.8c4.7,2.2,8.7,5.7,11.3,12.5
		c-3.9-4.2-7.8-9.6-11.8-7c-3,7.3-4.4,15.3,2.3,26.6c7.1,7.7,16.5,26.8,11,28.2c-9,0.5,3,22.3-2.8,38.4c-1,3.7-3.5,6-10,4.3l15,18
		c14.9-9.2,28.5-18.8,34.3-30.1C970.7,188.2,967.2,173.4,958.4,161.2z"/>
</g>
<g id="Mesa">
	<polygon class="st28" points="591,72.2 792.3,71.1 804,71.1 813.9,71.1 999,290 486,290 486,209 	"/>
	<path class="st28" d="M1214-122.5"/>
</g>
<g id="Camisa">
	<g id="Peito">
		<polygon class="st168" points="829.2,4.5 844,-5.5 880.6,-10.4 893.4,-5.5 893.4,20.5 852.9,51.3 829.2,51.3 825.9,8.3 		"/>
	</g>
	<ellipse id="MousePad" class="st116" cx="711" cy="91.5" rx="48.9" ry="25.8"/>
	<g id="CotoveloTras">
		<path class="st169" d="M789.5,114.3c18.7,6.8,24.4-3.8,20.8-29.1l-14-7l-10.7,6.6L789.5,114.3z"/>
	</g>
	<g id="MangaTras">
		<path class="st129" d="M817.8,7.3c-21.1,18.1-37.7,38.4-44.8,63.5l-1,5.5v4.2c16,5.9,31.1,9.2,44.5,8l9.4-72.8L817.8,7.3"/>
	</g>
	<g id="CamisaTras">
		<path class="st116" d="M913,54c1.6-8.9,9.1-16.5,13.5-25.4c-2.5-6.4-5.2-12.7-8-18.9c-2-11.8-12.1-19.3-32.2-21.6
			c7.9,6.4,6.9,13.7-1.5,21.6c-11.6,9.2-23,18.5-28.2,31.3c-13.5,16.3-38.3-9.5-11.6-46.5c-12.3,4.3-22.3,8.6-27.3,12.8L814.9,40
			c0.1,15.9-1.8,31.3-6.3,46c-5.4,14.7-3.4,26.2,6.3,34.5l61.7,39.4c3.1-9.1,8-17.8,11.2-26.9C898,108,907,83,913,54z"/>
		<path class="st129" d="M926.5,28.6c-2.5-6.4-5.2-12.7-8-18.9c-2-11.8-12.1-19.3-32.2-21.6c7.9,6.4,6.9,13.7-1.5,21.6
			c-11.6,9.2-23,18.5-28.2,31.3c-13.5,16.3-38.3-9.5-11.6-46.5c-12.3,4.3-22.3,8.6-27.3,12.8L814.9,40c0.1,7.1-0.3,14.2-1.1,21.1
			C828.9,81,852,85.5,874,80.8l28,13.7c4.2-12.8,7.9-26.1,10.8-40.4C914.6,45.1,922.1,37.5,926.5,28.6z"/>
		<path class="st170" d="M815.3,37.5l-0.2,2.5c0.1,15.9-1.8,31.3-6.3,46c-5.1,13.8-3.6,24.9,4.7,33c-3.9-9.5-6.3-19.6-1.8-32
			c5-13.2,4.8-28.6,4.8-44l4.7-8.8l-4.7,5.7v-7.7L815.3,37.5z"/>
		<path class="st116" d="M856,48.7c-9.2,6.8-16.4,4.1-22.5-3.5C839.3,49.6,845.6,53.1,856,48.7z"/>
	</g>
	<g id="BraçoTras">
		<path class="st151" d="M757.3,96.8l31-75.4c9.6-6.3,18.6-6.3,26.8,3.6c-5.4,33.6-12.3,64-21.8,89.3
			C779.2,111.8,767.3,105.7,757.3,96.8z"/>
		<path class="st168" d="M763.5,101.8c8.6,6.2,18.5,10.5,29.7,12.5c7.6-20.3,13.6-43.9,18.4-69.8c-7.3,14.6-14.7,28.7-24.9,34.9
			C776.2,87.6,765.8,95.7,763.5,101.8z"/>
	</g>
	<g id="Mão">
		<path class="st151" d="M801.5,112.3c-2-5.2-4.1-9.6-7-12.9c-1.5-14.7-14.2-18-17-9.9c-6.3-0.5-12,0.1-17.3,3.5
			c-5-0.1-8.6,1.5-11.2,8c-2.4,3.5-3.1,6.9-2.5,10.5c-1.2,4.8-1.2,9.3,0.5,13.2c0.4,5.3,3,8.8,7.5,11.5c7.7,5.9,17.9,8.2,30.7,6.8
			l11.3-7.8l6.7-20L801.5,112.3z"/>
		<path class="st168" d="M747.3,126.8c0.9,4.1,3.4,7,7.2,9.4c7.4,5.7,17.1,8,29.2,7c-8.9-1.9-15.6-4.4-17.1-8
			c-0.1,1.8-0.5,4,1.3,4.5C760.4,138.1,753.5,134,747.3,126.8z"/>
		<path class="st171" d="M794.4,98.4c-1.9-13.9-14.2-16.8-16.9-8.9c-6.3-0.5-12,0.1-17.3,3.5c-5-0.1-8.6,1.5-11.2,8
			c-2.4,3.5-3.1,6.9-2.5,10.5c-0.8,3.3-1.1,6.5-0.6,9.3c0.7-3.6,1.4-7.1,2.4-9.2c-0.2-3.5,0.1-6.8,2-9.8c2.4-4.3,5.4-7.8,10.6-7.9
			c5.1-1.8,10.5-3.4,17.6-3.4C781,82.6,789.3,85.2,794.4,98.4z"/>
	</g>
	<g id="Braço">
		<path class="st168" d="M853.3,114.3l-3.4,8.9l12.4,39.6l0.5,17.5c13.7,4,20.3,6,28.2-8.5c6.6-13.7,10.5-29,12-45.7L853.3,114.3z"
			/>
		<path class="st151" d="M862.8,180.3c-17.4-1-35.2-11.4-52.9-20.9c-7.4-7.7-15.6-13.2-24.7-16.4c0.6-11.9,5.8-22.2,16.3-30.7
			c4.4,4.4,12.1,6.7,22.8,7.3c26.2,0.2,44.5,4.5,56.2,12.3C884.8,152.1,878.3,168,862.8,180.3z"/>
		<path class="st168" d="M830.3,170.2c10.9,5.4,21.8,9.5,32.5,10.1c15.8-9.2,29.1-33.7,17.7-48.3c-8.9-6-21.8-9.9-39.1-11.5
			c18.2,4.8,29,13.5,30.4,25.9C870,181.5,845,174.7,830.3,170.2z"/>
		<path class="st169" d="M879.7,131.5c-8.3-5.3-19.7-8.9-34.8-10.6C854.3,122.4,865.9,125.9,879.7,131.5z"/>
	</g>
	<g id="Manga">
		<path class="st116" d="M890.6,15.7c-16.5,2.4-24.3,20.1-29.3,42.5c-6.2,8.6-9.9,16.5-11.1,23.6c-5.4,9-9.3,17.4-8.9,23.9v2.9
			c18.2,14.6,43,21.3,71.6,23.4c3.7-10,6.3-20.6,4.8-34c7.1-14.5,12.7-30.1,9.8-52.3l-1.1-13.5C921.1,21.1,908.4,16.2,890.6,15.7z"
			/>
		<path class="st129" d="M928.1,51.2c-0.1-1.8-0.3-3.6-0.6-5.5l-1.1-13.5c-5.4-11.1-18.1-16-35.9-16.6C874,18,866.2,35.7,861.2,58.1
			c-2,2.8-3.8,5.5-5.3,8.2C876.5,40.5,908.6,30,928.1,51.2z"/>
		<path class="st172" d="M868.6,35.2c-3,6.6-5.3,14.4-7.2,23c-6.2,8.6-9.9,16.5-11.1,23.6c-5.4,9-9.3,17.4-8.9,23.9v2.9
			c4.1,3.3,8.6,6.2,13.4,8.8l-11.5-9.5c2.9-12.1,6.2-24,16.9-31.6c-2.6,0.4-5.3,1.5-7.9,4.1c3.8-9.7,8.8-18.8,16.4-26.5l-5.4,3.6
			c1-4,2.1-7.8,3.3-11.4L868.6,35.2z"/>
		<path class="st170" d="M927.1,40l0.5,5.7c2.9,22.2-2.8,37.8-9.8,52.3c1.5,13.4-1.2,24-4.8,34c-2.6-0.2-5.2-0.4-7.7-0.7l5.5-1.2
			c4.7-12.7,5.9-25.6,3.3-38.8l2.8,5C923.2,81.9,927,63.6,927.1,40z"/>
		<path class="st170" d="M900.3,61c4.8,7.3,8,14.7,8.4,22.4C908.7,74.9,906.2,67.3,900.3,61z"/>
		<path class="st129" d="M852.5,103.5c16.1,9.3,33.9,15.6,54.4,17.8C883.7,120.9,866.1,114.5,852.5,103.5z"/>
		<path class="st116" d="M885.3,25.3c9.8-2.8,19.6-4.4,29.8,0C905.9,23.8,896.2,23.2,885.3,25.3z"/>
	</g>
	<g id="CabeloSobreOmbro">
		<path class="st173" d="M820.8-24.8c2.9,10.4-1.9,21.1-2.4,31.7l5.3-3.1c-0.5,3.4,0.6,6.6,1.7,9.9c1.8-10.3,9.4-14.6,17.5-18.3
			l7.5-13.1l-13.8-21.7L820.8-24.8z"/>
		<path class="st42" d="M840-3.2c-7,3.4-13.1,7.8-14.7,16.9c-1.1-3.3-2.2-6.5-1.7-9.9l-5.3,3.1c0.4-8.3,3.5-16.8,3.4-25
			c0.3,7.1,0.9,15-0.5,18.7V2l5.7-2.8c-1.3,1.9-1.5,3.8,0,5.6C829.9,0.5,835.3-1,840-3.2z"/>
	</g>
	<g id="Pescoço">
		<path class="st168" d="M817.8-19.9c6-1.9,11.6-2.4,16.2,1.5c8.4,10.2,15,22,19.9,35.3c12.8-5,22.4-13.3,30.1-23.8l2.3-5L874-39.2
			l-10.1-6.3L849-53.2l-19.3,16.3L817.8-19.9z"/>
		<path class="st169" d="M852.1-51.6l-3.1-1.6l-19.3,16.3l-11.8,17c6-1.9,11.6-2.4,16.2,1.5c8,9.6,14.2,20.7,19,33
			c-3.8-11.7-9.4-22.9-17.9-33.1c-3.1-2.2,10.9-8,15.3-15.8C855.9-40.1,855.7-45.9,852.1-51.6z"/>
	</g>
	<g id="CabeloCostas">
	</g>
</g>
<g id="Eliza">
	<g id="Cabeça">
		<g id="CabeloCimaOmbro">
			<path class="st173" d="M956.7,103.5c-2.8-4.3-4.7-8.7-3-13.5c1.7-8.7,2.3-16.5,0.5-22.7c5.3-27.5-9.5-53.7-25.8-79.7
				c-5.5-8.5-9.2-18.8-12-29.9c-7.3-30.3-15-58.2-24.6-74c-22-30.6-55.3-36.5-82.2-22.3c-16.7,8.1-21.9,21.3-14.9,28.9l66.7,62.4
				c0.8,3.9,1.3,7.7,1,10.9l-6.2,18.1c-3.6,9.6-4,18.6-1.1,26.9c3.4,8.6,7.3,22.1,29.9,11.3c7.5-4,13.9-4.2,19.5-1.4
				c-7.1-7.8-16.7-7.8-27.9-3c-10.5,7.3-20.9-11.9-16.5-28c1.3-4.5,5.6-12.9,6.6-19.6l0.7,2.2c1.9,5.8,2.2,11.5,1.6,17.3
				c-0.2,15.2,4.7,21.5,12.7,22.3c3.5,1.2,8.4,0,15.4-4.7c7.9-1.6,14,2.5,19.8,7.3c11.6,14.9,11.8,37.2,9,61.5
				c0.9,16.3,6.4,24.9,16.7,25.6c2,1.1,4.5,4,9.6,5.2l-2.2-5.2C951.5,102.6,953.8,103.8,956.7,103.5z"/>
			<path class="st42" d="M954.8,83.1c-0.3,2.2-0.7,4.5-1.1,6.9c-1.7,4.8,0.2,9.2,3,13.5c-2.9,0.3-5.2-0.9-6.7-4l2.2,5.2
				c-5.2-1.2-7.7-4.2-9.6-5.2c-8-0.6-13.2-5.9-15.5-16.1c2.8,4.6,5.3,9.3,13.2,11.1c-2.2-2.4-3-6.1-2.2-11.1
				c1.3,5.6,2,11.6,7.7,13.9l2.6-7l1.8,4.2C949.4,90.6,951,86.9,954.8,83.1z"/>
			<path class="st42" d="M927.3,47.6c-0.4-13.8-3.2-26-10.5-35.3C911,7.4,904.9,3.4,897,5c-7,4.7-11.9,5.9-15.4,4.7
				c-5.1-0.5-9-3.3-11-9.1l6.7,3.8l-1.1-16.2l1.1-2.9l3.3,4.3c0-0.5,0-0.9,0-1.4c-3.3-2.9-1.8-12.1,2.7-22.3
				c7.4-20.1,2.6-41.4-4.5-60.2c4,10.8,8.8,21.5,9.9,33c7,4,17.6,3.7,18.4-16.4c3.2,11,6.3,23,9.3,35.4c2.8,11.1,6.5,21.4,12,29.9
				c12.4,19.9,24,39.8,26.4,60.4c-1.4-5.3-3.1-10.4-8.8-12.7c2,5.4,2.5,11.1,0.3,17.3c-2-7.3-4.4-14.2-8.2-18.8
				c0.3,4.3,0.5,8.8-1,15.1c-0.8-5.6-1.7-11.2-2.8-13.6l-2.5,9.9c0.8-4.9,0.6-9-3.4-9.6L927.3,47.6z"/>
			<path class="st51" d="M883.6-4.5c-3.7-7.2-2.7-16.2,0.5-26c6.3,6.2,12.6,12.5,22.1,12.5c6.9-3.2,8.7-12.5,10.9-21.3
				c2.7,10,6.2,19.2,11.2,27c3.3,5.3,6.6,10.7,9.7,16c-8-6.6-9-3.6-6.8,3.6c-7.9-11.4-10.8-3.9-13.4,6.5c-0.3-0.5-0.7-1-1.1-1.4
				c-5.8-4.9-11.9-8.9-19.8-7.3c-7,4.7-11.9,5.9-15.4,4.7c-1-0.1-2-0.3-2.9-0.6l-1.4-15.3v-8.5L883.6-4.5z"/>
			<path class="st174" d="M906.2-80.6c-4.4-14.5-9.1-26.9-14.5-35.7c-22-30.6-55.3-36.5-82.2-22.3c-5.2,2.5-9.3,5.5-12.2,8.7
				c27.2-12.2,55.8-14.2,78.1,7l1.9,2.5l-4,1.3c6.7,1.5,13.6,1.9,18.2,14.8c1,3.9,1.8,7.9,5.7,9.7C900.4-93.5,903.4-88.1,906.2-80.6
				z"/>
			<ellipse class="st174" cx="866.7" cy="-120.5" rx="0.6" ry="0.8"/>
			<ellipse class="st174" cx="860.7" cy="-120.9" rx="0.7" ry="0.4"/>
			<ellipse class="st174" cx="854.3" cy="-121.3" rx="0" ry="0.4"/>
			<ellipse class="st174" cx="847.4" cy="-121.9" rx="0.4" ry="0.6"/>
			<ellipse class="st174" cx="841.2" cy="-122.5" rx="0" ry="0.3"/>
			<path class="st42" d="M861.3-33.4l-5.2,15.2c-3.6,9.6-4,18.6-1.1,26.9c3.4,8.6,7.3,22.1,29.9,11.3c7.5-4,13.9-4.2,19.5-1.4
				c-7.1-7.8-16.7-7.8-27.9-3c-10.5,7.3-20.9-11.9-16.5-28c1.3-4.5,5.6-12.9,6.6-19.6l0.7,2.2c1.9,5.8,2.2,11.5,1.6,17.3
				c-0.2,15.8,5,21.9,13.5,22.4c-4.5-5.2-4.7-14.3-5.2-23.3c0.7,4.1,3,7,6.3,9c-3.8-7.3-2.6-16.3,0.5-26c-0.8,1.8-1.6,3.6-2.3,5.4
				c-1.6-2.7-3.2-5.4-2.3-8.3l-3.3,2.9c-1.4-3.6-2.5-7.2-0.8-11l-4.1,1.5c-1.3-2-1.3-4.5,1.6-7.7l-10.6,0.7l-0.4,2.9l0,0
				C862.7-41.9,862.7-38.6,861.3-33.4z"/>
		</g>
		<g id="Rosto">
			<path class="st151" d="M799.8-121.1c-9.1,11.7-13.1,25.5-12.8,41c0.6,7.5-2.1,12.2-7.1,18.1c-5.3,5.4-5.1,9,2.3,14.1
				c1.6,2.3,2.6,5.3,4.3,9.6c-0.3,0.8-0.5,1.7,1.6,3.5c0.4,1.6,0.5,3.2,2.6,3.6l7.3,9.3c2.8,5.5,12.3,8.1,21.8,2l26.5-12.4
				c5.2-1.5,7.3-9.8,7.8-21.6l-1.8-55l-17.6-20.3l-33.6,1.4L799.8-121.1z"/>
			<path class="st171" d="M792.6-109.4c-4.1,8.9-5.8,18.7-5.6,29.2c0.6,7.5-2.1,12.2-7.1,18.1c-5.3,5.4-5.1,9,2.3,14.1
				c1.6,2.3,2.6,5.3,4.3,9.6c-0.3,0.8-0.5,1.7,1.6,3.5c0.4,1.6,0.5,3.2,2.6,3.6l4.2,5.4l-4-5.9c-1.7,0-2.3-1.5-2.5-3.6
				c-1-0.5-1.8-1.2-1.4-3.5c-1.3-3.7-2.7-7.1-4.6-9.8c-5.6-3.4-7.7-7.8-2-13.1c4.7-5.2,7.7-11.1,7-18.5
				C787.6-91.2,788.9-101.3,792.6-109.4z"/>
		</g>
		<g id="MãoFrente">
			<path class="st151" d="M815.1,25c7.6-21,5.9-39.3-8.2-42.5c-3.3-0.6-7.7-0.8-12.9-0.6c-3.3-3.5-6.8-6.3-11.5-6.8l-1.1-0.9V-28
				l3.3-1c1.7,2.4,5.4,5.9,7,1.6c1.2-3.2-1.7-6.5-4.7-9.9c-0.5-0.7-1.4-1.1-3.4-0.8c-1.7-5.6-5-7.8-9.8-6.8
				c-1.5-4.6-3.5-8.4-10.9-3.4c-2.9,0.8-6,1.9-10,4.9c-5.1,2.9-7.7,7.1-6.6,13.4c0,15.9,5.4,24.3,15.3,26.3
				c15.4,6.9,28,14.3,26.8,25L815.1,25z"/>
			<path class="st168" d="M746.3-27.2c0-0.9-0.1-1.8-0.1-2.8c-1.1-6.4,1.5-10.6,6.6-13.4c4-2.9,7.1-4.1,10-4.9
				c7.4-5,9.4-1.2,10.9,3.4c4.8-1,8.1,1.2,9.8,6.8c2-0.3,2.9,0.1,3.4,0.8c3,3.4,5.9,6.7,4.7,9.9c-1.6,4.3-5.3,0.8-7-1.6l-3.3,1v2.2
				l1.1,0.9c4.6,0.5,8.2,3.3,11.5,6.8c5.2-0.2,9.7-0.1,12.9,0.6c4.4,1,7.6,3.5,9.7,7.1c-3.3-5.3-10.3-8.1-22.9-7.1
				c-3.2-3.6-6.9-6.4-11.8-6.8l-1.1-0.9l-0.2-3.3l4.4-1.3c1.7,2.9,4.9,5.6,6.3,2.1c0.8-2.2-4.2-11.2-8.3-9.6
				c-9.8,1.1-13.1,5.6-10.7,13.3c-3.6-7.4-0.7-12.3,9.6-14.2c-1-5.8-5.3-8.2-16.5-3.7c-6.1,3-4.8,9-1.9,15.6l1.1,2.6l-3.2-5.5
				l-0.4,2.4c-3-8.2-2.5-15.4,11.1-18.4c-0.8-3.8-2.3-6.7-9.1-2.4c-12.3,3.2-11.1,11.4-8.1,20.2c-2.2-4.1-3.4-8.8-1.8-15.5
				c-4.6,2.3-6.8,6.5-6.4,12.5L746.3-27.2z"/>
		</g>
		<g id="Olhos">
			<g id="Branco">
				<path class="st175" d="M815.5-76.7c-6.9,3.4-13.6,4.2-20.1,3.9c-1.7-6.3-3.5-12.7-0.9-17.1c4.8-1.7,10.8-1.9,20.9,2.9
					C819-82.7,819.8-79,815.5-76.7z"/>
			</g>
			<g id="Boca">
				<path class="st176" d="M793.1-37.7c5.1-1.3,12.6,1.3,8.6,9c-1.9,1.4-4.5,1-5.2-2.1c-0.4-2.6-0.7-5-0.9-6.8L793.1-37.7z"/>
			</g>
			<g id="retina">
				<ellipse class="st177" cx="799.4" cy="-82.4" rx="5.4" ry="9.3"/>
				<path class="st178" d="M804.8-82.4c0,5.1-2.4,9.3-5.4,9.3s-5.4-4.2-5.4-9.3C796.3-81.5,799.9-81.5,804.8-82.4z"/>
				<ellipse class="st177" cx="798.1" cy="-81.9" rx="2.8" ry="4.5"/>
				<ellipse class="st175" cx="797" cy="-85.7" rx="2.2" ry="2.1"/>
				<ellipse class="st175" cx="800.1" cy="-83.5" rx="0.8" ry="1.1"/>
			</g>
			<g id="CiliosBlack">
				<path class="st173" d="M790.1-85.3c1.5,0.1,3,0,7.8-4.1c11.6-0.7,18.4,1.8,19.6,7.8c0.5,1.9,0.1,3.6-1.6,5
					c4.7-2.7,4.1-6.4-0.3-11c-4.1-3-8.6-5.8-20.3-4.5C791.6-89.2,789.9-87,790.1-85.3z"/>
			</g>
		</g>
		<g id="Orelha">
			<path class="st151" d="M860.7-75.3c1.3-13.4,18.2-16.1,20.2-6.4c5.8,32.8-17,44.9-24.2,33.9C855.3-57.4,856.4-66.6,860.7-75.3z"
				/>
			<path class="st168" d="M863.9-72.7c2.8-6,8.6-9.8,13.4-4.8C872.9-83.1,867.3-80.9,863.9-72.7z"/>
			<path class="st168" d="M861.3-57c2.5-1.5,4.8-3.5,4.8-10.1c-0.2-4.8,2.4-6.4,9.3-3.3c-4-0.5-8.8-2.3-8.3,4.3
				C866.6-60.5,865.1-56.8,861.3-57z"/>
			<path class="st168" d="M869.8-56.1c-1.7,4.4-4.3,5.3-7.4,4C865-52,867.6-52.5,869.8-56.1z"/>
			<path class="st168" d="M871.3-63.7c-0.6-2.4-1.8-4.7-4-6.5l1.4-1.1C870.4-69.8,870.9-66.8,871.3-63.7z"/>
		</g>
		<g id="Sombrancelhas">
			<path class="st173" d="M792.9-101.2c15-4.2,23.8-2,31,2c4.5,0,3.8-3.6-6.8-7.1C796.3-111.2,790.3-102.2,792.9-101.2z"/>
		</g>
		<g id="CabeloFrente">
			<path class="st173" d="M849.8-73.6c-1.5,21.2-1.3,38.8-5.5,51.3l-1.1,2.5c3.6-3.5,6.9-7.4,8.9-13.8c0.9,4.6,2.4,8.3,4.7,10.8
				c-2.5-12.3,0.3-32.5,4.2-53.8l4-14.1l-10.9-2.1L849.8-73.6z"/>
			<path class="st173" d="M797.3-117.8c9.9-8.4,27.6-6.9,39.4,5c6.2,6.7,8.6,19.3,10.2,33.2c-2.1,19.3-3.1,27.7,0.7,34.6l2.1,2.7
				c-1.4-11.8-1.1-23.4,4.2-35l2.8-16.6l-2.8-18.9l-17-18.3l-21.8-2.6l-14.5,4.6l-3.3,6.8L797.3-117.8L797.3-117.8z"/>
			<path class="st42" d="M846.3-84.8c0.2,1.7,0.4,3.4,0.6,5.1c-2.1,19.3-3.1,27.7,0.7,34.6l2.1,2.7c-1-8.2-1.1-16.4,0.7-24.5
				c-2.3,5.4-2.4,12.3-1.9,19.6l0.2,1.7c-2.8-4-3.9-13.8-0.9-33.3l1.5-7.3l-1.8,5.6L846.3-84.8z"/>
			<path class="st42" d="M855.9-40c-0.3,6.6-0.2,12.4,0.8,17.1c-2.3-2.5-3.8-6.1-4.7-10.8c-2,6.3-5.3,10.2-8.9,13.8l1.1-2.5
				c1.6-4.9,2.6-10.5,3.3-16.9c-0.3,6.1-0.6,12.6-1.5,15.2c2.6-3.4,4.7-7.1,6.2-11.4c0.6,3.8,1.5,7.3,3.3,9.5
				C855-28.5,855.5-34.5,855.9-40z"/>
		</g>
		<g id="Óculos_1_" class="st179">
			<path class="st180" d="M784.1-58L784.1-58c-1.6,0-2.9-1.3-2.9-2.9v-24.3c0-1.6,1.3-2.9,2.9-2.9l0,0c1.6,0,2.9,1.3,2.9,2.9v24.3
				C787-59.3,785.7-58,784.1-58z"/>
			<rect x="784.3" y="-75.7" class="st180" width="75.4" height="3"/>
		</g>
	</g>
</g>
<g id="Computador">
	<g id="Mouse">
		<g id="fioDo_mouse">
			<path class="st181" d="M612.4,99.5c5.1-8.9,13.2-24.4,38.6-14.2c7.6,3,17.4,4.7,29,5.5"/>
		</g>
		<path class="st90" d="M678.3,75.6c-10.4,11.9-11,21.6,1.3,21.6h64.3c16.8-1,12-24.5-10.8-37.5C713.8,50,694.7,59.5,678.3,75.6z"/>
		<path class="st182" d="M680,76.5c7-3.6,10.3-7.2,10.1-10.9c-7.1,0.9-11.5,3.9-11.8,10L680,76.5z"/>
		<path class="st182" d="M688,67.9c8.5,6.9,14.6,16.6,19.8,27.7C701.9,85.1,695.5,75.5,688,67.9z"/>
		<path class="st183" d="M749.8,75.4c-3.4-5.6-9.1-11.2-16.8-15.6c-14.4-7.3-28.6-3.8-41.8,5.1C714.2,53.9,733.6,58,749.8,75.4z"/>
	</g>
	<g id="Teclado">
		<g id="Fio">
			<path class="st181" d="M654.3,183.9c-14.1-5.7-25.4,6.5-35,28.5c-8,27.5-33.7,46.3-72.3,46.3c-45,0-61-56.7-24-76.2"/>
		</g>
		<path class="st182" d="M629.8,257.3v-8.8h115.9v8.8c0.1,2.1-1.9,3-6.2,3H635.4C632.6,260.3,629.8,259.1,629.8,257.3z"/>
		<path class="st90" d="M668,119h57.7c4.1,0,5.5,3.1,6.3,7.1l13.6,120.2c0.7,3.6-1.2,7.3-9.3,7.3H638c-7.4,0-8.9-3.3-8-8l34-121.3
			C664.6,121.6,665.9,119.7,668,119z"/>
		<polygon class="st182" points="637.5,248.5 739.5,248.5 737.3,242.7 639.5,242.7 		"/>
		<polygon class="st182" points="668.8,120.8 639.5,242.7 737.3,242.7 725.5,120.8 670.4,120.8 724.3,122 735.8,240.3 642,241.3 		
			"/>
		<line class="st184" x1="642.9" y1="235.5" x2="688.5" y2="235.5"/>
		<line class="st184" x1="645.2" y1="226.8" x2="735.3" y2="226.8"/>
		<line class="st184" x1="733.6" y1="217.8" x2="647.2" y2="217.8"/>
		<line class="st184" x1="649.1" y1="208.5" x2="732.6" y2="208.5"/>
		<line class="st184" x1="651.2" y1="199.8" x2="718.1" y2="199.8"/>
		<line class="st184" x1="717.8" y1="191.5" x2="653.1" y2="191.5"/>
		<line class="st184" x1="654.3" y1="183.9" x2="717.6" y2="183.9"/>
		<line class="st184" x1="656.2" y1="177.2" x2="717.4" y2="177.2"/>
		<line class="st184" x1="657.8" y1="170.2" x2="717.6" y2="170.2"/>
		<line class="st184" x1="716.9" y1="163.3" x2="659.2" y2="163.3"/>
		<line class="st184" x1="660.9" y1="156.3" x2="727.6" y2="156.3"/>
		<line class="st184" x1="727.2" y1="149" x2="662.5" y2="149"/>
		<line class="st184" x1="664" y1="142.3" x2="726.2" y2="142.3"/>
		<line class="st184" x1="665.6" y1="135.1" x2="707" y2="135.1"/>
		<line class="st184" x1="667" y1="128.5" x2="725" y2="128.5"/>
		<line class="st184" x1="716.3" y1="124" x2="716.3" y2="140"/>
		<line class="st184" x1="719.5" y1="128.5" x2="723.3" y2="128.5"/>
		<polyline class="st184" points="654.3,241.6 673.5,124 711,124 725.8,124 		"/>
		<line class="st184" x1="719.5" y1="135.1" x2="724.5" y2="135.1"/>
		<polyline class="st184" points="721.4,128.5 707.7,128.5 707.7,135.1 717.2,135.1 726.2,135.1 		"/>
		<line class="st184" x1="707.7" y1="121.7" x2="708.8" y2="240.6"/>
		<line class="st184" x1="716.3" y1="138.8" x2="719.3" y2="240.6"/>
		<line class="st184" x1="699" y1="121.4" x2="699" y2="240.6"/>
		<line class="st184" x1="691.5" y1="124" x2="688.5" y2="240.6"/>
		<line class="st184" x1="685.3" y1="124" x2="678.3" y2="240.6"/>
		<line class="st184" x1="680" y1="124" x2="668" y2="241.6"/>
		<line class="st184" x1="699" y1="235.5" x2="736" y2="235.5"/>
		<polyline class="st184" points="673.7,120.9 673.5,124 668,124 		"/>
	</g>
	<g id="ApoioMonitor">
		<path class="st90" d="M513.7,193.1L567,98.7l5.7-3.2c-3.1,1.7,12.9,0,12.9,0h35c5.7,0.6,9.7,1.8,7.6,5.5l-36.8,92
			c-1.3,3.1-3.3,4.9-6.1,5h-68.5C513,197.3,512.7,195.4,513.7,193.1z"/>
		<path class="st182" d="M601.9,95.5h-16.3c0,0-16,1.7-12.9,0l-5.7,3.2L513.7,193c-1,2.3-0.7,4.3,3.1,4.9h4.1h2.2h5h2.8L601.9,95.5z
			"/>
	</g>
	<g id="Monitor">
		<path class="st90" d="M615,51c0.3,0,0.5,0,0.7,0C615.5,50.8,615.3,50.7,615,51z"/>
		<polygon class="st90" points="615.4,52.1 518.5,191.5 518.5,-145.9 611.1,-106.4 615.4,-104.7 		"/>
		<path class="st90" d="M615.7,51c0,0.1,0.1,0.1,0.1,0.2L615.7,51C615.8,51,615.8,51,615.7,51z"/>
		<polygon class="st185" points="606,-96.6 530.7,-126.4 532.1,148.7 608.5,48.5 608.2,-95.8 		"/>
		<rect x="503.3" y="-145.9" class="st182" width="15.2" height="337.4"/>
	</g>
	<g id="ps">
		<polygon class="st186" points="532.1,135.1 608.5,41.7 608.5,48.5 532.1,148.7 		"/>
		<polygon class="st187" points="608.2,-93.6 530.7,-116.1 530.7,-126.4 608.2,-95.8 		"/>
		<polygon class="st47" points="533,135.9 533,145 538,138.8 538,130 		"/>
		<path class="st164" d="M546.6,117.3"/>
		<polygon class="st164" points="539.6,139.1 539.6,125.9 546.6,117.3 555.5,106.5 555.5,118.5 		"/>
		<polygon class="st188" points="533,-116.8 533,-119.5 533,-124.3 536.3,-121.3 533.8,-119.7 		"/>
		<polygon class="st188" points="540.7,-121.7 537.5,-119.5 539.8,-117.7 537.5,-116.1 540.7,-117.7 539.1,-118.9 		"/>
		<polygon class="st189" points="597,-97.2 597,-100.2 608.2,-95.8 608.2,-93.6 		"/>
		<polygon class="st190" points="530.9,-103.5 608.2,-86.9 608.2,-93.6 530.7,-116.1 		"/>
		<polygon class="st191" points="586.8,-97.7 586.8,-92.5 606.2,-88.5 606.2,-92.3 		"/>
		<polygon class="st190" points="536.3,-102.3 538,127.9 532.1,135.1 530.9,-103.5 		"/>
		<polyline class="st190" points="597,55.7 597,-89.2 608.2,-86.9 608.5,41.7 597,55.7 		"/>
		
			<linearGradient id="SVGID_7_" gradientUnits="userSpaceOnUse" x1="607.9473" y1="112.0088" x2="595.4866" y2="133.5912" gradientTransform="matrix(1 0 0 -1 0 50)">
			<stop  offset="1.020408e-002" style="stop-color:#000000"/>
			<stop  offset="0.5459" style="stop-color:#FF0E00"/>
			<stop  offset="1" style="stop-color:#FFFFFF"/>
		</linearGradient>
		<polyline class="st192" points="598.1,-85.1 606.2,-83.7 606.2,-61 598.1,-60.4 598.1,-85.1 		"/>
		<polyline class="st193" points="536.3,-102.3 538,127.9 597,55.7 597,-89.2 536.3,-102.3 536.3,-102.3 		"/>
		<polyline class="st194" points="540,-95.3 594.8,-85.7 594.8,-24.7 594.8,50.5 540,113.2 540,-1.9 540,-95.3 		"/>
		<polygon class="st190" points="597,-59.3 608.2,-60.2 608.3,-30.3 608.3,-30.3 597,-25.6 		"/>
		<polyline class="st190" points="597,39.9 608.3,27.9 608.3,-30.3 597,-25.6 597,39.9 597,43.7 608.5,31 608.3,27.9 608.2,35.2 
			597,48 597,48 597,43.7 		"/>
		<path class="st195" d="M542.3,36.7c3.1-5.9,8-13.1,10-24c1.5-6.3,10.3-10.4,14.4-5.4c5.7,4.7,11.7,7.8,18.6,5.4
			c3.1-1,6.3-5.3,9.6-15.7v53.5L540,113.2v-73L542.3,36.7z"/>
		<path class="st196" d="M540,15.3c4.8,3.4,8.6,4.6,16,4.3c8,0.6,13.9-2.4,16.4-10.8c3.1-10.2,9.3-14,19.7-8.8l2.6,1.2v49.2
			L540,113.2V15.3z"/>
		<path class="st197" d="M564.3-54c-6,0-10.8-5.4-10.8-12.2c0-6.6,4.7-12,10.5-12.2c-1.3-0.6-2.7-0.9-4.2-0.9
			c-6.5,0-11.8,6.1-11.8,13.7c0,7.6,5.3,13.7,11.8,13.7c2.5,0,4.8-0.9,6.7-2.5C565.9-54.1,565.1-54,564.3-54z"/>
		<circle class="st198" cx="583.5" cy="-63.9" r="0.6"/>
		<ellipse class="st198" cx="564.3" cy="-45.3" rx="0.7" ry="0.6"/>
		<ellipse class="st198" cx="552.4" cy="-37.4" rx="0.4" ry="0.6"/>
		<ellipse class="st198" cx="582.6" cy="-33.4" rx="0.3" ry="0.6"/>
		<ellipse class="st198" cx="547.7" cy="-27.1" rx="0.4" ry="0.5"/>
		<ellipse class="st198" cx="568.4" cy="-29.8" rx="1" ry="0.9"/>
		<ellipse class="st198" cx="581.6" cy="-20.5" rx="0.7" ry="0.6"/>
		<ellipse class="st198" cx="567.7" cy="-68.7" rx="0.8" ry="0.7"/>
		<ellipse class="st198" cx="580.3" cy="-79.9" rx="0.6" ry="0.7"/>
		<ellipse class="st198" cx="543" cy="-10" rx="0.5" ry="0.4"/>
		<ellipse class="st198" cx="556.9" cy="-9.7" rx="0.4" ry="0.6"/>
		<ellipse class="st198" cx="587.4" cy="-49.9" rx="0.6" ry="0.6"/>
		<ellipse class="st198" cx="544.7" cy="-89.6" rx="0.4" ry="0.4"/>
		<ellipse class="st198" cx="572" cy="-13.7" rx="0.5" ry="0.8"/>
		<ellipse class="st198" cx="545.3" cy="3.3" rx="0.6" ry="0.6"/>
		<ellipse class="st198" cx="543.9" cy="-49.9" rx="0.4" ry="0.6"/>
		<ellipse class="st198" cx="555.1" cy="-84.7" rx="0.3" ry="0.4"/>
	</g>
</g>
<g id="Pendrive">
	<polygon class="st199" points="898,220.7 908.8,239.6 923.2,239.6 910.6,220.7 	"/>
	<polygon class="st200" points="908.8,247.3 908.8,239.6 898,220.7 898,228.6 	"/>
	<polygon class="st173" points="899.8,224 913.5,247.8 931.7,247.8 915.8,224 	"/>
	<rect x="913.5" y="247.8" class="st42" width="18.2" height="9.8"/>
	<polygon class="st174" points="913.5,257.7 913.5,247.8 899.8,224 899.8,233.9 	"/>
	<polygon class="st158" points="933.8,258.7 929.5,251.8 914.8,251.8 918.5,258.6 	"/>
</g>
<g id="Caneca">
	<g id="lugarDeSegurar">
	</g>
	<g id="ParteTrás">
		<ellipse class="st201" cx="833.6" cy="161.9" rx="30.4" ry="15.3"/>
		<ellipse class="st202" cx="833.4" cy="167.6" rx="27.2" ry="16.3"/>
		<ellipse class="st90" cx="833.6" cy="167.8" rx="25.7" ry="13.7"/>
		<polyline class="st202" points="862.8,161.9 857.9,163.4 860.4,165.8 862.8,161.9 862.8,161.9 		"/>
		<polygon class="st202" points="807,165.1 807.9,162.6 804,161.5 806,165.1 		"/>
		<path class="st201" d="M786,194.1c-0.2,13.1,6.3,21.9,21.9,21.9v4.6c-17.4,0-27.7-9.2-27.7-26.5c0-15.2,3.8-26.5,23.7-26.8v5.6
			C786.6,172.8,786.7,182.7,786,194.1z"/>
		<path class="st202" d="M800.1,219.9c2.4,0.5,5,0.7,7.9,0.7V216c-2.9,0-5.6-0.3-7.9-0.9V219.9z"/>
		<path class="st202" d="M799.1,167.6c1.5-0.2,3.1-0.3,4.8-0.3v5.6c-1.9,0-3.5,0.1-5,0.3L799.1,167.6z"/>
	</g>
	<g id="Parte_frente">
		<path class="st201" d="M803.2,160.8v67.7c0,20.1,60.8,17.9,60.8,0v-67.7C850.8,174.7,820.2,177.2,803.2,160.8z"/>
		<path class="st20" d="M811.3,196.9c3.9,9,13,21.4,22.2,33.8c9.8-12.8,18.5-24.9,24.1-34.8c5.7-15.3-24-17.7-23.9,0
			c0-17.4-23.7-15.4-22.9-2.9C810.5,193.9,810.8,195.4,811.3,196.9z"/>
		<text transform="matrix(0.9439 0 0 1 819.416 207.502)" class="st201 st203 st204">Café</text>
	</g>
	<g id="Fumaça">
		<path class="st205" d="M833.4,141.4c2.6-3.7,5.2-6.9,8.3-8.3c2-5.3,4.8-10,9.3-13.4c0.8-3.7,2.4-6.7,6.1-7.6c3-6.2,7.9-10,15.1-11
			c10.6-6.8,21,8.8,6.6,11c0.4,4.6-2,8.4-12.9,9.9c-1.3,3.1-3.4,5.7-9.6,6.4c-1.6,4.7-3,9.5-11,8.3L833.4,141.4z"/>
	</g>
</g>
<g id="Pontos_de_fuga" class="st179">
	<polyline class="st206" points="1001.3,-101.5 698.4,-67.6 999.5,290 	"/>
	<line class="st206" x1="703.3" y1="-66.9" x2="1502.2" y2="58"/>
	<line class="st206" x1="1045.5" y1="274.5" x2="698.4" y2="-67.6"/>
	<polyline class="st206" points="1003.7,-135.5 698.4,-67.6 486.5,209 	"/>
	<polyline class="st206" points="519,-145.9 698.4,-67.6 590.2,198 	"/>
	<polyline class="st206" points="531.2,-96.9 698.4,-67.6 538.5,108.8 	"/>
	<polyline class="st206" points="519,191.5 698.4,-67.6 1200.6,-88.5 	"/>
	<line class="st206" x1="1041.6" y1="58.7" x2="698.4" y2="-67.6"/>
	<polyline class="st206" points="1052.3,287.3 698.4,-67.6 1041.6,67.4 	"/>
	<polyline class="st206" points="1001.3,-88.5 698.4,-67.6 1443.3,287.3 	"/>
	<polyline class="st206" points="1159.4,41.3 695,-67 1221.1,41.3 	"/>
	<polyline class="st206" points="1098.4,267.3 698.4,-67.6 1098.4,186 	"/>
	<polyline class="st206" points="1098.4,226.5 698.4,-67.6 1076.4,118.7 	"/>
	<polyline class="st206" points="1161.3,186 698.4,-67.6 1098.4,206.3 	"/>
	<polyline class="st206" points="1365.8,58.7 698.4,-67.6 1162.8,58.7 	"/>
	<polyline class="st206" points="531.3,-116.1 698.4,-67.6 532.6,135.1 	"/>
	<polyline class="st206" points="531.2,-103.5 698.4,-67.6 532.5,122.5 	"/>
	<polyline class="st206" points="537.2,-0.5 698.4,-67.6 538.3,103 	"/>
	<polyline class="st206" points="1271.7,-147.6 703.3,-66.9 1271.7,-134.6 	"/>
	<line class="st206" x1="1470.9" y1="-134.6" x2="703.3" y2="-66.9"/>
	<polyline class="st206" points="536.7,-56 697.9,-67.6 1271.7,-158 	"/>
	<line class="st206" x1="1273.6" y1="-183.3" x2="697.9" y2="-67.6"/>
	<polyline class="st206" points="1271.7,-171.6 697.9,-67.6 1271.7,-189.1 	"/>
	<polyline class="st206" points="1416.1,-194.4 697.9,-67.6 1376.3,-192.1 	"/>
	<polyline class="st206" points="1416.9,-182.7 697.9,-67.6 1416.1,-184.7 	"/>
	<polyline class="st206" points="1367.3,-10 697.9,-67.6 1373.4,54.6 	"/>
	<line class="st206" x1="1466.1" y1="-10" x2="697.9" y2="-67.6"/>
</g>
</svg>
