<?xml version="1.0" encoding="utf-8"?>
<!-- Generator: Adobe Illustrator 19.0.0, SVG Export Plug-In . SVG Version: 6.00 Build 0)  -->
<svg version="1.1" id="Camada_1" xmlns="http://www.w3.org/2000/svg" xmlns:xlink="http://www.w3.org/1999/xlink" x="0px" y="0px"
	 viewBox="0 0 50 50" style="enable-background:new 0 0 50 50;" xml:space="preserve">
<style type="text/css">
	.st0{opacity:0.72;fill:#E23836;}
</style>
<polygon id="XMLID_1_" class="st0" points="10.3,14.7 44.2,14.7 42.2,16 43.8,17.1 42.6,17.9 44.2,18.9 42.9,19.9 44.6,21 
	42.9,21.6 44.6,22.8 43.2,23.6 45.1,24.4 43.3,25.4 44.6,26.2 43.1,26.8 45.1,27.7 43.3,28.4 45.1,29.4 43.1,30.5 45.1,31.6 
	44.3,32.1 45.1,32.8 10.3,32.8 7.9,32.8 9.9,31.5 7.3,31.2 9.7,30.4 7.3,29.5 9.1,29 7.3,28.3 9.8,27.2 7.3,26.7 9.3,25.7 7.3,25 
	9.2,24.1 7.3,23.2 9.1,22.1 7.3,21.2 9,20.6 7.3,19.6 9.1,18.8 7.3,18.2 8.7,17.2 7.3,16.2 8.4,15.7 7.3,14.7 "/>
</svg>
